STARTFONT 2.1
COMMENT
COMMENT Converted from OpenType font "P:\temp\incoming\font stuff\winfont\1900.80.5.ttf" by "otf2bdf 3.0".
COMMENT
FONT -FreeType-1900.80.5-Medium-R-Normal--241-1320-132-132-P-974-ISO10646-1
SIZE 132 132 132
FONTBOUNDINGBOX 151 248 0 -35
STARTPROPERTIES 19
FOUNDRY "FreeType"
FAMILY_NAME "1900.80.5"
WEIGHT_NAME "Medium"
SLANT "R"
SETWIDTH_NAME "Normal"
ADD_STYLE_NAME ""
PIXEL_SIZE 160
POINT_SIZE 1320
RESOLUTION_X 132
RESOLUTION_Y 132
SPACING "P"
AVERAGE_WIDTH 974
CHARSET_REGISTRY "ISO10646"
CHARSET_ENCODING "1"
FONT_ASCENT 212
FONT_DESCENT 34
COPYRIGHT "Copyright by dustBUST Fonts 2001."
_OTF_FONTFILE "P:\temp\incoming\font stuff\winfont\1900.80.5.ttf"
_OTF_PSNAME "1900805"
ENDPROPERTIES
CHARS 193
STARTCHAR 0020
ENCODING 32
SWIDTH 475 0
DWIDTH 115 0
BBX 0 0 0 0
BITMAP
ENDCHAR
STARTCHAR 0021
ENCODING 33
SWIDTH 289 0
DWIDTH 70 0
BBX 58 150 1 0
BITMAP
000001FFE0000000
00000FFFFC000000
00007FFFFF800000
0001FFFFFFE00000
0007FFFFFFF80000
000FFFFFFFFC0000
001FFFFFFFFE0000
007FFFFFFFFF8000
00FFFFFFFFFFC000
01FFFFFFFFFFE000
01FFFFFFFFFFE000
03FFFFFFFFFFF000
07FFFF807FFFF800
0FFFFC000FFFFC00
0FFFF00003FFFC00
1FFFE00001FFFE00
1FFFC00000FFFE00
3FFF8000007FFF00
3FFF0000003FFF00
7FFE0000001FFF00
7FFC0000000FFF80
7FFC0000000FFF80
7FF800000007FF80
FFF800000007FFC0
FFF800000007FFC0
FFF000000003FFC0
FFF000000003FFC0
FFF000000003FFC0
FFF000000003FFC0
FFF000000003FFC0
FFF000000003FFC0
FFF000000003FFC0
FFF000000003FFC0
FFF000000003FFC0
FFF000000003FFC0
FFF000000003FFC0
FFF000000003FFC0
FFF000000003FFC0
FFF000000003FFC0
FFF000000003FFC0
FFF000000003FFC0
FFF000000003FFC0
FFF000000003FFC0
FFF000000003FFC0
FFF000000003FFC0
FFF000000003FFC0
FFF000000003FFC0
FFF000000003FFC0
FFF000000003FFC0
FFF000000003FFC0
FFF000000003FFC0
FFF000000003FFC0
FFF000000003FFC0
FFF000000003FFC0
FFF000000003FFC0
FFF000000003FFC0
FFF000000003FFC0
FFF000000003FFC0
FFF000000003FFC0
FFF000000003FFC0
FFF000000003FFC0
FFF000000003FFC0
FFF000000003FFC0
FFF000000003FFC0
FFF000000003FFC0
FFF000000003FFC0
FFF000000003FFC0
FFF000000003FFC0
FFF000000003FFC0
FFF000000003FFC0
FFF000000003FFC0
FFF000000003FFC0
FFF000000003FFC0
FFF000000003FFC0
FFF000000003FFC0
FFF000000003FFC0
FFF000000003FFC0
FFF000000003FFC0
FFF000000003FFC0
FFF800000007FFC0
FFF800000007FFC0
7FF800000007FF80
7FFC0000000FFF80
7FFC0000000FFF80
7FFE0000001FFF00
3FFF0000003FFF00
3FFF8000007FFF00
1FFF800000FFFE00
1FFFE00001FFFE00
0FFFF00003FFFC00
0FFFFC000FFFFC00
07FFFF807FFFF800
03FFFFFFFFFFF000
01FFFFFFFFFFE000
01FFFFFFFFFFC000
00FFFFFFFFFF8000
003FFFFFFFFF0000
001FFFFFFFFE0000
001FFFFFFFFE0000
003FFFFFFFFF0000
007FFFFFFFFF8000
00FFFFFFFFFFC000
01FFFFFFFFFFE000
03FFFFFFFFFFF000
07FFFF807FFFF800
0FFFFC000FFFF800
0FFFF00003FFFC00
1FFFE00001FFFE00
1FFFC00000FFFE00
3FFF8000007FFF00
3FFF0000003FFF00
7FFE0000001FFF00
7FFC0000000FFF80
7FFC0000000FFF80
7FF800000007FF80
FFF800000007FF80
FFF800000007FFC0
FFF000000003FFC0
FFF000000003FFC0
FFF000000003FFC0
FFF000000003FFC0
FFF000000003FFC0
FFF000000003FFC0
FFF000000003FFC0
FFF000000003FFC0
FFF800000007FFC0
FFF800000007FFC0
7FF800000007FF80
7FFC0000000FFF80
7FFC0000000FFF80
7FFE0000001FFF80
3FFF0000003FFF00
3FFF0000007FFF00
1FFF800000FFFE00
1FFFE00001FFFE00
0FFFF00003FFFC00
0FFFFC000FFFFC00
07FFFF807FFFF800
03FFFFFFFFFFF000
01FFFFFFFFFFE000
01FFFFFFFFFFE000
00FFFFFFFFFFC000
007FFFFFFFFF8000
001FFFFFFFFE0000
000FFFFFFFFC0000
0007FFFFFFF80000
0001FFFFFFE00000
00007FFFFF800000
00001FFFFE000000
000001FFE0000000
ENDCHAR
STARTCHAR 0022
ENCODING 34
SWIDTH 289 0
DWIDTH 70 0
BBX 58 69 1 81
BITMAP
000001FFE0000000
00000FFFFC000000
00007FFFFF800000
0001FFFFFFE00000
0007FFFFFFF80000
000FFFFFFFFC0000
001FFFFFFFFE0000
007FFFFFFFFF8000
00FFFFFFFFFFC000
01FFFFFFFFFFE000
01FFFFFFFFFFE000
03FFFFFFFFFFF000
07FFFF807FFFF800
0FFFFC000FFFFC00
0FFFF00003FFFC00
1FFFE00001FFFE00
1FFF8000007FFE00
3FFF0000003FFF00
3FFF0000003FFF00
7FFE0000001FFF80
7FFC0000000FFF80
7FFC0000000FFF80
7FF800000007FF80
FFF800000007FFC0
FFF800000007FFC0
FFF000000003FFC0
FFF000000003FFC0
FFF000000003FFC0
FFF000000003FFC0
FFF000000003FFC0
FFF000000003FFC0
FFF000000003FFC0
FFF000000003FFC0
FFF000000003FFC0
FFF000000003FFC0
FFF000000003FFC0
FFF000000003FFC0
FFF000000003FFC0
FFF000000003FFC0
FFF000000003FFC0
FFF000000003FFC0
FFF000000003FFC0
FFF000000003FFC0
FFF000000003FFC0
FFF800000007FFC0
FFF800000007FFC0
7FF800000007FF80
7FFC0000000FFF80
7FFC0000000FFF80
7FFE0000001FFF80
3FFF0000003FFF00
3FFF0000003FFF00
1FFF8000007FFE00
1FFFE00001FFFE00
0FFFF00003FFFC00
0FFFFC000FFFFC00
07FFFF807FFFF800
03FFFFFFFFFFF000
03FFFFFFFFFFE000
01FFFFFFFFFFE000
00FFFFFFFFFFC000
007FFFFFFFFF8000
001FFFFFFFFE0000
000FFFFFFFFC0000
0007FFFFFFF80000
0001FFFFFFE00000
00007FFFFF800000
00001FFFFE000000
000001FFE0000000
ENDCHAR
STARTCHAR 0023
ENCODING 35
SWIDTH 285 0
DWIDTH 69 0
BBX 0 0 0 0
BITMAP
ENDCHAR
STARTCHAR 0024
ENCODING 36
SWIDTH 285 0
DWIDTH 69 0
BBX 0 0 0 0
BITMAP
ENDCHAR
STARTCHAR 0025
ENCODING 37
SWIDTH 285 0
DWIDTH 69 0
BBX 0 0 0 0
BITMAP
ENDCHAR
STARTCHAR 0026
ENCODING 38
SWIDTH 669 0
DWIDTH 162 0
BBX 150 150 1 0
BITMAP
000001FFFFFFFFFFFFFFFFFFFF000000000000
00001FFFFFFFFFFFFFFFFFFFFFF00000000000
00007FFFFFFFFFFFFFFFFFFFFFFC0000000000
0001FFFFFFFFFFFFFFFFFFFFFFFF0000000000
0007FFFFFFFFFFFFFFFFFFFFFFFFC000000000
000FFFFFFFFFFFFFFFFFFFFFFFFFE000000000
001FFFFFFFFFFFFFFFFFFFFFFFFFF800000000
007FFFFFFFFFFFFFFFFFFFFFFFFFFC00000000
00FFFFFFFFFFFFFFFFFFFFFFFFFFFE00000000
01FFFFFFFFFFFFFFFFFFFFFFFFFFFF00000000
01FFFFFFFFFFFFFFFFFFFFFFFFFFFF80000000
03FFFFFFFFFFFFFFFFFFFFFFFFFFFF80000000
07FFFF80000000000000000003FFFFC0000000
0FFFFC000000000000000000007FFFE0000000
0FFFF0000000000000000000001FFFE0000000
1FFFE0000000000000000000000FFFF0000000
1FFFC00000000000000000000007FFF0000000
3FFF800000000000000000000003FFF8000000
3FFF000000000000000000000001FFF8000000
7FFE000000000000000000000000FFFC000000
7FFC0000000000000000000000007FFC000000
7FFC0000000000000000000000007FFC000000
7FF80000000000000000000000003FFC000000
FFF80000000000000000000000003FFE000000
FFF80000000000000000000000003FFE000000
FFF00000000000000000000000001FFE000000
FFF00000000000000000000000001FFE000000
FFF00000000000000000000000001FFE000000
FFF00000000000000000000000001FFE000000
FFF00000000000000000000000001FFE000000
FFF00000000000000000000000001FFE000000
FFF00000000000000000000000001FFE000000
FFF00000000000000000000000001FFE000000
FFF00000000000000000000000001FFE000000
FFF00000000000000000000000001FFE000000
FFF00000000000000000000000001FFE000000
FFF00000000000000000000000001FFE000000
FFF00000000000000000000000001FFE000000
FFF00000000000000000000000001FFE000000
FFF00000000000000000000000001FFE000000
FFF00000000000000000000000001FFE000000
FFF00000000000000000000000001FFE000000
FFF00000000000000000000000001FFE000000
FFF00000000000000000000000001FFE000000
FFF00000000000000000000000001FFE000000
FFF00000000000000000000000001FFE000000
FFF000000003FFFFFFFF800000001FFF800000
FFF000000003FFFFFFFF800000001FFFF00000
FFF000000003FFFFFFFF800000001FFFFC0000
FFF000000003FFFFFFFF800000001FFFFF0000
FFF000000003FFFFFFFF800000001FFFFF8000
FFF000000003FFFFFFFF800000001FFFFFE000
FFF000000003FFFFFFFF800000001FFFFFF000
FFF000000003FFFFFFFF800000001FFFFFF800
FFF000000003FFFFFFFF800000001FFFFFFC00
FFF000000003FFFFFFFF800000001FFFFFFE00
FFF000000003FFFFFFFF800000001FFFFFFF00
FFF000000003FFFFFFFF800000001FFFFFFF00
FFF00000000000000000000000000007FFFF80
FFF00000000000000000000000000000FFFFC0
FFF000000000000000000000000000003FFFC0
FFF000000000000000000000000000001FFFE0
FFF0000000000000000000000000000007FFE0
FFF0000000000000000000000000000003FFF0
FFF0000000000000000000000000000001FFF0
FFF0000000000000000000000000000001FFF8
FFF0000000000000000000000000000000FFF8
FFF00000000000000000000000000000007FF8
FFF00000000000000000000000000000007FF8
FFF00000000000000000000000000000007FFC
FFF00000000000000000000000000000003FFC
FFF00000000000000000000000000000003FFC
FFF00000000000000000000000000000003FFC
FFF00000000000000000000000000000003FFC
FFF00000000000000000000000000000003FFC
FFF00000000000000000000000000000003FFC
FFF00000000000000000000000000000003FFC
FFF00000000000000000000000000000003FFC
FFF00000000000000000000000000000003FFC
FFF00000000000000000000000000000003FFC
FFF00000000000000000000000000000007FF8
FFF00000000000000000000000000000007FF8
FFF00000000000000000000000000000007FF8
FFF0000000000000000000000000000000FFF8
FFF0000000000000000000000000000001FFF0
FFF0000000000000000000000000000001FFF0
FFF0000000000000000000000000000003FFF0
FFF0000000000000000000000000000007FFE0
FFF000000000000000000000000000001FFFE0
FFF000000000000000000000000000003FFFC0
FFF00000000000000000000000000000FFFF80
FFF00000000000000000000000000007FFFF80
FFF000000003FFFFFFFF800000001FFFFFFF00
FFF000000003FFFFFFFF800000001FFFFFFE00
FFF000000003FFFFFFFF800000001FFFFFFC00
FFF000000003FFFFFFFF800000001FFFFFF800
FFF000000003FFFFFFFF800000001FFFFFF000
FFF000000003FFFFFFFF800000001FFFFFC000
FFF000000003FFFFFFFF800000001FFFFFE000
FFF000000003FFFFFFFF800000001FFFFFF000
FFF000000003FFFFFFFF800000001FFFFFF800
FFF000000003FFFFFFFF800000001FFFFFFC00
FFF000000003FFFFFFFF800000001FFFFFFE00
FFF000000003FFFFFFFF800000001FFFFFFF00
FFF00000000000000000000000000007FFFF80
FFF00000000000000000000000000000FFFFC0
FFF000000000000000000000000000003FFFC0
FFF000000000000000000000000000001FFFE0
FFF0000000000000000000000000000007FFE0
FFF0000000000000000000000000000003FFF0
FFF0000000000000000000000000000001FFF0
FFF0000000000000000000000000000001FFF8
FFF0000000000000000000000000000000FFF8
FFF00000000000000000000000000000007FF8
FFF00000000000000000000000000000007FF8
FFF00000000000000000000000000000007FFC
FFF00000000000000000000000000000003FFC
FFF00000000000000000000000000000003FFC
FFF00000000000000000000000000000003FFC
FFF00000000000000000000000000000003FFC
FFF00000000000000000000000000000003FFC
FFF00000000000000000000000000000003FFC
FFF00000000000000000000000000000003FFC
FFF00000000000000000000000000000003FFC
FFF00000000000000000000000000000003FFC
FFF80000000000000000000000000000003FFC
FFF80000000000000000000000000000007FFC
7FF80000000000000000000000000000007FF8
7FFC0000000000000000000000000000007FF8
7FFC000000000000000000000000000000FFF8
7FFE000000000000000000000000000001FFF0
3FFF000000000000000000000000000001FFF0
3FFF800000000000000000000000000003FFF0
1FFFC00000000000000000000000000007FFE0
1FFFE0000000000000000000000000000FFFE0
0FFFF0000000000000000000000000003FFFC0
0FFFFC00000000000000000000000000FFFFC0
07FFFF80000000000000000000000007FFFF80
03FFFFFFFFFFFFFFFFFFFFFFFFFFFFFFFFFF00
03FFFFFFFFFFFFFFFFFFFFFFFFFFFFFFFFFE00
01FFFFFFFFFFFFFFFFFFFFFFFFFFFFFFFFFE00
00FFFFFFFFFFFFFFFFFFFFFFFFFFFFFFFFFC00
007FFFFFFFFFFFFFFFFFFFFFFFFFFFFFFFF800
003FFFFFFFFFFFFFFFFFFFFFFFFFFFFFFFE000
000FFFFFFFFFFFFFFFFFFFFFFFFFFFFFFFC000
0007FFFFFFFFFFFFFFFFFFFFFFFFFFFFFF8000
0001FFFFFFFFFFFFFFFFFFFFFFFFFFFFFE0000
00007FFFFFFFFFFFFFFFFFFFFFFFFFFFF80000
00001FFFFFFFFFFFFFFFFFFFFFFFFFFFE00000
000001FFFFFFFFFFFFFFFFFFFFFFFFFE000000
ENDCHAR
STARTCHAR 0027
ENCODING 39
SWIDTH 289 0
DWIDTH 70 0
BBX 58 69 1 81
BITMAP
000001FFE0000000
00000FFFFC000000
00007FFFFF800000
0001FFFFFFE00000
0007FFFFFFF80000
000FFFFFFFFC0000
001FFFFFFFFE0000
007FFFFFFFFF8000
00FFFFFFFFFFC000
01FFFFFFFFFFE000
01FFFFFFFFFFE000
03FFFFFFFFFFF000
07FFFF807FFFF800
0FFFFC000FFFFC00
0FFFF00003FFFC00
1FFFE00001FFFE00
1FFF8000007FFE00
3FFF0000003FFF00
3FFF0000003FFF00
7FFE0000001FFF80
7FFC0000000FFF80
7FFC0000000FFF80
7FF800000007FF80
FFF800000007FFC0
FFF800000007FFC0
FFF000000003FFC0
FFF000000003FFC0
FFF000000003FFC0
FFF000000003FFC0
FFF000000003FFC0
FFF000000003FFC0
FFF000000003FFC0
FFF000000003FFC0
FFF000000003FFC0
FFF000000003FFC0
FFF000000003FFC0
FFF000000003FFC0
FFF000000003FFC0
FFF000000003FFC0
FFF000000003FFC0
FFF000000003FFC0
FFF000000003FFC0
FFF000000003FFC0
FFF000000003FFC0
FFF800000007FFC0
FFF800000007FFC0
7FF800000007FF80
7FFC0000000FFF80
7FFC0000000FFF80
7FFE0000001FFF80
3FFF0000003FFF00
3FFF0000003FFF00
1FFF8000007FFE00
1FFFE00001FFFE00
0FFFF00003FFFC00
0FFFFC000FFFFC00
07FFFF807FFFF800
03FFFFFFFFFFF000
03FFFFFFFFFFE000
01FFFFFFFFFFE000
00FFFFFFFFFFC000
007FFFFFFFFF8000
001FFFFFFFFE0000
000FFFFFFFFC0000
0007FFFFFFF80000
0001FFFFFFE00000
00007FFFFF800000
00001FFFFE000000
000001FFE0000000
ENDCHAR
STARTCHAR 0028
ENCODING 40
SWIDTH 384 0
DWIDTH 93 0
BBX 81 150 1 0
BITMAP
000001FFFFFFFFC0000000
00001FFFFFFFFFFC000000
00007FFFFFFFFFFF000000
0001FFFFFFFFFFFFC00000
0007FFFFFFFFFFFFF00000
000FFFFFFFFFFFFFF80000
001FFFFFFFFFFFFFFC0000
007FFFFFFFFFFFFFFF0000
00FFFFFFFFFFFFFFFF8000
01FFFFFFFFFFFFFFFFC000
01FFFFFFFFFFFFFFFFC000
03FFFFFFFFFFFFFFFFE000
07FFFF80000000FFFFF000
0FFFFC000000001FFFF800
0FFFF00000000007FFF800
1FFFE00000000003FFFC00
1FFFC00000000001FFFC00
3FFF800000000000FFFE00
3FFF0000000000007FFE00
7FFE0000000000003FFE00
7FFC0000000000001FFF00
7FFC0000000000001FFF00
7FF80000000000000FFF00
FFF80000000000000FFF80
FFF80000000000000FFF80
FFF000000000000007FF80
FFF000000000000007FF80
FFF000000000000007FF80
FFF000000000000007FF80
FFF000000000000007FF80
FFF000000000000007FF80
FFF000000000000007FF80
FFF000000000000007FF80
FFF00000000000000FFF80
FFF00000000000000FFF00
FFF00000000000000FFF00
FFF00000000000001FFF00
FFF00000000000001FFF00
FFF00000000000003FFE00
FFF00000000000007FFE00
FFF0000000000000FFFE00
FFF0000000000001FFFC00
FFF0000000000003FFFC00
FFF0000000000007FFF800
FFF000000000001FFFF000
FFF00000000000FFFFF000
FFF000000003FFFFFFE000
FFF000000003FFFFFFC000
FFF000000003FFFFFF8000
FFF000000003FFFFFF0000
FFF000000003FFFFFE0000
FFF000000003FFFFFC0000
FFF000000003FFFFF80000
FFF000000003FFFFE00000
FFF000000003FFFFC00000
FFF000000003FFFF000000
FFF000000003FFF8000000
FFF000000003FFC0000000
FFF000000003FFC0000000
FFF000000003FFC0000000
FFF000000003FFC0000000
FFF000000003FFC0000000
FFF000000003FFC0000000
FFF000000003FFC0000000
FFF000000003FFC0000000
FFF000000003FFC0000000
FFF000000003FFC0000000
FFF000000003FFC0000000
FFF000000003FFC0000000
FFF000000003FFC0000000
FFF000000003FFC0000000
FFF000000003FFC0000000
FFF000000003FFC0000000
FFF000000003FFC0000000
FFF000000003FFC0000000
FFF000000003FFC0000000
FFF000000003FFC0000000
FFF000000003FFC0000000
FFF000000003FFC0000000
FFF000000003FFC0000000
FFF000000003FFC0000000
FFF000000003FFC0000000
FFF000000003FFC0000000
FFF000000003FFC0000000
FFF000000003FFC0000000
FFF000000003FFC0000000
FFF000000003FFC0000000
FFF000000003FFC0000000
FFF000000003FFC0000000
FFF000000003FFC0000000
FFF000000003FFC0000000
FFF000000003FFC0000000
FFF000000003FFC0000000
FFF000000003FFF8000000
FFF000000003FFFF000000
FFF000000003FFFFC00000
FFF000000003FFFFE00000
FFF000000003FFFFF80000
FFF000000003FFFFFC0000
FFF000000003FFFFFE0000
FFF000000003FFFFFF0000
FFF000000003FFFFFF8000
FFF000000003FFFFFFC000
FFF000000003FFFFFFE000
FFF00000000000FFFFF000
FFF000000000001FFFF000
FFF0000000000007FFF800
FFF0000000000003FFFC00
FFF0000000000001FFFC00
FFF0000000000000FFFE00
FFF00000000000007FFE00
FFF00000000000003FFE00
FFF00000000000001FFF00
FFF00000000000001FFF00
FFF00000000000000FFF00
FFF00000000000000FFF00
FFF00000000000000FFF80
FFF000000000000007FF80
FFF000000000000007FF80
FFF000000000000007FF80
FFF000000000000007FF80
FFF000000000000007FF80
FFF000000000000007FF80
FFF000000000000007FF80
FFF000000000000007FF80
FFF80000000000000FFF80
FFF80000000000000FFF80
7FF80000000000000FFF00
7FFC0000000000001FFF00
7FFC0000000000001FFF00
7FFE0000000000003FFF00
3FFF0000000000007FFE00
3FFF800000000000FFFE00
1FFFC00000000001FFFC00
1FFFE00000000003FFFC00
0FFFF00000000007FFF800
0FFFFC000000001FFFF800
07FFFF80000000FFFFF000
03FFFFFFFFFFFFFFFFE000
01FFFFFFFFFFFFFFFFC000
01FFFFFFFFFFFFFFFFC000
00FFFFFFFFFFFFFFFF8000
007FFFFFFFFFFFFFFF0000
001FFFFFFFFFFFFFFE0000
000FFFFFFFFFFFFFF80000
0007FFFFFFFFFFFFF00000
0001FFFFFFFFFFFFC00000
00007FFFFFFFFFFF000000
00001FFFFFFFFFFC000000
000001FFFFFFFFC0000000
ENDCHAR
STARTCHAR 0029
ENCODING 41
SWIDTH 384 0
DWIDTH 93 0
BBX 81 150 1 0
BITMAP
000001FFFFFFFF80000000
00001FFFFFFFFFF8000000
00007FFFFFFFFFFF000000
0001FFFFFFFFFFFFC00000
0007FFFFFFFFFFFFE00000
000FFFFFFFFFFFFFF80000
003FFFFFFFFFFFFFFC0000
007FFFFFFFFFFFFFFE0000
00FFFFFFFFFFFFFFFF0000
01FFFFFFFFFFFFFFFF8000
01FFFFFFFFFFFFFFFFC000
03FFFFFFFFFFFFFFFFE000
07FFFF00000000FFFFF000
0FFFF8000000001FFFF000
0FFFE00000000007FFF800
1FFFC00000000003FFF800
1FFF800000000001FFFC00
3FFF000000000000FFFC00
3FFE0000000000007FFE00
7FFC0000000000003FFE00
7FF80000000000001FFF00
7FF80000000000001FFF00
7FF00000000000000FFF00
FFF00000000000000FFF00
FFF00000000000000FFF00
FFE000000000000007FF00
FFE000000000000007FF80
FFE000000000000007FF80
FFE000000000000007FF80
FFE000000000000007FF80
FFE000000000000007FF80
FFE000000000000007FF80
FFE000000000000007FF80
FFE000000000000007FF80
7FF000000000000007FF80
7FF000000000000007FF80
7FF000000000000007FF80
7FF800000000000007FF80
3FF800000000000007FF80
3FFC00000000000007FF80
3FFE00000000000007FF80
1FFF00000000000007FF80
1FFF80000000000007FF80
0FFFC0000000000007FF80
07FFE0000000000007FF80
07FFF8000000000007FF80
03FFFF000000000007FF80
01FFFFFFC000000007FF80
00FFFFFFC000000007FF80
007FFFFFC000000007FF80
003FFFFFC000000007FF80
001FFFFFC000000007FF80
000FFFFFC000000007FF80
0003FFFFC000000007FF80
0001FFFFC000000007FF80
00007FFFC000000007FF80
00000FFFC000000007FF80
000001FFC000000007FF80
000001FFC000000007FF80
000001FFC000000007FF80
000001FFC000000007FF80
000001FFC000000007FF80
000001FFC000000007FF80
000001FFC000000007FF80
000001FFC000000007FF80
000001FFC000000007FF80
000001FFC000000007FF80
000001FFC000000007FF80
000001FFC000000007FF80
000001FFC000000007FF80
000001FFC000000007FF80
000001FFC000000007FF80
000001FFC000000007FF80
000001FFC000000007FF80
000001FFC000000007FF80
000001FFC000000007FF80
000001FFC000000007FF80
000001FFC000000007FF80
000001FFC000000007FF80
000001FFC000000007FF80
000001FFC000000007FF80
000001FFC000000007FF80
000001FFC000000007FF80
000001FFC000000007FF80
000001FFC000000007FF80
000001FFC000000007FF80
000001FFC000000007FF80
000001FFC000000007FF80
000001FFC000000007FF80
000001FFC000000007FF80
000001FFC000000007FF80
000001FFC000000007FF80
000001FFC000000007FF80
00000FFFC000000007FF80
00007FFFC000000007FF80
0001FFFFC000000007FF80
0003FFFFC000000007FF80
000FFFFFC000000007FF80
001FFFFFC000000007FF80
003FFFFFC000000007FF80
007FFFFFC000000007FF80
00FFFFFFC000000007FF80
01FFFFFFC000000007FF80
03FFFF000000000007FF80
07FFF8000000000007FF80
07FFE0000000000007FF80
0FFFC0000000000007FF80
1FFF80000000000007FF80
1FFF00000000000007FF80
3FFE00000000000007FF80
3FFC00000000000007FF80
3FF800000000000007FF80
7FF800000000000007FF80
7FF000000000000007FF80
7FF000000000000007FF80
7FF000000000000007FF80
FFE000000000000007FF80
FFE000000000000007FF80
FFE000000000000007FF80
FFE000000000000007FF80
FFE000000000000007FF80
FFE000000000000007FF80
FFE000000000000007FF80
FFE000000000000007FF80
FFE000000000000007FF00
FFF00000000000000FFF00
FFF00000000000000FFF00
7FF00000000000000FFF00
7FF80000000000001FFF00
7FF80000000000001FFF00
7FFC0000000000003FFE00
3FFE0000000000007FFE00
3FFF000000000000FFFC00
1FFF800000000001FFFC00
1FFFC00000000003FFFC00
0FFFE00000000007FFF800
0FFFF8000000001FFFF000
07FFFF00000000FFFFF000
03FFFFFFFFFFFFFFFFE000
03FFFFFFFFFFFFFFFFC000
01FFFFFFFFFFFFFFFF8000
00FFFFFFFFFFFFFFFF0000
007FFFFFFFFFFFFFFE0000
003FFFFFFFFFFFFFFC0000
000FFFFFFFFFFFFFF80000
0007FFFFFFFFFFFFE00000
0001FFFFFFFFFFFFC00000
00007FFFFFFFFFFF000000
00001FFFFFFFFFF8000000
000001FFFFFFFF80000000
ENDCHAR
STARTCHAR 002A
ENCODING 42
SWIDTH 557 0
DWIDTH 135 0
BBX 123 122 1 14
BITMAP
000001FFC0000000000000FFF0000000
00001FFFFC00000000000FFFFE000000
00007FFFFF80000000003FFFFFC00000
0001FFFFFFE000000000FFFFFFF00000
0007FFFFFFF000000003FFFFFFFC0000
000FFFFFFFFC00000007FFFFFFFE0000
003FFFFFFFFE0000001FFFFFFFFF0000
007FFFFFFFFF0000003FFFFFFFFFC000
00FFFFFFFFFF8000007FFFFFFFFFE000
01FFFFFFFFFFC00000FFFFFFFFFFF000
03FFFFFFFFFFE00001FFFFFFFFFFF000
03FFFFFFFFFFF00003FFFFFFFFFFF800
07FFFF807FFFF80007FFFFC03FFFFC00
0FFFFC000FFFFC000FFFFE0007FFFE00
0FFFF00003FFFE001FFFF80001FFFE00
1FFFC00001FFFF003FFFE00000FFFF00
1FFF800000FFFF807FFFC000003FFF00
3FFF0000003FFFC0FFFF8000001FFF80
3FFE0000001FFFE1FFFF0000001FFF80
7FFE0000000FFFFBFFFE0000000FFFC0
7FFC00000007FFFFFFFC00000007FFC0
7FFC00000003FFFFFFF800000007FFC0
7FF800000001FFFFFFF000000003FFC0
FFF800000000FFFFFFE000000003FFE0
FFF0000000007FFFFFC000000003FFE0
FFF0000000003FFFFF8000000001FFE0
FFF0000000001FFFFF0000000001FFE0
FFF0000000000FFFFE0000000001FFE0
FFF00000000007FFFC0000000001FFE0
FFF00000000003FFF80000000001FFE0
FFF00000000001FFF00000000001FFE0
FFF00000000000FFE00000000001FFE0
FFF000000000007FC00000000001FFE0
FFF800000000003F800000000003FFE0
7FF800000000001F000000000003FFC0
7FF800000000000E000000000003FFC0
7FFC000000000004000000000007FFC0
7FFC000000000000000000000007FFC0
3FFE00000000000000000000000FFF80
3FFF00000000000000000000000FFF80
3FFF80000000000000000000001FFF00
1FFFC0000000000000000000003FFF00
1FFFE0000000000000000000007FFE00
0FFFF000000000000000000000FFFE00
07FFF800000000000000000001FFFC00
07FFFC00000000000000000003FFFC00
03FFFE00000000000000000007FFF800
01FFFF0000000000000000000FFFF000
00FFFF8000000000000000001FFFE000
007FFFC000000000000000003FFFC000
003FFFE000000000000000007FFF8000
001FFFF00000000000000000FFFF0000
000FFFF80000000000000001FFFE0000
0007FFFC0000000000000003FFFC0000
0003FFFE0000000000000007FFF80000
0001FFFF000000000000000FFFF00000
0000FFFF800000000000001FFFE00000
00007FFFC00000000000003FFFC00000
00003FFFE00000000000007FFF800000
00001FFFF0000000000000FFFF000000
00000FFFF8000000000001FFFE000000
00000FFFF8000000000003FFFE000000
00001FFFF0000000000001FFFF000000
00003FFFE0000000000000FFFF800000
00007FFFC00000000000007FFFC00000
0000FFFF800000000000003FFFE00000
0001FFFF000000000000001FFFF00000
0003FFFE000000000000000FFFF80000
0007FFFC0000000000000007FFFC0000
000FFFF80000000000000003FFFE0000
001FFFF00000000000000001FFFF0000
003FFFE00000000000000000FFFF8000
007FFFC000000000000000007FFFC000
00FFFF8000000000000000003FFFC000
01FFFF0000000000000000001FFFE000
03FFFE0000000000000000000FFFF000
03FFFC00000000000000000007FFF800
07FFF800000000000000000003FFFC00
0FFFF000000000000000000001FFFE00
0FFFE000000000000000000000FFFE00
1FFFC0000000000000000000007FFF00
1FFF80000000000000000000003FFF00
3FFF00000000000000000000001FFF80
3FFE00000000000000000000001FFF80
7FFE00000000000000000000000FFFC0
7FFC000000000004000000000007FFC0
7FF800000000000E000000000007FFC0
7FF800000000001F000000000003FFC0
FFF800000000003F800000000003FFE0
FFF000000000007FC00000000003FFE0
FFF00000000000FFE00000000001FFE0
FFF00000000001FFF00000000001FFE0
FFF00000000003FFF80000000001FFE0
FFF00000000007FFFC0000000001FFE0
FFF0000000000FFFFE0000000001FFE0
FFF0000000001FFFFF0000000001FFE0
FFF0000000003FFFFF8000000001FFE0
FFF0000000007FFFFFC000000001FFE0
FFF800000000FFFFFFE000000003FFE0
7FF800000001FFFFFFF000000003FFC0
7FF800000003FFFFFFF800000003FFC0
7FFC00000007FFFFFFFC00000007FFC0
7FFE0000000FFFFBFFFE0000000FFFC0
3FFE0000001FFFF1FFFF0000000FFF80
3FFF0000003FFFE0FFFF8000001FFF80
1FFF8000007FFFC07FFFC000003FFF00
1FFFC00000FFFF803FFFE000007FFF00
0FFFF00003FFFF001FFFF80001FFFE00
0FFFFC000FFFFE000FFFFC0007FFFE00
07FFFF807FFFFC0007FFFFC03FFFFC00
03FFFFFFFFFFF80003FFFFFFFFFFF800
03FFFFFFFFFFF00001FFFFFFFFFFF000
01FFFFFFFFFFE00000FFFFFFFFFFF000
00FFFFFFFFFFC000007FFFFFFFFFE000
007FFFFFFFFF0000003FFFFFFFFFC000
003FFFFFFFFE0000001FFFFFFFFF0000
000FFFFFFFFC0000000FFFFFFFFE0000
0007FFFFFFF800000003FFFFFFFC0000
0001FFFFFFE000000000FFFFFFF00000
00007FFFFF80000000003FFFFFC00000
00001FFFFC00000000000FFFFF000000
000001FFC0000000000000FFF0000000
ENDCHAR
STARTCHAR 002B
ENCODING 43
SWIDTH 669 0
DWIDTH 162 0
BBX 150 150 1 0
BITMAP
000000000000000007FF800000000000000000
00000000000000003FFFF00000000000000000
0000000000000001FFFFFE0000000000000000
0000000000000007FFFFFF8000000000000000
000000000000001FFFFFFFE000000000000000
000000000000003FFFFFFFF000000000000000
000000000000007FFFFFFFF800000000000000
00000000000001FFFFFFFFFE00000000000000
00000000000003FFFFFFFFFF00000000000000
00000000000007FFFFFFFFFF80000000000000
00000000000007FFFFFFFFFF80000000000000
0000000000000FFFFFFFFFFFC0000000000000
0000000000001FFFFE01FFFFE0000000000000
0000000000003FFFF0003FFFF0000000000000
0000000000003FFFC0000FFFF0000000000000
0000000000007FFF800007FFF8000000000000
0000000000007FFF000003FFF8000000000000
000000000000FFFE000001FFFC000000000000
000000000000FFFC000000FFFC000000000000
000000000001FFF80000007FFE000000000000
000000000001FFF00000003FFE000000000000
000000000001FFF00000003FFE000000000000
000000000001FFE00000001FFE000000000000
000000000003FFE00000001FFF000000000000
000000000003FFE00000001FFF000000000000
000000000003FFC00000000FFF000000000000
000000000003FFC00000000FFF000000000000
000000000003FFC00000000FFF000000000000
000000000003FFC00000000FFF000000000000
000000000003FFC00000000FFF000000000000
000000000003FFC00000000FFF000000000000
000000000003FFC00000000FFF000000000000
000000000003FFC00000000FFF000000000000
000000000003FFC00000000FFF000000000000
000000000003FFC00000000FFF000000000000
000000000003FFC00000000FFF000000000000
000000000003FFC00000000FFF000000000000
000000000003FFC00000000FFF000000000000
000000000003FFC00000000FFF000000000000
000000000003FFC00000000FFF000000000000
000000000003FFC00000000FFF000000000000
000000000003FFC00000000FFF000000000000
000000000003FFC00000000FFF000000000000
000000000003FFC00000000FFF000000000000
000000000003FFC00000000FFF000000000000
000000000003FFC00000000FFF000000000000
000001FFFFFFFFC00000000FFFFFFFFE000000
00001FFFFFFFFFC00000000FFFFFFFFFE00000
00007FFFFFFFFFC00000000FFFFFFFFFF80000
0001FFFFFFFFFFC00000000FFFFFFFFFFE0000
0007FFFFFFFFFFC00000000FFFFFFFFFFF8000
000FFFFFFFFFFFC00000000FFFFFFFFFFFC000
001FFFFFFFFFFFC00000000FFFFFFFFFFFE000
007FFFFFFFFFFFC00000000FFFFFFFFFFFF800
00FFFFFFFFFFFFC00000000FFFFFFFFFFFFC00
01FFFFFFFFFFFFC00000000FFFFFFFFFFFFE00
01FFFFFFFFFFFFC00000000FFFFFFFFFFFFE00
03FFFFFFFFFFFFC00000000FFFFFFFFFFFFF00
07FFFF80000000000000000000000007FFFF80
0FFFFC00000000000000000000000000FFFFC0
0FFFF0000000000000000000000000003FFFC0
1FFFE0000000000000000000000000001FFFE0
1FFFC0000000000000000000000000000FFFE0
3FFF800000000000000000000000000007FFF0
3FFF000000000000000000000000000003FFF0
7FFE000000000000000000000000000001FFF0
7FFC000000000000000000000000000000FFF8
7FFC000000000000000000000000000000FFF8
7FF80000000000000000000000000000007FF8
FFF80000000000000000000000000000007FFC
FFF80000000000000000000000000000007FFC
FFF00000000000000000000000000000003FFC
FFF00000000000000000000000000000003FFC
FFF00000000000000000000000000000003FFC
FFF00000000000000000000000000000003FFC
FFF00000000000000000000000000000003FFC
FFF00000000000000000000000000000003FFC
FFF00000000000000000000000000000003FFC
FFF00000000000000000000000000000003FFC
FFF80000000000000000000000000000007FFC
FFF80000000000000000000000000000007FFC
7FF80000000000000000000000000000007FF8
7FFC000000000000000000000000000000FFF8
7FFC000000000000000000000000000000FFF8
7FFE000000000000000000000000000001FFF0
3FFF000000000000000000000000000003FFF0
3FFF800000000000000000000000000007FFF0
1FFFC0000000000000000000000000000FFFE0
1FFFE0000000000000000000000000001FFFE0
0FFFF0000000000000000000000000003FFFC0
0FFFFC00000000000000000000000000FFFFC0
07FFFF80000000000000000000000007FFFF80
03FFFFFFFFFFFFC00000000FFFFFFFFFFFFF00
01FFFFFFFFFFFFC00000000FFFFFFFFFFFFE00
01FFFFFFFFFFFFC00000000FFFFFFFFFFFFE00
00FFFFFFFFFFFFC00000000FFFFFFFFFFFFC00
007FFFFFFFFFFFC00000000FFFFFFFFFFFF800
003FFFFFFFFFFFC00000000FFFFFFFFFFFE000
000FFFFFFFFFFFC00000000FFFFFFFFFFFC000
0007FFFFFFFFFFC00000000FFFFFFFFFFF8000
0001FFFFFFFFFFC00000000FFFFFFFFFFE0000
00007FFFFFFFFFC00000000FFFFFFFFFF80000
00001FFFFFFFFFC00000000FFFFFFFFFE00000
000001FFFFFFFFC00000000FFFFFFFFE000000
000000000003FFC00000000FFF000000000000
000000000003FFC00000000FFF000000000000
000000000003FFC00000000FFF000000000000
000000000003FFC00000000FFF000000000000
000000000003FFC00000000FFF000000000000
000000000003FFC00000000FFF000000000000
000000000003FFC00000000FFF000000000000
000000000003FFC00000000FFF000000000000
000000000003FFC00000000FFF000000000000
000000000003FFC00000000FFF000000000000
000000000003FFC00000000FFF000000000000
000000000003FFC00000000FFF000000000000
000000000003FFC00000000FFF000000000000
000000000003FFC00000000FFF000000000000
000000000003FFC00000000FFF000000000000
000000000003FFC00000000FFF000000000000
000000000003FFC00000000FFF000000000000
000000000003FFC00000000FFF000000000000
000000000003FFC00000000FFF000000000000
000000000003FFC00000000FFF000000000000
000000000003FFC00000000FFF000000000000
000000000003FFE00000001FFF000000000000
000000000003FFE00000001FFF000000000000
000000000001FFE00000001FFE000000000000
000000000001FFF00000003FFE000000000000
000000000001FFF00000003FFE000000000000
000000000001FFF80000007FFE000000000000
000000000000FFFC000000FFFC000000000000
000000000000FFFE000001FFFC000000000000
0000000000007FFF000003FFF8000000000000
0000000000007FFF800007FFF8000000000000
0000000000003FFFC0000FFFF0000000000000
0000000000003FFFF0003FFFF0000000000000
0000000000001FFFFE01FFFFE0000000000000
0000000000000FFFFFFFFFFFC0000000000000
0000000000000FFFFFFFFFFF80000000000000
00000000000007FFFFFFFFFF80000000000000
00000000000003FFFFFFFFFF00000000000000
00000000000001FFFFFFFFFE00000000000000
000000000000007FFFFFFFF800000000000000
000000000000003FFFFFFFF000000000000000
000000000000001FFFFFFFE000000000000000
0000000000000007FFFFFF8000000000000000
0000000000000001FFFFFE0000000000000000
00000000000000007FFFF80000000000000000
000000000000000007FF800000000000000000
ENDCHAR
STARTCHAR 002C
ENCODING 44
SWIDTH 289 0
DWIDTH 70 0
BBX 58 81 1 -23
BITMAP
000001FFE0000000
00000FFFFC000000
00007FFFFF800000
0001FFFFFFE00000
0007FFFFFFF80000
000FFFFFFFFC0000
001FFFFFFFFE0000
007FFFFFFFFF8000
00FFFFFFFFFFC000
01FFFFFFFFFFE000
01FFFFFFFFFFE000
03FFFFFFFFFFF000
07FFFF807FFFF800
0FFFFC000FFFFC00
0FFFF00003FFFC00
1FFFE00001FFFE00
1FFFC00000FFFE00
3FFF8000007FFF00
3FFF0000003FFF00
7FFE0000001FFF00
7FFC0000000FFF80
7FFC0000000FFF80
7FF800000007FF80
FFF800000007FFC0
FFF800000007FFC0
FFF000000003FFC0
FFF000000003FFC0
FFF000000003FFC0
FFF000000003FFC0
FFF000000003FFC0
FFF000000003FFC0
FFF000000003FFC0
FFF000000003FFC0
FFF000000003FFC0
FFF000000003FFC0
FFF000000003FFC0
FFF000000003FFC0
FFF000000003FFC0
FFF000000003FFC0
FFF000000003FFC0
FFF000000003FFC0
FFF000000003FFC0
FFF000000003FFC0
FFF000000003FFC0
FFF000000003FFC0
FFF000000003FFC0
FFF000000003FFC0
FFF000000003FFC0
FFF000000003FFC0
FFF000000003FFC0
FFF000000003FFC0
FFF000000003FFC0
FFF000000003FFC0
FFF000000003FFC0
FFF000000003FFC0
FFF000000003FFC0
FFF800000007FFC0
FFF800000007FFC0
7FF800000007FF80
7FFC0000000FFF80
7FFC0000000FFF80
7FFE0000001FFF80
3FFF0000003FFF00
3FFF8000007FFF00
1FFF800000FFFE00
1FFFE00001FFFE00
0FFFF00003FFFC00
0FFFFC000FFFFC00
07FFFF807FFFF800
03FFFFFFFFFFF000
01FFFFFFFFFFE000
01FFFFFFFFFFE000
00FFFFFFFFFFC000
007FFFFFFFFF8000
001FFFFFFFFE0000
000FFFFFFFFC0000
0007FFFFFFF80000
0001FFFFFFE00000
00007FFFFF800000
00001FFFFE000000
000001FFE0000000
ENDCHAR
STARTCHAR 002D
ENCODING 45
SWIDTH 669 0
DWIDTH 162 0
BBX 150 58 1 46
BITMAP
000001FFFFFFFFFFFFFFFFFFFFFFFFFE000000
00001FFFFFFFFFFFFFFFFFFFFFFFFFFFE00000
00007FFFFFFFFFFFFFFFFFFFFFFFFFFFF80000
0001FFFFFFFFFFFFFFFFFFFFFFFFFFFFFE0000
0007FFFFFFFFFFFFFFFFFFFFFFFFFFFFFF8000
000FFFFFFFFFFFFFFFFFFFFFFFFFFFFFFFC000
001FFFFFFFFFFFFFFFFFFFFFFFFFFFFFFFE000
007FFFFFFFFFFFFFFFFFFFFFFFFFFFFFFFF800
00FFFFFFFFFFFFFFFFFFFFFFFFFFFFFFFFFC00
01FFFFFFFFFFFFFFFFFFFFFFFFFFFFFFFFFE00
01FFFFFFFFFFFFFFFFFFFFFFFFFFFFFFFFFE00
03FFFFFFFFFFFFFFFFFFFFFFFFFFFFFFFFFF00
07FFFF80000000000000000000000007FFFF80
0FFFFC00000000000000000000000000FFFFC0
0FFFF0000000000000000000000000003FFFC0
1FFFE0000000000000000000000000001FFFE0
1FFFC0000000000000000000000000000FFFE0
3FFF800000000000000000000000000007FFF0
3FFF000000000000000000000000000003FFF0
7FFE000000000000000000000000000001FFF0
7FFC000000000000000000000000000000FFF8
7FFC000000000000000000000000000000FFF8
7FF80000000000000000000000000000007FF8
FFF80000000000000000000000000000007FFC
FFF80000000000000000000000000000007FFC
FFF00000000000000000000000000000003FFC
FFF00000000000000000000000000000003FFC
FFF00000000000000000000000000000003FFC
FFF00000000000000000000000000000003FFC
FFF00000000000000000000000000000003FFC
FFF00000000000000000000000000000003FFC
FFF00000000000000000000000000000003FFC
FFF00000000000000000000000000000003FFC
FFF80000000000000000000000000000007FFC
FFF80000000000000000000000000000007FFC
7FF80000000000000000000000000000007FF8
7FFC000000000000000000000000000000FFF8
7FFC000000000000000000000000000000FFF8
7FFE000000000000000000000000000001FFF0
3FFF000000000000000000000000000003FFF0
3FFF000000000000000000000000000007FFF0
1FFFC0000000000000000000000000000FFFE0
1FFFE0000000000000000000000000001FFFE0
0FFFF0000000000000000000000000003FFFC0
0FFFFC00000000000000000000000000FFFFC0
07FFFF80000000000000000000000007FFFF80
03FFFFFFFFFFFFFFFFFFFFFFFFFFFFFFFFFF00
01FFFFFFFFFFFFFFFFFFFFFFFFFFFFFFFFFE00
01FFFFFFFFFFFFFFFFFFFFFFFFFFFFFFFFFE00
00FFFFFFFFFFFFFFFFFFFFFFFFFFFFFFFFFC00
007FFFFFFFFFFFFFFFFFFFFFFFFFFFFFFFF800
001FFFFFFFFFFFFFFFFFFFFFFFFFFFFFFFE000
000FFFFFFFFFFFFFFFFFFFFFFFFFFFFFFFC000
0007FFFFFFFFFFFFFFFFFFFFFFFFFFFFFF8000
0001FFFFFFFFFFFFFFFFFFFFFFFFFFFFFE0000
00007FFFFFFFFFFFFFFFFFFFFFFFFFFFF80000
00001FFFFFFFFFFFFFFFFFFFFFFFFFFFE00000
000001FFFFFFFFFFFFFFFFFFFFFFFFFE000000
ENDCHAR
STARTCHAR 002E
ENCODING 46
SWIDTH 289 0
DWIDTH 70 0
BBX 58 58 1 0
BITMAP
000001FFE0000000
00000FFFFC000000
00007FFFFF800000
0001FFFFFFE00000
0007FFFFFFF80000
000FFFFFFFFC0000
001FFFFFFFFE0000
007FFFFFFFFF0000
00FFFFFFFFFFC000
01FFFFFFFFFFC000
01FFFFFFFFFFE000
03FFFFFFFFFFF000
07FFFF807FFFF800
0FFFFC000FFFFC00
0FFFF00003FFFC00
1FFFE00001FFFE00
1FFFC00000FFFE00
3FFF8000007FFF00
3FFF0000003FFF00
7FFE0000001FFF00
7FFC0000000FFF80
7FFC0000000FFF80
7FF800000007FF80
FFF800000007FFC0
FFF800000007FFC0
FFF000000003FFC0
FFF000000003FFC0
FFF000000003FFC0
FFF000000003FFC0
FFF000000003FFC0
FFF000000003FFC0
FFF000000003FFC0
FFF000000003FFC0
FFF800000007FFC0
FFF800000007FFC0
7FF800000007FF80
7FFC0000000FFF80
7FFC0000000FFF80
7FFE0000001FFF00
3FFF0000003FFF00
3FFF0000007FFF00
1FFF800000FFFE00
1FFFE00001FFFE00
0FFFF00003FFFC00
0FFFFC000FFFFC00
07FFFF807FFFF800
03FFFFFFFFFFF000
01FFFFFFFFFFE000
01FFFFFFFFFFE000
00FFFFFFFFFFC000
007FFFFFFFFF8000
001FFFFFFFFE0000
000FFFFFFFFC0000
0007FFFFFFF80000
0001FFFFFFE00000
00007FFFFF800000
00001FFFFE000000
000001FFE0000000
ENDCHAR
STARTCHAR 002F
ENCODING 47
SWIDTH 396 0
DWIDTH 96 0
BBX 84 150 1 0
BITMAP
000000000000007FE00000
0000000000000FFFFE0000
0000000000003FFFFF8000
000000000001FFFFFFE000
000000000007FFFFFFF000
00000000000FFFFFFFFC00
00000000003FFFFFFFFE00
00000000007FFFFFFFFF00
0000000001FFFFFFFFFF00
0000000003FFFFFFFFFF80
0000000007FFFFFFFFFFC0
000000000FFFFFFFFFFFC0
000000001FFFFE01FFFFE0
000000003FFFF0007FFFE0
000000007FFFC0001FFFE0
00000000FFFF00000FFFF0
00000000FFFE000007FFF0
00000001FFF8000003FFF0
00000003FFF0000003FFF0
00000003FFE0000001FFF0
00000007FFE0000001FFF0
0000000FFFC0000001FFF0
0000000FFF80000000FFF0
0000001FFF00000000FFF0
0000001FFF00000000FFF0
0000001FFE00000001FFF0
0000003FFE00000001FFF0
0000003FFC00000001FFF0
0000003FFC00000001FFE0
0000007FFC00000001FFE0
0000007FFC00000003FFE0
0000007FF800000003FFE0
0000007FF800000003FFC0
000000FFF800000003FFC0
000000FFF800000007FFC0
000000FFF000000007FF80
000000FFF000000007FF80
000001FFF00000000FFF80
000001FFE00000000FFF80
000001FFE00000000FFF00
000003FFE00000000FFF00
000003FFE00000001FFF00
000003FFC00000001FFF00
000003FFC00000001FFE00
000007FFC00000001FFE00
000007FFC00000003FFE00
000007FF800000003FFE00
000007FF800000003FFC00
00000FFF800000003FFC00
00000FFF800000007FFC00
00000FFF000000007FF800
00000FFF000000007FF800
00001FFF00000000FFF800
00001FFE00000000FFF800
00001FFE00000000FFF000
00003FFE00000000FFF000
00003FFE00000001FFF000
00003FFC00000001FFF000
00003FFC00000001FFE000
00007FFC00000001FFE000
00007FFC00000003FFE000
00007FF800000003FFE000
00007FF800000003FFC000
0000FFF800000003FFC000
0000FFF800000007FFC000
0000FFF000000007FF8000
0000FFF000000007FF8000
0001FFF00000000FFF8000
0001FFE00000000FFF8000
0001FFE00000000FFF0000
0003FFE00000000FFF0000
0003FFE00000001FFF0000
0003FFC00000001FFF0000
0003FFC00000001FFE0000
0007FFC00000001FFE0000
0007FFC00000003FFE0000
0007FF800000003FFE0000
0007FF800000003FFC0000
000FFF800000003FFC0000
000FFF800000007FFC0000
000FFF000000007FF80000
000FFF000000007FF80000
001FFF00000000FFF80000
001FFE00000000FFF80000
001FFE00000000FFF00000
003FFE00000000FFF00000
003FFE00000001FFF00000
003FFC00000001FFF00000
003FFC00000001FFE00000
007FFC00000001FFE00000
007FFC00000003FFE00000
007FF800000003FFE00000
007FF800000003FFC00000
00FFF800000003FFC00000
00FFF800000007FFC00000
00FFF000000007FF800000
01FFF000000007FF800000
01FFF00000000FFF800000
01FFE00000000FFF800000
01FFE00000000FFF000000
03FFE00000000FFF000000
03FFE00000001FFF000000
03FFC00000001FFF000000
03FFC00000001FFE000000
07FFC00000001FFE000000
07FFC00000003FFE000000
07FF800000003FFC000000
07FF800000003FFC000000
0FFF800000003FFC000000
0FFF000000007FFC000000
0FFF000000007FF8000000
1FFF000000007FF8000000
1FFF00000000FFF8000000
1FFE00000000FFF8000000
1FFE00000000FFF0000000
3FFE00000000FFF0000000
3FFE00000001FFF0000000
3FFC00000001FFF0000000
3FFC00000001FFE0000000
7FFC00000001FFE0000000
7FFC00000003FFE0000000
7FF800000003FFC0000000
7FF800000003FFC0000000
FFF800000007FFC0000000
FFF800000007FF80000000
FFF80000000FFF80000000
FFF80000000FFF80000000
FFF80000001FFF00000000
FFF80000001FFF00000000
FFF80000003FFE00000000
FFF80000007FFE00000000
FFFC000000FFFC00000000
FFFC000001FFF800000000
FFFE000003FFF000000000
7FFF00000FFFF000000000
7FFF80001FFFE000000000
7FFFE0007FFFC000000000
3FFFF803FFFF8000000000
3FFFFFFFFFFF0000000000
1FFFFFFFFFFE0000000000
1FFFFFFFFFFC0000000000
0FFFFFFFFFF80000000000
07FFFFFFFFE00000000000
03FFFFFFFFC00000000000
01FFFFFFFF000000000000
00FFFFFFFE000000000000
007FFFFFF8000000000000
001FFFFFE0000000000000
0007FFFF00000000000000
00007FF000000000000000
ENDCHAR
STARTCHAR 0030
ENCODING 48
SWIDTH 669 0
DWIDTH 162 0
BBX 150 150 1 0
BITMAP
000001FFFFFFFFFFFFFFFFFFFFFFFFFE000000
00001FFFFFFFFFFFFFFFFFFFFFFFFFFFE00000
00007FFFFFFFFFFFFFFFFFFFFFFFFFFFF80000
0001FFFFFFFFFFFFFFFFFFFFFFFFFFFFFE0000
0007FFFFFFFFFFFFFFFFFFFFFFFFFFFFFF8000
000FFFFFFFFFFFFFFFFFFFFFFFFFFFFFFFC000
001FFFFFFFFFFFFFFFFFFFFFFFFFFFFFFFE000
007FFFFFFFFFFFFFFFFFFFFFFFFFFFFFFFF800
00FFFFFFFFFFFFFFFFFFFFFFFFFFFFFFFFFC00
01FFFFFFFFFFFFFFFFFFFFFFFFFFFFFFFFFE00
01FFFFFFFFFFFFFFFFFFFFFFFFFFFFFFFFFE00
03FFFFFFFFFFFFFFFFFFFFFFFFFFFFFFFFFF00
07FFFF80000000000000000000000007FFFF80
0FFFFC00000000000000000000000000FFFFC0
0FFFF0000000000000000000000000003FFFC0
1FFFE0000000000000000000000000001FFFE0
1FFFC0000000000000000000000000000FFFE0
3FFF800000000000000000000000000007FFF0
3FFF000000000000000000000000000003FFF0
7FFE000000000000000000000000000001FFF0
7FFC000000000000000000000000000000FFF8
7FFC000000000000000000000000000000FFF8
7FF80000000000000000000000000000007FF8
FFF80000000000000000000000000000007FFC
FFF80000000000000000000000000000007FFC
FFF00000000000000000000000000000003FFC
FFF00000000000000000000000000000003FFC
FFF00000000000000000000000000000003FFC
FFF00000000000000000000000000000003FFC
FFF00000000000000000000000000000003FFC
FFF00000000000000000000000000000003FFC
FFF00000000000000000000000000000003FFC
FFF00000000000000000000000000000003FFC
FFF00000000000000000000000000000003FFC
FFF00000000000000000000000000000003FFC
FFF00000000000000000000000000000003FFC
FFF00000000000000000000000000000003FFC
FFF00000000000000000000000000000003FFC
FFF00000000000000000000000000000003FFC
FFF00000000000000000000000000000003FFC
FFF00000000000000000000000000000003FFC
FFF00000000000000000000000000000003FFC
FFF00000000000000000000000000000003FFC
FFF00000000000000000000000000000003FFC
FFF00000000000000000000000000000003FFC
FFF00000000000000000000000000000003FFC
FFF000000003FFFFFFFFFFFFFF000000003FFC
FFF000000003FFFFFFFFFFFFFF000000003FFC
FFF000000003FFFFFFFFFFFFFF000000003FFC
FFF000000003FFFFFFFFFFFFFF000000003FFC
FFF000000003FFFFFFFFFFFFFF000000003FFC
FFF000000003FFFFFFFFFFFFFF000000003FFC
FFF000000003FFFFFFFFFFFFFF000000003FFC
FFF000000003FFFFFFFFFFFFFF000000003FFC
FFF000000003FFFFFFFFFFFFFF000000003FFC
FFF000000003FFFFFFFFFFFFFF000000003FFC
FFF000000003FFFFFFFFFFFFFF000000003FFC
FFF000000003FFFFFFFFFFFFFF000000003FFC
FFF000000003FFC00000000FFF000000003FFC
FFF000000003FFC00000000FFF000000003FFC
FFF000000003FFC00000000FFF000000003FFC
FFF000000003FFC00000000FFF000000003FFC
FFF000000003FFC00000000FFF000000003FFC
FFF000000003FFC00000000FFF000000003FFC
FFF000000003FFC00000000FFF000000003FFC
FFF000000003FFC00000000FFF000000003FFC
FFF000000003FFC00000000FFF000000003FFC
FFF000000003FFC00000000FFF000000003FFC
FFF000000003FFC00000000FFF000000003FFC
FFF000000003FFC00000000FFF000000003FFC
FFF000000003FFC00000000FFF000000003FFC
FFF000000003FFC00000000FFF000000003FFC
FFF000000003FFC00000000FFF000000003FFC
FFF000000003FFC00000000FFF000000003FFC
FFF000000003FFC00000000FFF000000003FFC
FFF000000003FFC00000000FFF000000003FFC
FFF000000003FFC00000000FFF000000003FFC
FFF000000003FFC00000000FFF000000003FFC
FFF000000003FFC00000000FFF000000003FFC
FFF000000003FFC00000000FFF000000003FFC
FFF000000003FFC00000000FFF000000003FFC
FFF000000003FFC00000000FFF000000003FFC
FFF000000003FFC00000000FFF000000003FFC
FFF000000003FFC00000000FFF000000003FFC
FFF000000003FFC00000000FFF000000003FFC
FFF000000003FFC00000000FFF000000003FFC
FFF000000003FFC00000000FFF000000003FFC
FFF000000003FFC00000000FFF000000003FFC
FFF000000003FFC00000000FFF000000003FFC
FFF000000003FFC00000000FFF000000003FFC
FFF000000003FFC00000000FFF000000003FFC
FFF000000003FFC00000000FFF000000003FFC
FFF000000003FFFFFFFFFFFFFF000000003FFC
FFF000000003FFFFFFFFFFFFFF000000003FFC
FFF000000003FFFFFFFFFFFFFF000000003FFC
FFF000000003FFFFFFFFFFFFFF000000003FFC
FFF000000003FFFFFFFFFFFFFF000000003FFC
FFF000000003FFFFFFFFFFFFFF000000003FFC
FFF000000003FFFFFFFFFFFFFF000000003FFC
FFF000000003FFFFFFFFFFFFFF000000003FFC
FFF000000003FFFFFFFFFFFFFF000000003FFC
FFF000000003FFFFFFFFFFFFFF000000003FFC
FFF000000003FFFFFFFFFFFFFF000000003FFC
FFF000000003FFFFFFFFFFFFFF000000003FFC
FFF00000000000000000000000000000003FFC
FFF00000000000000000000000000000003FFC
FFF00000000000000000000000000000003FFC
FFF00000000000000000000000000000003FFC
FFF00000000000000000000000000000003FFC
FFF00000000000000000000000000000003FFC
FFF00000000000000000000000000000003FFC
FFF00000000000000000000000000000003FFC
FFF00000000000000000000000000000003FFC
FFF00000000000000000000000000000003FFC
FFF00000000000000000000000000000003FFC
FFF00000000000000000000000000000003FFC
FFF00000000000000000000000000000003FFC
FFF00000000000000000000000000000003FFC
FFF00000000000000000000000000000003FFC
FFF00000000000000000000000000000003FFC
FFF00000000000000000000000000000003FFC
FFF00000000000000000000000000000003FFC
FFF00000000000000000000000000000003FFC
FFF00000000000000000000000000000003FFC
FFF00000000000000000000000000000003FFC
FFF80000000000000000000000000000007FFC
FFF80000000000000000000000000000007FFC
7FF80000000000000000000000000000007FF8
7FFC000000000000000000000000000000FFF8
7FFC000000000000000000000000000000FFF8
7FFE000000000000000000000000000001FFF8
3FFF000000000000000000000000000003FFF0
3FFF800000000000000000000000000007FFF0
1FFFC0000000000000000000000000000FFFE0
1FFFE0000000000000000000000000001FFFE0
0FFFF0000000000000000000000000003FFFC0
0FFFFC00000000000000000000000000FFFFC0
07FFFF80000000000000000000000007FFFF80
03FFFFFFFFFFFFFFFFFFFFFFFFFFFFFFFFFF00
03FFFFFFFFFFFFFFFFFFFFFFFFFFFFFFFFFE00
01FFFFFFFFFFFFFFFFFFFFFFFFFFFFFFFFFE00
00FFFFFFFFFFFFFFFFFFFFFFFFFFFFFFFFFC00
007FFFFFFFFFFFFFFFFFFFFFFFFFFFFFFFF800
003FFFFFFFFFFFFFFFFFFFFFFFFFFFFFFFE000
000FFFFFFFFFFFFFFFFFFFFFFFFFFFFFFFC000
0007FFFFFFFFFFFFFFFFFFFFFFFFFFFFFF8000
0001FFFFFFFFFFFFFFFFFFFFFFFFFFFFFE0000
00007FFFFFFFFFFFFFFFFFFFFFFFFFFFF80000
00001FFFFFFFFFFFFFFFFFFFFFFFFFFFE00000
000001FFFFFFFFFFFFFFFFFFFFFFFFFE000000
ENDCHAR
STARTCHAR 0031
ENCODING 49
SWIDTH 289 0
DWIDTH 70 0
BBX 58 150 1 0
BITMAP
000001FFE0000000
00000FFFFC000000
00007FFFFF800000
0001FFFFFFE00000
0007FFFFFFF80000
000FFFFFFFFC0000
001FFFFFFFFE0000
007FFFFFFFFF8000
00FFFFFFFFFFC000
01FFFFFFFFFFE000
01FFFFFFFFFFE000
03FFFFFFFFFFF000
07FFFF807FFFF800
0FFFFC000FFFFC00
0FFFF00003FFFC00
1FFFE00001FFFE00
1FFFC00000FFFE00
3FFF8000007FFF00
3FFF0000003FFF00
7FFE0000001FFF00
7FFC0000000FFF80
7FFC0000000FFF80
7FF800000007FF80
FFF800000007FFC0
FFF800000007FFC0
FFF000000003FFC0
FFF000000003FFC0
FFF000000003FFC0
FFF000000003FFC0
FFF000000003FFC0
FFF000000003FFC0
FFF000000003FFC0
FFF000000003FFC0
FFF000000003FFC0
FFF000000003FFC0
FFF000000003FFC0
FFF000000003FFC0
FFF000000003FFC0
FFF000000003FFC0
FFF000000003FFC0
FFF000000003FFC0
FFF000000003FFC0
FFF000000003FFC0
FFF000000003FFC0
FFF000000003FFC0
FFF000000003FFC0
FFF000000003FFC0
FFF000000003FFC0
FFF000000003FFC0
FFF000000003FFC0
FFF000000003FFC0
FFF000000003FFC0
FFF000000003FFC0
FFF000000003FFC0
FFF000000003FFC0
FFF000000003FFC0
FFF000000003FFC0
FFF000000003FFC0
FFF000000003FFC0
FFF000000003FFC0
FFF000000003FFC0
FFF000000003FFC0
FFF000000003FFC0
FFF000000003FFC0
FFF000000003FFC0
FFF000000003FFC0
FFF000000003FFC0
FFF000000003FFC0
FFF000000003FFC0
FFF000000003FFC0
FFF000000003FFC0
FFF000000003FFC0
FFF000000003FFC0
FFF000000003FFC0
FFF000000003FFC0
FFF000000003FFC0
FFF000000003FFC0
FFF000000003FFC0
FFF000000003FFC0
FFF000000003FFC0
FFF000000003FFC0
FFF000000003FFC0
FFF000000003FFC0
FFF000000003FFC0
FFF000000003FFC0
FFF000000003FFC0
FFF000000003FFC0
FFF000000003FFC0
FFF000000003FFC0
FFF000000003FFC0
FFF000000003FFC0
FFF000000003FFC0
FFF000000003FFC0
FFF000000003FFC0
FFF000000003FFC0
FFF000000003FFC0
FFF000000003FFC0
FFF000000003FFC0
FFF000000003FFC0
FFF000000003FFC0
FFF000000003FFC0
FFF000000003FFC0
FFF000000003FFC0
FFF000000003FFC0
FFF000000003FFC0
FFF000000003FFC0
FFF000000003FFC0
FFF000000003FFC0
FFF000000003FFC0
FFF000000003FFC0
FFF000000003FFC0
FFF000000003FFC0
FFF000000003FFC0
FFF000000003FFC0
FFF000000003FFC0
FFF000000003FFC0
FFF000000003FFC0
FFF000000003FFC0
FFF000000003FFC0
FFF000000003FFC0
FFF000000003FFC0
FFF000000003FFC0
FFF000000003FFC0
FFF000000003FFC0
FFF000000003FFC0
FFF800000007FFC0
FFF800000007FFC0
7FF800000007FF80
7FFC0000000FFF80
7FFC0000000FFF80
7FFE0000001FFF80
3FFF0000003FFF00
3FFF8000007FFF00
1FFF800000FFFE00
1FFFE00001FFFE00
0FFFF00003FFFC00
0FFFFC000FFFFC00
07FFFF807FFFF800
03FFFFFFFFFFF000
01FFFFFFFFFFE000
01FFFFFFFFFFE000
00FFFFFFFFFFC000
007FFFFFFFFF8000
001FFFFFFFFE0000
000FFFFFFFFC0000
0007FFFFFFF80000
0001FFFFFFE00000
00007FFFFF800000
00001FFFFE000000
000001FFE0000000
ENDCHAR
STARTCHAR 0032
ENCODING 50
SWIDTH 669 0
DWIDTH 162 0
BBX 150 150 1 0
BITMAP
000001FFFFFFFFFFFFFFFFFFFFFFFFFE000000
00001FFFFFFFFFFFFFFFFFFFFFFFFFFFC00000
00007FFFFFFFFFFFFFFFFFFFFFFFFFFFF80000
0001FFFFFFFFFFFFFFFFFFFFFFFFFFFFFE0000
0007FFFFFFFFFFFFFFFFFFFFFFFFFFFFFF8000
000FFFFFFFFFFFFFFFFFFFFFFFFFFFFFFFC000
001FFFFFFFFFFFFFFFFFFFFFFFFFFFFFFFE000
007FFFFFFFFFFFFFFFFFFFFFFFFFFFFFFFF000
00FFFFFFFFFFFFFFFFFFFFFFFFFFFFFFFFF800
01FFFFFFFFFFFFFFFFFFFFFFFFFFFFFFFFFC00
01FFFFFFFFFFFFFFFFFFFFFFFFFFFFFFFFFE00
03FFFFFFFFFFFFFFFFFFFFFFFFFFFFFFFFFF00
07FFFF80000000000000000000000007FFFF80
0FFFFC00000000000000000000000000FFFF80
0FFFF0000000000000000000000000003FFFC0
1FFFC0000000000000000000000000001FFFE0
1FFF800000000000000000000000000007FFE0
3FFF000000000000000000000000000003FFF0
3FFE000000000000000000000000000003FFF0
7FFE000000000000000000000000000001FFF0
7FFC000000000000000000000000000000FFF8
7FF8000000000000000000000000000000FFF8
7FF80000000000000000000000000000007FF8
FFF80000000000000000000000000000007FF8
FFF00000000000000000000000000000003FFC
FFF00000000000000000000000000000003FFC
FFF00000000000000000000000000000003FFC
FFF00000000000000000000000000000003FFC
FFF00000000000000000000000000000003FFC
FFF00000000000000000000000000000003FFC
FFF00000000000000000000000000000003FFC
FFF00000000000000000000000000000003FFC
FFF00000000000000000000000000000003FFC
FFF00000000000000000000000000000003FFC
FFF00000000000000000000000000000003FFC
7FF80000000000000000000000000000003FFC
7FF80000000000000000000000000000003FFC
7FF80000000000000000000000000000003FFC
3FFC0000000000000000000000000000003FFC
3FFE0000000000000000000000000000003FFC
3FFE0000000000000000000000000000003FFC
1FFF0000000000000000000000000000003FFC
1FFF8000000000000000000000000000003FFC
0FFFC000000000000000000000000000003FFC
07FFF000000000000000000000000000003FFC
07FFFC00000000000000000000000000003FFC
03FFFF00000000000000000000000000003FFC
01FFFFFFFFFFFFFFFFFFFFFFFE000000003FFC
00FFFFFFFFFFFFFFFFFFFFFFFE000000003FFC
007FFFFFFFFFFFFFFFFFFFFFFE000000003FFC
003FFFFFFFFFFFFFFFFFFFFFFE000000003FFC
001FFFFFFFFFFFFFFFFFFFFFFE000000003FFC
001FFFFFFFFFFFFFFFFFFFFFFE000000003FFC
003FFFFFFFFFFFFFFFFFFFFFFE000000003FFC
007FFFFFFFFFFFFFFFFFFFFFFE000000003FFC
00FFFFFFFFFFFFFFFFFFFFFFFE000000003FFC
01FFFFFFFFFFFFFFFFFFFFFFFE000000003FFC
03FFFF80000000000000000000000000003FFC
07FFFC00000000000000000000000000003FFC
0FFFF000000000000000000000000000003FFC
0FFFC000000000000000000000000000003FFC
1FFF8000000000000000000000000000003FFC
1FFF0000000000000000000000000000003FFC
3FFE0000000000000000000000000000003FFC
3FFE0000000000000000000000000000003FFC
7FFC0000000000000000000000000000003FFC
7FF80000000000000000000000000000003FFC
7FF80000000000000000000000000000003FFC
7FF00000000000000000000000000000003FFC
FFF00000000000000000000000000000003FFC
FFF00000000000000000000000000000003FFC
FFF00000000000000000000000000000003FFC
FFF00000000000000000000000000000003FFC
FFF00000000000000000000000000000003FFC
FFF00000000000000000000000000000003FFC
FFF00000000000000000000000000000003FFC
FFF00000000000000000000000000000003FFC
FFF00000000000000000000000000000003FFC
FFF00000000000000000000000000000003FFC
FFF00000000000000000000000000000003FF8
FFF00000000000000000000000000000007FF8
FFF00000000000000000000000000000007FF8
FFF00000000000000000000000000000007FF8
FFF0000000000000000000000000000000FFF8
FFF0000000000000000000000000000001FFF0
FFF0000000000000000000000000000001FFF0
FFF0000000000000000000000000000003FFF0
FFF0000000000000000000000000000007FFE0
FFF000000000000000000000000000000FFFE0
FFF000000000000000000000000000003FFFC0
FFF00000000000000000000000000000FFFF80
FFF00000000000000000000000000007FFFF80
FFF000000001FFFFFFFFFFFFFFFFFFFFFFFF00
FFF000000001FFFFFFFFFFFFFFFFFFFFFFFE00
FFF000000001FFFFFFFFFFFFFFFFFFFFFFFC00
FFF000000001FFFFFFFFFFFFFFFFFFFFFFF800
FFF000000001FFFFFFFFFFFFFFFFFFFFFFF000
FFF000000001FFFFFFFFFFFFFFFFFFFFFFE000
FFF000000001FFFFFFFFFFFFFFFFFFFFFFE000
FFF000000001FFFFFFFFFFFFFFFFFFFFFFF000
FFF000000001FFFFFFFFFFFFFFFFFFFFFFF800
FFF000000001FFFFFFFFFFFFFFFFFFFFFFFC00
FFF000000001FFFFFFFFFFFFFFFFFFFFFFFE00
FFF00000000000000000000000000007FFFF00
FFF00000000000000000000000000000FFFF00
FFF000000000000000000000000000003FFF80
FFF000000000000000000000000000001FFFC0
FFF0000000000000000000000000000007FFC0
FFF0000000000000000000000000000003FFE0
FFF0000000000000000000000000000003FFE0
FFF0000000000000000000000000000001FFF0
FFF0000000000000000000000000000000FFF0
FFF0000000000000000000000000000000FFF8
FFF00000000000000000000000000000007FF8
FFF00000000000000000000000000000007FF8
FFF00000000000000000000000000000003FF8
FFF00000000000000000000000000000003FF8
FFF00000000000000000000000000000003FFC
FFF00000000000000000000000000000003FFC
FFF00000000000000000000000000000003FFC
FFF00000000000000000000000000000003FFC
FFF00000000000000000000000000000003FFC
FFF00000000000000000000000000000003FFC
FFF00000000000000000000000000000003FFC
FFF00000000000000000000000000000003FFC
FFF00000000000000000000000000000003FFC
FFF00000000000000000000000000000007FF8
7FF80000000000000000000000000000007FF8
7FF8000000000000000000000000000000FFF8
7FFC000000000000000000000000000000FFF8
7FFE000000000000000000000000000001FFF0
3FFE000000000000000000000000000003FFF0
3FFF000000000000000000000000000003FFF0
1FFF800000000000000000000000000007FFE0
1FFFC0000000000000000000000000001FFFE0
0FFFF0000000000000000000000000003FFFC0
0FFFFC00000000000000000000000000FFFF80
07FFFF80000000000000000000000007FFFF80
03FFFFFFFFFFFFFFFFFFFFFFFFFFFFFFFFFF00
03FFFFFFFFFFFFFFFFFFFFFFFFFFFFFFFFFE00
01FFFFFFFFFFFFFFFFFFFFFFFFFFFFFFFFFC00
00FFFFFFFFFFFFFFFFFFFFFFFFFFFFFFFFF800
007FFFFFFFFFFFFFFFFFFFFFFFFFFFFFFFF000
003FFFFFFFFFFFFFFFFFFFFFFFFFFFFFFFE000
000FFFFFFFFFFFFFFFFFFFFFFFFFFFFFFFC000
0007FFFFFFFFFFFFFFFFFFFFFFFFFFFFFF8000
0001FFFFFFFFFFFFFFFFFFFFFFFFFFFFFE0000
00007FFFFFFFFFFFFFFFFFFFFFFFFFFFF80000
00001FFFFFFFFFFFFFFFFFFFFFFFFFFFC00000
000001FFFFFFFFFFFFFFFFFFFFFFFFFE000000
ENDCHAR
STARTCHAR 0033
ENCODING 51
SWIDTH 669 0
DWIDTH 162 0
BBX 150 150 1 0
BITMAP
000001FFFFFFFFFFFFFFFFFFFFFFFFFE000000
00001FFFFFFFFFFFFFFFFFFFFFFFFFFFE00000
00007FFFFFFFFFFFFFFFFFFFFFFFFFFFF80000
0001FFFFFFFFFFFFFFFFFFFFFFFFFFFFFE0000
0007FFFFFFFFFFFFFFFFFFFFFFFFFFFFFF8000
000FFFFFFFFFFFFFFFFFFFFFFFFFFFFFFFC000
001FFFFFFFFFFFFFFFFFFFFFFFFFFFFFFFE000
007FFFFFFFFFFFFFFFFFFFFFFFFFFFFFFFF800
00FFFFFFFFFFFFFFFFFFFFFFFFFFFFFFFFFC00
01FFFFFFFFFFFFFFFFFFFFFFFFFFFFFFFFFE00
01FFFFFFFFFFFFFFFFFFFFFFFFFFFFFFFFFE00
03FFFFFFFFFFFFFFFFFFFFFFFFFFFFFFFFFF00
07FFFF80000000000000000000000007FFFF80
0FFFFC00000000000000000000000000FFFFC0
0FFFF0000000000000000000000000003FFFC0
1FFFC0000000000000000000000000001FFFE0
1FFF80000000000000000000000000000FFFE0
3FFF000000000000000000000000000007FFF0
3FFE000000000000000000000000000003FFF0
7FFC000000000000000000000000000001FFF0
7FFC000000000000000000000000000000FFF8
7FF8000000000000000000000000000000FFF8
7FF80000000000000000000000000000007FF8
FFF00000000000000000000000000000007FFC
FFF00000000000000000000000000000007FFC
FFF00000000000000000000000000000003FFC
FFF00000000000000000000000000000003FFC
FFF00000000000000000000000000000003FFC
FFF00000000000000000000000000000003FFC
FFF00000000000000000000000000000003FFC
FFF00000000000000000000000000000003FFC
FFF00000000000000000000000000000003FFC
FFF00000000000000000000000000000003FFC
FFF00000000000000000000000000000003FFC
7FF00000000000000000000000000000003FFC
7FF80000000000000000000000000000003FFC
7FF80000000000000000000000000000003FFC
7FFC0000000000000000000000000000003FFC
3FFC0000000000000000000000000000003FFC
3FFE0000000000000000000000000000003FFC
3FFF0000000000000000000000000000003FFC
1FFF8000000000000000000000000000003FFC
1FFFC000000000000000000000000000003FFC
0FFFF000000000000000000000000000003FFC
07FFFC00000000000000000000000000003FFC
07FFFF80000000000000000000000000003FFC
03FFFFFFFFFFFFFFFFFFFFFFFF000000003FFC
01FFFFFFFFFFFFFFFFFFFFFFFF000000003FFC
00FFFFFFFFFFFFFFFFFFFFFFFF000000003FFC
007FFFFFFFFFFFFFFFFFFFFFFF000000003FFC
003FFFFFFFFFFFFFFFFFFFFFFF000000003FFC
001FFFFFFFFFFFFFFFFFFFFFFF000000003FFC
001FFFFFFFFFFFFFFFFFFFFFFF000000003FFC
003FFFFFFFFFFFFFFFFFFFFFFF000000003FFC
007FFFFFFFFFFFFFFFFFFFFFFF000000003FFC
00FFFFFFFFFFFFFFFFFFFFFFFF000000003FFC
01FFFFFFFFFFFFFFFFFFFFFFFF000000003FFC
03FFFFFFFFFFFFFFFFFFFFFFFF000000003FFC
07FFFF80000000000000000000000000003FFC
0FFFFC00000000000000000000000000003FFC
0FFFF000000000000000000000000000003FFC
1FFFC000000000000000000000000000003FFC
1FFF8000000000000000000000000000003FFC
3FFF0000000000000000000000000000003FFC
3FFE0000000000000000000000000000003FFC
7FFC0000000000000000000000000000003FFC
7FFC0000000000000000000000000000003FFC
7FF80000000000000000000000000000003FFC
7FF80000000000000000000000000000003FFC
FFF00000000000000000000000000000003FFC
FFF00000000000000000000000000000003FFC
FFF00000000000000000000000000000003FFC
FFF00000000000000000000000000000003FFC
FFF00000000000000000000000000000003FFC
FFF00000000000000000000000000000003FFC
FFF00000000000000000000000000000003FFC
FFF00000000000000000000000000000003FFC
FFF00000000000000000000000000000003FFC
FFF00000000000000000000000000000003FFC
FFF00000000000000000000000000000003FFC
FFF00000000000000000000000000000003FFC
7FF80000000000000000000000000000003FFC
7FF80000000000000000000000000000003FFC
7FFC0000000000000000000000000000003FFC
3FFC0000000000000000000000000000003FFC
3FFE0000000000000000000000000000003FFC
3FFF0000000000000000000000000000003FFC
1FFF8000000000000000000000000000003FFC
1FFFC000000000000000000000000000003FFC
0FFFF000000000000000000000000000003FFC
0FFFFC00000000000000000000000000003FFC
07FFFF80000000000000000000000000003FFC
03FFFFFFFFFFFFFFFFFFFFFFFF000000003FFC
01FFFFFFFFFFFFFFFFFFFFFFFF000000003FFC
00FFFFFFFFFFFFFFFFFFFFFFFF000000003FFC
007FFFFFFFFFFFFFFFFFFFFFFF000000003FFC
003FFFFFFFFFFFFFFFFFFFFFFF000000003FFC
001FFFFFFFFFFFFFFFFFFFFFFF000000003FFC
001FFFFFFFFFFFFFFFFFFFFFFF000000003FFC
003FFFFFFFFFFFFFFFFFFFFFFF000000003FFC
007FFFFFFFFFFFFFFFFFFFFFFF000000003FFC
00FFFFFFFFFFFFFFFFFFFFFFFF000000003FFC
01FFFFFFFFFFFFFFFFFFFFFFFF000000003FFC
03FFFFFFFFFFFFFFFFFFFFFFFF000000003FFC
07FFFF80000000000000000000000000003FFC
07FFFC00000000000000000000000000003FFC
0FFFF000000000000000000000000000003FFC
1FFFC000000000000000000000000000003FFC
1FFF8000000000000000000000000000003FFC
3FFF0000000000000000000000000000003FFC
3FFE0000000000000000000000000000003FFC
3FFC0000000000000000000000000000003FFC
7FFC0000000000000000000000000000003FFC
7FF80000000000000000000000000000003FFC
7FF80000000000000000000000000000003FFC
7FF00000000000000000000000000000003FFC
FFF00000000000000000000000000000003FFC
FFF00000000000000000000000000000003FFC
FFF00000000000000000000000000000003FFC
FFF00000000000000000000000000000003FFC
FFF00000000000000000000000000000003FFC
FFF00000000000000000000000000000003FFC
FFF00000000000000000000000000000003FFC
FFF00000000000000000000000000000003FFC
FFF00000000000000000000000000000003FFC
FFF00000000000000000000000000000007FFC
FFF00000000000000000000000000000007FFC
7FF80000000000000000000000000000007FF8
7FF8000000000000000000000000000000FFF8
7FFC000000000000000000000000000000FFF8
7FFC000000000000000000000000000001FFF8
3FFE000000000000000000000000000003FFF0
3FFF000000000000000000000000000007FFF0
1FFF80000000000000000000000000000FFFE0
1FFFC0000000000000000000000000001FFFE0
0FFFF0000000000000000000000000003FFFC0
0FFFFC00000000000000000000000000FFFFC0
07FFFF00000000000000000000000007FFFF80
03FFFFFFFFFFFFFFFFFFFFFFFFFFFFFFFFFF00
03FFFFFFFFFFFFFFFFFFFFFFFFFFFFFFFFFE00
01FFFFFFFFFFFFFFFFFFFFFFFFFFFFFFFFFE00
00FFFFFFFFFFFFFFFFFFFFFFFFFFFFFFFFFC00
007FFFFFFFFFFFFFFFFFFFFFFFFFFFFFFFF800
003FFFFFFFFFFFFFFFFFFFFFFFFFFFFFFFE000
000FFFFFFFFFFFFFFFFFFFFFFFFFFFFFFFC000
0007FFFFFFFFFFFFFFFFFFFFFFFFFFFFFF8000
0001FFFFFFFFFFFFFFFFFFFFFFFFFFFFFE0000
00007FFFFFFFFFFFFFFFFFFFFFFFFFFFF80000
00001FFFFFFFFFFFFFFFFFFFFFFFFFFFE00000
000001FFFFFFFFFFFFFFFFFFFFFFFFFE000000
ENDCHAR
STARTCHAR 0034
ENCODING 52
SWIDTH 669 0
DWIDTH 162 0
BBX 150 150 1 0
BITMAP
000001FFE00000000000000000001FFE000000
00000FFFFC000000000000000000FFFFC00000
00007FFFFF800000000000000007FFFFF80000
0001FFFFFFE0000000000000001FFFFFFE0000
0007FFFFFFF8000000000000007FFFFFFF8000
000FFFFFFFFC00000000000000FFFFFFFFC000
001FFFFFFFFE00000000000001FFFFFFFFE000
007FFFFFFFFF80000000000007FFFFFFFFF800
00FFFFFFFFFFC000000000000FFFFFFFFFFC00
01FFFFFFFFFFE000000000001FFFFFFFFFFE00
01FFFFFFFFFFE000000000001FFFFFFFFFFE00
03FFFFFFFFFFF000000000003FFFFFFFFFFF00
07FFFF807FFFF800000000007FFFF807FFFF80
0FFFFC000FFFFC0000000000FFFFC000FFFFC0
0FFFF00003FFFC0000000000FFFF00003FFFC0
1FFFE00001FFFE0000000001FFFE00001FFFE0
1FFFC00000FFFE0000000001FFFC00000FFFE0
3FFF8000007FFF0000000003FFF8000007FFF0
3FFF0000003FFF0000000003FFF0000003FFF0
7FFE0000001FFF8000000007FFE0000001FFF0
7FFC0000000FFF8000000007FFC0000000FFF8
7FFC0000000FFF8000000007FFC0000000FFF8
7FF800000007FF8000000007FF800000007FF8
FFF800000007FFC00000000FFF800000007FFC
FFF800000007FFC00000000FFF800000007FFC
FFF000000003FFC00000000FFF000000003FFC
FFF000000003FFC00000000FFF000000003FFC
FFF000000003FFC00000000FFF000000003FFC
FFF000000003FFC00000000FFF000000003FFC
FFF000000003FFC00000000FFF000000003FFC
FFF000000003FFC00000000FFF000000003FFC
FFF000000003FFC00000000FFF000000003FFC
FFF000000003FFC00000000FFF000000003FFC
FFF000000003FFC00000000FFF000000003FFC
FFF000000003FFC00000000FFF000000003FFC
FFF000000003FFC00000000FFF000000003FFC
FFF000000003FFC00000000FFF000000003FFC
FFF000000003FFC00000000FFF000000003FFC
FFF000000003FFC00000000FFF000000003FFC
FFF000000003FFC00000000FFF000000003FFC
FFF000000003FFC00000000FFF000000003FFC
FFF000000003FFC00000000FFF000000003FFC
FFF000000003FFC00000000FFF000000003FFC
FFF000000003FFC00000000FFF000000003FFC
FFF000000003FFC00000000FFF000000003FFC
FFF000000003FFC00000000FFF000000003FFC
FFF000000003FFFFFFFFFFFFFF000000003FFC
FFF000000003FFFFFFFFFFFFFF000000003FFC
FFF000000003FFFFFFFFFFFFFF000000003FFC
FFF000000003FFFFFFFFFFFFFF000000003FFC
FFF000000003FFFFFFFFFFFFFF000000003FFC
FFF000000003FFFFFFFFFFFFFF000000003FFC
FFF000000003FFFFFFFFFFFFFF000000003FFC
FFF000000003FFFFFFFFFFFFFF000000003FFC
FFF000000003FFFFFFFFFFFFFF000000003FFC
FFF000000003FFFFFFFFFFFFFF000000003FFC
FFF000000003FFFFFFFFFFFFFF000000003FFC
FFF000000003FFFFFFFFFFFFFF000000003FFC
FFF00000000000000000000000000000003FFC
FFF00000000000000000000000000000003FFC
FFF00000000000000000000000000000003FFC
FFF00000000000000000000000000000003FFC
FFF00000000000000000000000000000003FFC
FFF00000000000000000000000000000003FFC
FFF00000000000000000000000000000003FFC
FFF00000000000000000000000000000003FFC
FFF00000000000000000000000000000003FFC
FFF00000000000000000000000000000003FFC
FFF00000000000000000000000000000003FFC
FFF00000000000000000000000000000003FFC
FFF00000000000000000000000000000003FFC
FFF00000000000000000000000000000003FFC
FFF00000000000000000000000000000003FFC
FFF00000000000000000000000000000003FFC
FFF00000000000000000000000000000003FFC
FFF00000000000000000000000000000003FFC
FFF00000000000000000000000000000003FFC
FFF00000000000000000000000000000003FFC
FFF00000000000000000000000000000003FFC
FFF80000000000000000000000000000003FFC
FFF80000000000000000000000000000003FFC
7FF80000000000000000000000000000003FFC
7FFC0000000000000000000000000000003FFC
7FFC0000000000000000000000000000003FFC
7FFE0000000000000000000000000000003FFC
3FFF0000000000000000000000000000003FFC
3FFF8000000000000000000000000000003FFC
1FFFC000000000000000000000000000003FFC
1FFFE000000000000000000000000000003FFC
0FFFF000000000000000000000000000003FFC
0FFFFC00000000000000000000000000003FFC
07FFFF80000000000000000000000000003FFC
03FFFFFFFFFFFFFFFFFFFFFFFF000000003FFC
03FFFFFFFFFFFFFFFFFFFFFFFF000000003FFC
01FFFFFFFFFFFFFFFFFFFFFFFF000000003FFC
00FFFFFFFFFFFFFFFFFFFFFFFF000000003FFC
007FFFFFFFFFFFFFFFFFFFFFFF000000003FFC
003FFFFFFFFFFFFFFFFFFFFFFF000000003FFC
000FFFFFFFFFFFFFFFFFFFFFFF000000003FFC
0007FFFFFFFFFFFFFFFFFFFFFF000000003FFC
0001FFFFFFFFFFFFFFFFFFFFFF000000003FFC
00007FFFFFFFFFFFFFFFFFFFFF000000003FFC
00001FFFFFFFFFFFFFFFFFFFFF000000003FFC
000001FFFFFFFFFFFFFFFFFFFF000000003FFC
00000000000000000000000FFF000000003FFC
00000000000000000000000FFF000000003FFC
00000000000000000000000FFF000000003FFC
00000000000000000000000FFF000000003FFC
00000000000000000000000FFF000000003FFC
00000000000000000000000FFF000000003FFC
00000000000000000000000FFF000000003FFC
00000000000000000000000FFF000000003FFC
00000000000000000000000FFF000000003FFC
00000000000000000000000FFF000000003FFC
00000000000000000000000FFF000000003FFC
00000000000000000000000FFF000000003FFC
00000000000000000000000FFF000000003FFC
00000000000000000000000FFF000000003FFC
00000000000000000000000FFF000000003FFC
00000000000000000000000FFF000000003FFC
00000000000000000000000FFF000000003FFC
00000000000000000000000FFF000000003FFC
00000000000000000000000FFF000000003FFC
00000000000000000000000FFF000000003FFC
00000000000000000000000FFF000000003FFC
00000000000000000000000FFF800000007FFC
00000000000000000000000FFF800000007FFC
000000000000000000000007FF800000007FF8
000000000000000000000007FFC0000000FFF8
000000000000000000000007FFC0000000FFF8
000000000000000000000007FFE0000001FFF8
000000000000000000000003FFF0000003FFF0
000000000000000000000003FFF8000007FFF0
000000000000000000000001FFFC00000FFFE0
000000000000000000000001FFFE00001FFFE0
000000000000000000000000FFFF00003FFFC0
000000000000000000000000FFFFC000FFFFC0
0000000000000000000000007FFFF807FFFF80
0000000000000000000000003FFFFFFFFFFF00
0000000000000000000000003FFFFFFFFFFE00
0000000000000000000000001FFFFFFFFFFE00
0000000000000000000000000FFFFFFFFFFC00
00000000000000000000000007FFFFFFFFF800
00000000000000000000000001FFFFFFFFE000
00000000000000000000000000FFFFFFFFC000
000000000000000000000000007FFFFFFF8000
000000000000000000000000001FFFFFFE0000
0000000000000000000000000007FFFFF80000
0000000000000000000000000001FFFFE00000
00000000000000000000000000001FFE000000
ENDCHAR
STARTCHAR 0035
ENCODING 53
SWIDTH 669 0
DWIDTH 162 0
BBX 150 150 1 0
BITMAP
000001FFFFFFFFFFFFFFFFFFFFFFFFFE000000
00001FFFFFFFFFFFFFFFFFFFFFFFFFFFE00000
00007FFFFFFFFFFFFFFFFFFFFFFFFFFFF80000
0001FFFFFFFFFFFFFFFFFFFFFFFFFFFFFE0000
0007FFFFFFFFFFFFFFFFFFFFFFFFFFFFFF8000
000FFFFFFFFFFFFFFFFFFFFFFFFFFFFFFFC000
001FFFFFFFFFFFFFFFFFFFFFFFFFFFFFFFE000
007FFFFFFFFFFFFFFFFFFFFFFFFFFFFFFFF800
00FFFFFFFFFFFFFFFFFFFFFFFFFFFFFFFFFC00
01FFFFFFFFFFFFFFFFFFFFFFFFFFFFFFFFFE00
01FFFFFFFFFFFFFFFFFFFFFFFFFFFFFFFFFE00
03FFFFFFFFFFFFFFFFFFFFFFFFFFFFFFFFFF00
07FFFF80000000000000000000000007FFFF80
0FFFFC00000000000000000000000000FFFFC0
0FFFF0000000000000000000000000003FFFC0
1FFFC0000000000000000000000000001FFFE0
1FFF800000000000000000000000000007FFE0
3FFF000000000000000000000000000003FFF0
3FFE000000000000000000000000000001FFF0
7FFE000000000000000000000000000001FFF0
7FFC000000000000000000000000000000FFF8
7FF80000000000000000000000000000007FF8
7FF80000000000000000000000000000007FF8
FFF00000000000000000000000000000007FFC
FFF00000000000000000000000000000003FFC
FFF00000000000000000000000000000003FFC
FFF00000000000000000000000000000003FFC
FFF00000000000000000000000000000003FFC
FFF00000000000000000000000000000003FFC
FFF00000000000000000000000000000003FFC
FFF00000000000000000000000000000003FFC
FFF00000000000000000000000000000003FFC
FFF00000000000000000000000000000003FFC
FFF00000000000000000000000000000003FFC
FFF00000000000000000000000000000007FFC
FFF00000000000000000000000000000007FF8
FFF00000000000000000000000000000007FF8
FFF0000000000000000000000000000000FFF8
FFF0000000000000000000000000000001FFF0
FFF0000000000000000000000000000001FFF0
FFF0000000000000000000000000000003FFF0
FFF0000000000000000000000000000007FFE0
FFF000000000000000000000000000001FFFE0
FFF000000000000000000000000000003FFFC0
FFF00000000000000000000000000000FFFF80
FFF00000000000000000000000000007FFFF80
FFF000000003FFFFFFFFFFFFFFFFFFFFFFFF00
FFF000000003FFFFFFFFFFFFFFFFFFFFFFFE00
FFF000000003FFFFFFFFFFFFFFFFFFFFFFFC00
FFF000000003FFFFFFFFFFFFFFFFFFFFFFF800
FFF000000003FFFFFFFFFFFFFFFFFFFFFFF000
FFF000000003FFFFFFFFFFFFFFFFFFFFFFE000
FFF000000003FFFFFFFFFFFFFFFFFFFFFFE000
FFF000000003FFFFFFFFFFFFFFFFFFFFFFF000
FFF000000003FFFFFFFFFFFFFFFFFFFFFFF800
FFF000000003FFFFFFFFFFFFFFFFFFFFFFFC00
FFF000000003FFFFFFFFFFFFFFFFFFFFFFFE00
FFF000000003FFFFFFFFFFFFFFFFFFFFFFFF00
FFF00000000000000000000000000007FFFF80
FFF00000000000000000000000000000FFFFC0
FFF000000000000000000000000000003FFFC0
FFF000000000000000000000000000001FFFE0
FFF0000000000000000000000000000007FFE0
FFF0000000000000000000000000000003FFF0
FFF0000000000000000000000000000003FFF0
FFF0000000000000000000000000000001FFF0
FFF0000000000000000000000000000000FFF8
FFF0000000000000000000000000000000FFF8
FFF00000000000000000000000000000007FF8
FFF00000000000000000000000000000007FFC
FFF00000000000000000000000000000003FFC
FFF00000000000000000000000000000003FFC
FFF00000000000000000000000000000003FFC
FFF00000000000000000000000000000003FFC
FFF00000000000000000000000000000003FFC
FFF00000000000000000000000000000003FFC
FFF00000000000000000000000000000003FFC
FFF00000000000000000000000000000003FFC
FFF00000000000000000000000000000003FFC
FFF00000000000000000000000000000003FFC
FFF00000000000000000000000000000003FFC
7FF80000000000000000000000000000003FFC
7FF80000000000000000000000000000003FFC
7FFC0000000000000000000000000000003FFC
3FFC0000000000000000000000000000003FFC
3FFE0000000000000000000000000000003FFC
3FFF0000000000000000000000000000003FFC
1FFF8000000000000000000000000000003FFC
1FFFC000000000000000000000000000003FFC
0FFFF000000000000000000000000000003FFC
0FFFFC00000000000000000000000000003FFC
07FFFF80000000000000000000000000003FFC
03FFFFFFFFFFFFFFFFFFFFFFFF000000003FFC
01FFFFFFFFFFFFFFFFFFFFFFFF000000003FFC
00FFFFFFFFFFFFFFFFFFFFFFFF000000003FFC
007FFFFFFFFFFFFFFFFFFFFFFF000000003FFC
003FFFFFFFFFFFFFFFFFFFFFFF000000003FFC
001FFFFFFFFFFFFFFFFFFFFFFF000000003FFC
001FFFFFFFFFFFFFFFFFFFFFFF000000003FFC
003FFFFFFFFFFFFFFFFFFFFFFF000000003FFC
007FFFFFFFFFFFFFFFFFFFFFFF000000003FFC
00FFFFFFFFFFFFFFFFFFFFFFFF000000003FFC
01FFFFFFFFFFFFFFFFFFFFFFFF000000003FFC
03FFFFFFFFFFFFFFFFFFFFFFFF000000003FFC
07FFFF80000000000000000000000000003FFC
07FFFC00000000000000000000000000003FFC
0FFFF000000000000000000000000000003FFC
1FFFC000000000000000000000000000003FFC
1FFF8000000000000000000000000000003FFC
3FFF0000000000000000000000000000003FFC
3FFE0000000000000000000000000000003FFC
3FFC0000000000000000000000000000003FFC
7FFC0000000000000000000000000000003FFC
7FF80000000000000000000000000000003FFC
7FF80000000000000000000000000000003FFC
7FF00000000000000000000000000000003FFC
FFF00000000000000000000000000000003FFC
FFF00000000000000000000000000000003FFC
FFF00000000000000000000000000000003FFC
FFF00000000000000000000000000000003FFC
FFF00000000000000000000000000000003FFC
FFF00000000000000000000000000000003FFC
FFF00000000000000000000000000000003FFC
FFF00000000000000000000000000000003FFC
FFF00000000000000000000000000000003FFC
FFF00000000000000000000000000000003FFC
FFF00000000000000000000000000000007FFC
7FF80000000000000000000000000000007FF8
7FF8000000000000000000000000000000FFF8
7FFC000000000000000000000000000000FFF8
7FFC000000000000000000000000000001FFF8
3FFE000000000000000000000000000001FFF0
3FFF000000000000000000000000000003FFF0
1FFF800000000000000000000000000007FFE0
1FFFC0000000000000000000000000001FFFE0
0FFFF0000000000000000000000000003FFFC0
0FFFFC00000000000000000000000000FFFFC0
07FFFF80000000000000000000000007FFFF80
03FFFFFFFFFFFFFFFFFFFFFFFFFFFFFFFFFF00
03FFFFFFFFFFFFFFFFFFFFFFFFFFFFFFFFFE00
01FFFFFFFFFFFFFFFFFFFFFFFFFFFFFFFFFE00
00FFFFFFFFFFFFFFFFFFFFFFFFFFFFFFFFFC00
007FFFFFFFFFFFFFFFFFFFFFFFFFFFFFFFF800
003FFFFFFFFFFFFFFFFFFFFFFFFFFFFFFFE000
000FFFFFFFFFFFFFFFFFFFFFFFFFFFFFFFC000
0007FFFFFFFFFFFFFFFFFFFFFFFFFFFFFF8000
0001FFFFFFFFFFFFFFFFFFFFFFFFFFFFFE0000
00007FFFFFFFFFFFFFFFFFFFFFFFFFFFF80000
00001FFFFFFFFFFFFFFFFFFFFFFFFFFFE00000
000001FFFFFFFFFFFFFFFFFFFFFFFFFE000000
ENDCHAR
STARTCHAR 0036
ENCODING 54
SWIDTH 669 0
DWIDTH 162 0
BBX 150 150 1 0
BITMAP
000001FFFFFFFFFFFFFFFFFFFFFFFFFE000000
00001FFFFFFFFFFFFFFFFFFFFFFFFFFFE00000
00007FFFFFFFFFFFFFFFFFFFFFFFFFFFF80000
0001FFFFFFFFFFFFFFFFFFFFFFFFFFFFFE0000
0007FFFFFFFFFFFFFFFFFFFFFFFFFFFFFF8000
000FFFFFFFFFFFFFFFFFFFFFFFFFFFFFFFC000
001FFFFFFFFFFFFFFFFFFFFFFFFFFFFFFFE000
007FFFFFFFFFFFFFFFFFFFFFFFFFFFFFFFF800
00FFFFFFFFFFFFFFFFFFFFFFFFFFFFFFFFFC00
01FFFFFFFFFFFFFFFFFFFFFFFFFFFFFFFFFE00
01FFFFFFFFFFFFFFFFFFFFFFFFFFFFFFFFFE00
03FFFFFFFFFFFFFFFFFFFFFFFFFFFFFFFFFF00
07FFFF80000000000000000000000007FFFF80
0FFFFC00000000000000000000000000FFFFC0
0FFFF0000000000000000000000000003FFFC0
1FFFE0000000000000000000000000001FFFE0
1FFFC00000000000000000000000000007FFE0
3FFF800000000000000000000000000003FFF0
3FFF000000000000000000000000000001FFF0
7FFE000000000000000000000000000001FFF0
7FFC000000000000000000000000000000FFF8
7FFC0000000000000000000000000000007FF8
7FF80000000000000000000000000000007FF8
FFF80000000000000000000000000000007FFC
FFF80000000000000000000000000000003FFC
FFF00000000000000000000000000000003FFC
FFF00000000000000000000000000000003FFC
FFF00000000000000000000000000000003FFC
FFF00000000000000000000000000000003FFC
FFF00000000000000000000000000000003FFC
FFF00000000000000000000000000000003FFC
FFF00000000000000000000000000000003FFC
FFF00000000000000000000000000000003FFC
FFF00000000000000000000000000000003FFC
FFF00000000000000000000000000000007FFC
FFF00000000000000000000000000000007FF8
FFF00000000000000000000000000000007FF8
FFF0000000000000000000000000000000FFF8
FFF0000000000000000000000000000001FFF0
FFF0000000000000000000000000000001FFF0
FFF0000000000000000000000000000003FFF0
FFF0000000000000000000000000000007FFE0
FFF000000000000000000000000000001FFFE0
FFF000000000000000000000000000003FFFC0
FFF00000000000000000000000000000FFFF80
FFF00000000000000000000000000007FFFF80
FFF000000003FFFFFFFFFFFFFFFFFFFFFFFF00
FFF000000003FFFFFFFFFFFFFFFFFFFFFFFE00
FFF000000003FFFFFFFFFFFFFFFFFFFFFFFC00
FFF000000003FFFFFFFFFFFFFFFFFFFFFFF800
FFF000000003FFFFFFFFFFFFFFFFFFFFFFF000
FFF000000003FFFFFFFFFFFFFFFFFFFFFFE000
FFF000000003FFFFFFFFFFFFFFFFFFFFFFE000
FFF000000003FFFFFFFFFFFFFFFFFFFFFFF000
FFF000000003FFFFFFFFFFFFFFFFFFFFFFF800
FFF000000003FFFFFFFFFFFFFFFFFFFFFFFC00
FFF000000003FFFFFFFFFFFFFFFFFFFFFFFE00
FFF000000003FFFFFFFFFFFFFFFFFFFFFFFF00
FFF00000000000000000000000000007FFFF80
FFF00000000000000000000000000000FFFFC0
FFF000000000000000000000000000003FFFC0
FFF000000000000000000000000000001FFFE0
FFF0000000000000000000000000000007FFE0
FFF0000000000000000000000000000003FFF0
FFF0000000000000000000000000000003FFF0
FFF0000000000000000000000000000001FFF0
FFF0000000000000000000000000000000FFF8
FFF0000000000000000000000000000000FFF8
FFF00000000000000000000000000000007FF8
FFF00000000000000000000000000000007FFC
FFF00000000000000000000000000000003FFC
FFF00000000000000000000000000000003FFC
FFF00000000000000000000000000000003FFC
FFF00000000000000000000000000000003FFC
FFF00000000000000000000000000000003FFC
FFF00000000000000000000000000000003FFC
FFF00000000000000000000000000000003FFC
FFF00000000000000000000000000000003FFC
FFF00000000000000000000000000000003FFC
FFF00000000000000000000000000000003FFC
FFF00000000000000000000000000000003FFC
FFF00000000000000000000000000000003FFC
FFF00000000000000000000000000000003FFC
FFF00000000000000000000000000000003FFC
FFF00000000000000000000000000000003FFC
FFF00000000000000000000000000000003FFC
FFF00000000000000000000000000000003FFC
FFF00000000000000000000000000000003FFC
FFF00000000000000000000000000000003FFC
FFF00000000000000000000000000000003FFC
FFF00000000000000000000000000000003FFC
FFF00000000000000000000000000000003FFC
FFF000000003FFFFFFFFFFFFFF000000003FFC
FFF000000003FFFFFFFFFFFFFF000000003FFC
FFF000000003FFFFFFFFFFFFFF000000003FFC
FFF000000003FFFFFFFFFFFFFF000000003FFC
FFF000000003FFFFFFFFFFFFFF000000003FFC
FFF000000003FFFFFFFFFFFFFF000000003FFC
FFF000000003FFFFFFFFFFFFFF000000003FFC
FFF000000003FFFFFFFFFFFFFF000000003FFC
FFF000000003FFFFFFFFFFFFFF000000003FFC
FFF000000003FFFFFFFFFFFFFF000000003FFC
FFF000000003FFFFFFFFFFFFFF000000003FFC
FFF000000003FFFFFFFFFFFFFF000000003FFC
FFF00000000000000000000000000000003FFC
FFF00000000000000000000000000000003FFC
FFF00000000000000000000000000000003FFC
FFF00000000000000000000000000000003FFC
FFF00000000000000000000000000000003FFC
FFF00000000000000000000000000000003FFC
FFF00000000000000000000000000000003FFC
FFF00000000000000000000000000000003FFC
FFF00000000000000000000000000000003FFC
FFF00000000000000000000000000000003FFC
FFF00000000000000000000000000000003FFC
FFF00000000000000000000000000000003FFC
FFF00000000000000000000000000000003FFC
FFF00000000000000000000000000000003FFC
FFF00000000000000000000000000000003FFC
FFF00000000000000000000000000000003FFC
FFF00000000000000000000000000000003FFC
FFF00000000000000000000000000000003FFC
FFF00000000000000000000000000000003FFC
FFF00000000000000000000000000000003FFC
FFF00000000000000000000000000000003FFC
FFF80000000000000000000000000000003FFC
FFF80000000000000000000000000000007FFC
7FF80000000000000000000000000000007FF8
7FFC000000000000000000000000000000FFF8
7FFC000000000000000000000000000000FFF8
7FFE000000000000000000000000000001FFF8
3FFF000000000000000000000000000001FFF0
3FFF800000000000000000000000000003FFF0
1FFFC00000000000000000000000000007FFE0
1FFFE0000000000000000000000000001FFFE0
0FFFF0000000000000000000000000003FFFC0
0FFFFC00000000000000000000000000FFFFC0
07FFFF80000000000000000000000007FFFF80
03FFFFFFFFFFFFFFFFFFFFFFFFFFFFFFFFFF00
03FFFFFFFFFFFFFFFFFFFFFFFFFFFFFFFFFE00
01FFFFFFFFFFFFFFFFFFFFFFFFFFFFFFFFFE00
00FFFFFFFFFFFFFFFFFFFFFFFFFFFFFFFFFC00
007FFFFFFFFFFFFFFFFFFFFFFFFFFFFFFFF800
003FFFFFFFFFFFFFFFFFFFFFFFFFFFFFFFE000
000FFFFFFFFFFFFFFFFFFFFFFFFFFFFFFFC000
0007FFFFFFFFFFFFFFFFFFFFFFFFFFFFFF8000
0001FFFFFFFFFFFFFFFFFFFFFFFFFFFFFE0000
00007FFFFFFFFFFFFFFFFFFFFFFFFFFFF80000
00001FFFFFFFFFFFFFFFFFFFFFFFFFFFE00000
000001FFFFFFFFFFFFFFFFFFFFFFFFFE000000
ENDCHAR
STARTCHAR 0037
ENCODING 55
SWIDTH 669 0
DWIDTH 162 0
BBX 150 150 1 0
BITMAP
000001FFFFFFFFFFFFFFFFFFFFFFFFFE000000
00001FFFFFFFFFFFFFFFFFFFFFFFFFFFE00000
00007FFFFFFFFFFFFFFFFFFFFFFFFFFFF80000
0001FFFFFFFFFFFFFFFFFFFFFFFFFFFFFE0000
0007FFFFFFFFFFFFFFFFFFFFFFFFFFFFFF8000
000FFFFFFFFFFFFFFFFFFFFFFFFFFFFFFFC000
001FFFFFFFFFFFFFFFFFFFFFFFFFFFFFFFE000
007FFFFFFFFFFFFFFFFFFFFFFFFFFFFFFFF800
00FFFFFFFFFFFFFFFFFFFFFFFFFFFFFFFFFC00
01FFFFFFFFFFFFFFFFFFFFFFFFFFFFFFFFFE00
01FFFFFFFFFFFFFFFFFFFFFFFFFFFFFFFFFE00
03FFFFFFFFFFFFFFFFFFFFFFFFFFFFFFFFFF00
07FFFF80000000000000000000000007FFFF80
0FFFFC00000000000000000000000000FFFFC0
0FFFF0000000000000000000000000003FFFC0
1FFFE0000000000000000000000000001FFFE0
1FFFC0000000000000000000000000000FFFE0
3FFF800000000000000000000000000007FFF0
3FFF000000000000000000000000000003FFF0
7FFE000000000000000000000000000001FFF0
7FFC000000000000000000000000000000FFF8
7FFC000000000000000000000000000000FFF8
7FF80000000000000000000000000000007FF8
FFF80000000000000000000000000000007FFC
FFF80000000000000000000000000000007FFC
FFF00000000000000000000000000000003FFC
FFF00000000000000000000000000000003FFC
FFF00000000000000000000000000000003FFC
FFF00000000000000000000000000000003FFC
FFF00000000000000000000000000000003FFC
FFF00000000000000000000000000000003FFC
FFF00000000000000000000000000000003FFC
FFF00000000000000000000000000000003FFC
FFF80000000000000000000000000000003FFC
FFF80000000000000000000000000000003FFC
7FF80000000000000000000000000000003FFC
7FFC0000000000000000000000000000003FFC
7FFC0000000000000000000000000000003FFC
7FFE0000000000000000000000000000003FFC
3FFF0000000000000000000000000000003FFC
3FFF8000000000000000000000000000003FFC
1FFFC000000000000000000000000000003FFC
1FFFE000000000000000000000000000003FFC
0FFFF000000000000000000000000000003FFC
0FFFFC00000000000000000000000000003FFC
07FFFF80000000000000000000000000003FFC
03FFFFFFFFFFFFFFFFFFFFFFFF000000003FFC
01FFFFFFFFFFFFFFFFFFFFFFFF000000003FFC
01FFFFFFFFFFFFFFFFFFFFFFFF000000003FFC
00FFFFFFFFFFFFFFFFFFFFFFFF000000003FFC
007FFFFFFFFFFFFFFFFFFFFFFF000000003FFC
003FFFFFFFFFFFFFFFFFFFFFFF000000003FFC
000FFFFFFFFFFFFFFFFFFFFFFF000000003FFC
0007FFFFFFFFFFFFFFFFFFFFFF000000003FFC
0001FFFFFFFFFFFFFFFFFFFFFF000000003FFC
00007FFFFFFFFFFFFFFFFFFFFF000000003FFC
00001FFFFFFFFFFFFFFFFFFFFF000000003FFC
000001FFFFFFFFFFFFFFFFFFFF000000003FFC
00000000000000000000000FFF000000003FFC
00000000000000000000000FFF000000003FFC
00000000000000000000000FFF000000003FFC
00000000000000000000000FFF000000003FFC
00000000000000000000000FFF000000003FFC
00000000000000000000000FFF000000003FFC
00000000000000000000000FFF000000003FFC
00000000000000000000000FFF000000003FFC
00000000000000000000000FFF000000003FFC
00000000000000000000000FFF000000003FFC
00000000000000000000000FFF000000003FFC
00000000000000000000000FFF000000003FFC
00000000000000000000000FFF000000003FFC
00000000000000000000000FFF000000003FFC
00000000000000000000000FFF000000003FFC
00000000000000000000000FFF000000003FFC
00000000000000000000000FFF000000003FFC
00000000000000000000000FFF000000003FFC
00000000000000000000000FFF000000003FFC
00000000000000000000000FFF000000003FFC
00000000000000000000000FFF000000003FFC
00000000000000000000000FFF000000003FFC
00000000000000000000000FFF000000003FFC
00000000000000000000000FFF000000003FFC
00000000000000000000000FFF000000003FFC
00000000000000000000000FFF000000003FFC
00000000000000000000000FFF000000003FFC
00000000000000000000000FFF000000003FFC
00000000000000000000000FFF000000003FFC
00000000000000000000000FFF000000003FFC
00000000000000000000000FFF000000003FFC
00000000000000000000000FFF000000003FFC
00000000000000000000000FFF000000003FFC
00000000000000000000000FFF000000003FFC
00000000000000000000000FFF000000003FFC
00000000000000000000000FFF000000003FFC
00000000000000000000000FFF000000003FFC
00000000000000000000000FFF000000003FFC
00000000000000000000000FFF000000003FFC
00000000000000000000000FFF000000003FFC
00000000000000000000000FFF000000003FFC
00000000000000000000000FFF000000003FFC
00000000000000000000000FFF000000003FFC
00000000000000000000000FFF000000003FFC
00000000000000000000000FFF000000003FFC
00000000000000000000000FFF000000003FFC
00000000000000000000000FFF000000003FFC
00000000000000000000000FFF000000003FFC
00000000000000000000000FFF000000003FFC
00000000000000000000000FFF000000003FFC
00000000000000000000000FFF000000003FFC
00000000000000000000000FFF000000003FFC
00000000000000000000000FFF000000003FFC
00000000000000000000000FFF000000003FFC
00000000000000000000000FFF000000003FFC
00000000000000000000000FFF000000003FFC
00000000000000000000000FFF000000003FFC
00000000000000000000000FFF000000003FFC
00000000000000000000000FFF000000003FFC
00000000000000000000000FFF000000003FFC
00000000000000000000000FFF000000003FFC
00000000000000000000000FFF000000003FFC
00000000000000000000000FFF000000003FFC
00000000000000000000000FFF000000003FFC
00000000000000000000000FFF000000003FFC
00000000000000000000000FFF000000003FFC
00000000000000000000000FFF000000003FFC
00000000000000000000000FFF800000007FFC
00000000000000000000000FFF800000007FFC
000000000000000000000007FF800000007FF8
000000000000000000000007FFC0000000FFF8
000000000000000000000007FFC0000000FFF8
000000000000000000000007FFE0000001FFF8
000000000000000000000003FFF0000003FFF0
000000000000000000000003FFF8000007FFF0
000000000000000000000001FFFC00000FFFE0
000000000000000000000001FFFE00001FFFE0
000000000000000000000000FFFF00003FFFC0
000000000000000000000000FFFFC000FFFFC0
0000000000000000000000007FFFF807FFFF80
0000000000000000000000003FFFFFFFFFFF00
0000000000000000000000003FFFFFFFFFFE00
0000000000000000000000001FFFFFFFFFFE00
0000000000000000000000000FFFFFFFFFFC00
00000000000000000000000007FFFFFFFFF800
00000000000000000000000001FFFFFFFFE000
00000000000000000000000000FFFFFFFFC000
000000000000000000000000007FFFFFFF8000
000000000000000000000000001FFFFFFE0000
0000000000000000000000000007FFFFF80000
0000000000000000000000000001FFFFE00000
00000000000000000000000000001FFE000000
ENDCHAR
STARTCHAR 0038
ENCODING 56
SWIDTH 669 0
DWIDTH 162 0
BBX 150 150 1 0
BITMAP
000001FFFFFFFFFFFFFFFFFFFFFFFFFE000000
00001FFFFFFFFFFFFFFFFFFFFFFFFFFFC00000
00007FFFFFFFFFFFFFFFFFFFFFFFFFFFF80000
0001FFFFFFFFFFFFFFFFFFFFFFFFFFFFFE0000
0007FFFFFFFFFFFFFFFFFFFFFFFFFFFFFF8000
000FFFFFFFFFFFFFFFFFFFFFFFFFFFFFFFC000
001FFFFFFFFFFFFFFFFFFFFFFFFFFFFFFFE000
007FFFFFFFFFFFFFFFFFFFFFFFFFFFFFFFF800
00FFFFFFFFFFFFFFFFFFFFFFFFFFFFFFFFFC00
01FFFFFFFFFFFFFFFFFFFFFFFFFFFFFFFFFE00
03FFFFFFFFFFFFFFFFFFFFFFFFFFFFFFFFFE00
03FFFFFFFFFFFFFFFFFFFFFFFFFFFFFFFFFF00
07FFFF80000000000000000000000007FFFF80
0FFFFC00000000000000000000000000FFFFC0
0FFFF0000000000000000000000000003FFFC0
1FFFE0000000000000000000000000001FFFE0
1FFFC0000000000000000000000000000FFFE0
3FFF000000000000000000000000000007FFF0
3FFF000000000000000000000000000003FFF0
7FFE000000000000000000000000000001FFF8
7FFC000000000000000000000000000000FFF8
7FFC000000000000000000000000000000FFF8
7FF80000000000000000000000000000007FF8
FFF80000000000000000000000000000007FFC
FFF80000000000000000000000000000007FFC
FFF00000000000000000000000000000003FFC
FFF00000000000000000000000000000003FFC
FFF00000000000000000000000000000003FFC
FFF00000000000000000000000000000003FFC
FFF00000000000000000000000000000003FFC
FFF00000000000000000000000000000003FFC
FFF00000000000000000000000000000003FFC
FFF00000000000000000000000000000003FFC
FFF00000000000000000000000000000003FFC
FFF00000000000000000000000000000003FFC
FFF00000000000000000000000000000003FFC
FFF00000000000000000000000000000003FFC
FFF00000000000000000000000000000003FFC
FFF00000000000000000000000000000003FFC
FFF00000000000000000000000000000003FFC
FFF00000000000000000000000000000003FFC
FFF00000000000000000000000000000003FFC
FFF00000000000000000000000000000003FFC
FFF00000000000000000000000000000003FFC
FFF00000000000000000000000000000003FFC
FFF00000000000000000000000000000003FFC
FFF000000003FFFFFFFFFFFFFF000000003FFC
FFF000000003FFFFFFFFFFFFFF000000003FFC
FFF000000003FFFFFFFFFFFFFF000000003FFC
FFF000000003FFFFFFFFFFFFFF000000003FFC
FFF000000003FFFFFFFFFFFFFF000000003FFC
FFF000000003FFFFFFFFFFFFFF000000003FFC
FFF000000003FFFFFFFFFFFFFF000000003FFC
FFF000000003FFFFFFFFFFFFFF000000003FFC
FFF000000003FFFFFFFFFFFFFF000000003FFC
FFF000000003FFFFFFFFFFFFFF000000003FFC
FFF000000003FFFFFFFFFFFFFF000000003FFC
FFF000000003FFFFFFFFFFFFFF000000003FFC
FFF00000000000000000000000000000003FFC
FFF00000000000000000000000000000003FFC
FFF00000000000000000000000000000003FFC
FFF00000000000000000000000000000003FFC
FFF00000000000000000000000000000003FFC
FFF00000000000000000000000000000003FFC
FFF00000000000000000000000000000003FFC
FFF00000000000000000000000000000003FFC
FFF00000000000000000000000000000003FFC
FFF00000000000000000000000000000003FFC
FFF80000000000000000000000000000007FFC
7FF80000000000000000000000000000007FFC
7FF80000000000000000000000000000007FF8
7FFC000000000000000000000000000000FFF8
7FFC000000000000000000000000000000FFF8
7FFE000000000000000000000000000001FFF8
3FFF000000000000000000000000000003FFF0
3FFF000000000000000000000000000003FFF0
7FFE000000000000000000000000000001FFF8
7FFC000000000000000000000000000000FFF8
7FFC000000000000000000000000000000FFF8
7FF80000000000000000000000000000007FF8
FFF80000000000000000000000000000007FF8
FFF80000000000000000000000000000007FFC
FFF00000000000000000000000000000003FFC
FFF00000000000000000000000000000003FFC
FFF00000000000000000000000000000003FFC
FFF00000000000000000000000000000003FFC
FFF00000000000000000000000000000003FFC
FFF00000000000000000000000000000003FFC
FFF00000000000000000000000000000003FFC
FFF00000000000000000000000000000003FFC
FFF00000000000000000000000000000003FFC
FFF00000000000000000000000000000003FFC
FFF000000003FFFFFFFFFFFFFF000000003FFC
FFF000000003FFFFFFFFFFFFFF000000003FFC
FFF000000003FFFFFFFFFFFFFF000000003FFC
FFF000000003FFFFFFFFFFFFFF000000003FFC
FFF000000003FFFFFFFFFFFFFF000000003FFC
FFF000000003FFFFFFFFFFFFFF000000003FFC
FFF000000003FFFFFFFFFFFFFF000000003FFC
FFF000000003FFFFFFFFFFFFFF000000003FFC
FFF000000003FFFFFFFFFFFFFF000000003FFC
FFF000000003FFFFFFFFFFFFFF000000003FFC
FFF000000003FFFFFFFFFFFFFF000000003FFC
FFF000000003FFFFFFFFFFFFFF000000003FFC
FFF00000000000000000000000000000003FFC
FFF00000000000000000000000000000003FFC
FFF00000000000000000000000000000003FFC
FFF00000000000000000000000000000003FFC
FFF00000000000000000000000000000003FFC
FFF00000000000000000000000000000003FFC
FFF00000000000000000000000000000003FFC
FFF00000000000000000000000000000003FFC
FFF00000000000000000000000000000003FFC
FFF00000000000000000000000000000003FFC
FFF00000000000000000000000000000003FFC
FFF00000000000000000000000000000003FFC
FFF00000000000000000000000000000003FFC
FFF00000000000000000000000000000003FFC
FFF00000000000000000000000000000003FFC
FFF00000000000000000000000000000003FFC
FFF00000000000000000000000000000003FFC
FFF00000000000000000000000000000003FFC
FFF00000000000000000000000000000003FFC
FFF00000000000000000000000000000003FFC
FFF00000000000000000000000000000003FFC
FFF80000000000000000000000000000007FFC
FFF80000000000000000000000000000007FFC
7FF80000000000000000000000000000007FF8
7FFC000000000000000000000000000000FFF8
7FFC000000000000000000000000000000FFF8
7FFE000000000000000000000000000001FFF8
3FFF000000000000000000000000000003FFF0
3FFF800000000000000000000000000007FFF0
1FFFC0000000000000000000000000000FFFE0
1FFFE0000000000000000000000000001FFFE0
0FFFF0000000000000000000000000003FFFC0
0FFFFC00000000000000000000000000FFFFC0
07FFFF80000000000000000000000007FFFF80
03FFFFFFFFFFFFFFFFFFFFFFFFFFFFFFFFFF00
03FFFFFFFFFFFFFFFFFFFFFFFFFFFFFFFFFF00
01FFFFFFFFFFFFFFFFFFFFFFFFFFFFFFFFFE00
00FFFFFFFFFFFFFFFFFFFFFFFFFFFFFFFFFC00
007FFFFFFFFFFFFFFFFFFFFFFFFFFFFFFFF800
001FFFFFFFFFFFFFFFFFFFFFFFFFFFFFFFE000
000FFFFFFFFFFFFFFFFFFFFFFFFFFFFFFFC000
0007FFFFFFFFFFFFFFFFFFFFFFFFFFFFFF8000
0001FFFFFFFFFFFFFFFFFFFFFFFFFFFFFE0000
00007FFFFFFFFFFFFFFFFFFFFFFFFFFFF80000
00001FFFFFFFFFFFFFFFFFFFFFFFFFFFE00000
000001FFFFFFFFFFFFFFFFFFFFFFFFFE000000
ENDCHAR
STARTCHAR 0039
ENCODING 57
SWIDTH 669 0
DWIDTH 162 0
BBX 150 150 1 0
BITMAP
000001FFFFFFFFFFFFFFFFFFFFFFFFFE000000
00001FFFFFFFFFFFFFFFFFFFFFFFFFFFE00000
00007FFFFFFFFFFFFFFFFFFFFFFFFFFFF80000
0001FFFFFFFFFFFFFFFFFFFFFFFFFFFFFE0000
0007FFFFFFFFFFFFFFFFFFFFFFFFFFFFFF8000
000FFFFFFFFFFFFFFFFFFFFFFFFFFFFFFFC000
001FFFFFFFFFFFFFFFFFFFFFFFFFFFFFFFE000
007FFFFFFFFFFFFFFFFFFFFFFFFFFFFFFFF800
00FFFFFFFFFFFFFFFFFFFFFFFFFFFFFFFFFC00
01FFFFFFFFFFFFFFFFFFFFFFFFFFFFFFFFFE00
01FFFFFFFFFFFFFFFFFFFFFFFFFFFFFFFFFE00
03FFFFFFFFFFFFFFFFFFFFFFFFFFFFFFFFFF00
07FFFF80000000000000000000000007FFFF80
0FFFFC00000000000000000000000000FFFFC0
0FFFF0000000000000000000000000003FFFC0
1FFFC0000000000000000000000000001FFFE0
1FFF80000000000000000000000000000FFFE0
3FFF000000000000000000000000000007FFF0
3FFE000000000000000000000000000003FFF0
7FFE000000000000000000000000000001FFF0
7FFC000000000000000000000000000000FFF8
7FF8000000000000000000000000000000FFF8
7FF80000000000000000000000000000007FF8
FFF00000000000000000000000000000007FFC
FFF00000000000000000000000000000007FFC
FFF00000000000000000000000000000003FFC
FFF00000000000000000000000000000003FFC
FFF00000000000000000000000000000003FFC
FFF00000000000000000000000000000003FFC
FFF00000000000000000000000000000003FFC
FFF00000000000000000000000000000003FFC
FFF00000000000000000000000000000003FFC
FFF00000000000000000000000000000003FFC
FFF00000000000000000000000000000003FFC
FFF00000000000000000000000000000003FFC
FFF00000000000000000000000000000003FFC
FFF00000000000000000000000000000003FFC
FFF00000000000000000000000000000003FFC
FFF00000000000000000000000000000003FFC
FFF00000000000000000000000000000003FFC
FFF00000000000000000000000000000003FFC
FFF00000000000000000000000000000003FFC
FFF00000000000000000000000000000003FFC
FFF00000000000000000000000000000003FFC
FFF00000000000000000000000000000003FFC
FFF00000000000000000000000000000003FFC
FFF000000003FFFFFFFFFFFFFF000000003FFC
FFF000000003FFFFFFFFFFFFFF000000003FFC
FFF000000003FFFFFFFFFFFFFF000000003FFC
FFF000000003FFFFFFFFFFFFFF000000003FFC
FFF000000003FFFFFFFFFFFFFF000000003FFC
FFF000000003FFFFFFFFFFFFFF000000003FFC
FFF000000003FFFFFFFFFFFFFF000000003FFC
FFF000000003FFFFFFFFFFFFFF000000003FFC
FFF000000003FFFFFFFFFFFFFF000000003FFC
FFF000000003FFFFFFFFFFFFFF000000003FFC
FFF000000003FFFFFFFFFFFFFF000000003FFC
FFF000000003FFFFFFFFFFFFFF000000003FFC
FFF00000000000000000000000000000003FFC
FFF00000000000000000000000000000003FFC
FFF00000000000000000000000000000003FFC
FFF00000000000000000000000000000003FFC
FFF00000000000000000000000000000003FFC
FFF00000000000000000000000000000003FFC
FFF00000000000000000000000000000003FFC
FFF00000000000000000000000000000003FFC
FFF00000000000000000000000000000003FFC
FFF00000000000000000000000000000003FFC
FFF00000000000000000000000000000003FFC
FFF00000000000000000000000000000003FFC
FFF00000000000000000000000000000003FFC
FFF00000000000000000000000000000003FFC
FFF00000000000000000000000000000003FFC
FFF00000000000000000000000000000003FFC
FFF00000000000000000000000000000003FFC
FFF00000000000000000000000000000003FFC
FFF00000000000000000000000000000003FFC
FFF00000000000000000000000000000003FFC
FFF00000000000000000000000000000003FFC
FFF00000000000000000000000000000003FFC
FFF00000000000000000000000000000003FFC
7FF80000000000000000000000000000003FFC
7FF80000000000000000000000000000003FFC
7FFC0000000000000000000000000000003FFC
7FFC0000000000000000000000000000003FFC
3FFE0000000000000000000000000000003FFC
3FFF0000000000000000000000000000003FFC
1FFF8000000000000000000000000000003FFC
1FFFC000000000000000000000000000003FFC
0FFFF000000000000000000000000000003FFC
0FFFFC00000000000000000000000000003FFC
07FFFF80000000000000000000000000003FFC
03FFFFFFFFFFFFFFFFFFFFFFFF000000003FFC
01FFFFFFFFFFFFFFFFFFFFFFFF000000003FFC
00FFFFFFFFFFFFFFFFFFFFFFFF000000003FFC
007FFFFFFFFFFFFFFFFFFFFFFF000000003FFC
003FFFFFFFFFFFFFFFFFFFFFFF000000003FFC
001FFFFFFFFFFFFFFFFFFFFFFF000000003FFC
001FFFFFFFFFFFFFFFFFFFFFFF000000003FFC
003FFFFFFFFFFFFFFFFFFFFFFF000000003FFC
007FFFFFFFFFFFFFFFFFFFFFFF000000003FFC
00FFFFFFFFFFFFFFFFFFFFFFFF000000003FFC
01FFFFFFFFFFFFFFFFFFFFFFFF000000003FFC
03FFFFFFFFFFFFFFFFFFFFFFFF000000003FFC
07FFFF80000000000000000000000000003FFC
07FFFC00000000000000000000000000003FFC
0FFFF000000000000000000000000000003FFC
1FFFC000000000000000000000000000003FFC
1FFF8000000000000000000000000000003FFC
3FFF0000000000000000000000000000003FFC
3FFE0000000000000000000000000000003FFC
3FFC0000000000000000000000000000003FFC
7FFC0000000000000000000000000000003FFC
7FF80000000000000000000000000000003FFC
7FF80000000000000000000000000000003FFC
FFF00000000000000000000000000000003FFC
FFF00000000000000000000000000000003FFC
FFF00000000000000000000000000000003FFC
FFF00000000000000000000000000000003FFC
FFF00000000000000000000000000000003FFC
FFF00000000000000000000000000000003FFC
FFF00000000000000000000000000000003FFC
FFF00000000000000000000000000000003FFC
FFF00000000000000000000000000000003FFC
FFF00000000000000000000000000000003FFC
FFF00000000000000000000000000000007FFC
FFF00000000000000000000000000000007FFC
7FF80000000000000000000000000000007FF8
7FF8000000000000000000000000000000FFF8
7FFC000000000000000000000000000000FFF8
7FFC000000000000000000000000000001FFF8
3FFE000000000000000000000000000003FFF0
3FFF000000000000000000000000000007FFF0
1FFF80000000000000000000000000000FFFE0
1FFFC0000000000000000000000000001FFFE0
0FFFF0000000000000000000000000003FFFC0
0FFFFC00000000000000000000000000FFFFC0
07FFFF00000000000000000000000007FFFF80
03FFFFFFFFFFFFFFFFFFFFFFFFFFFFFFFFFF00
03FFFFFFFFFFFFFFFFFFFFFFFFFFFFFFFFFE00
01FFFFFFFFFFFFFFFFFFFFFFFFFFFFFFFFFE00
00FFFFFFFFFFFFFFFFFFFFFFFFFFFFFFFFFC00
007FFFFFFFFFFFFFFFFFFFFFFFFFFFFFFFF800
003FFFFFFFFFFFFFFFFFFFFFFFFFFFFFFFE000
000FFFFFFFFFFFFFFFFFFFFFFFFFFFFFFFC000
0007FFFFFFFFFFFFFFFFFFFFFFFFFFFFFF8000
0001FFFFFFFFFFFFFFFFFFFFFFFFFFFFFE0000
00007FFFFFFFFFFFFFFFFFFFFFFFFFFFF80000
00001FFFFFFFFFFFFFFFFFFFFFFFFFFFE00000
000001FFFFFFFFFFFFFFFFFFFFFFFFFE000000
ENDCHAR
STARTCHAR 003A
ENCODING 58
SWIDTH 289 0
DWIDTH 70 0
BBX 58 104 1 0
BITMAP
000001FFE0000000
00000FFFFC000000
00007FFFFF800000
0001FFFFFFE00000
0007FFFFFFF80000
000FFFFFFFFC0000
001FFFFFFFFE0000
007FFFFFFFFF8000
00FFFFFFFFFFC000
01FFFFFFFFFFE000
01FFFFFFFFFFE000
03FFFFFFFFFFF000
07FFFF807FFFF800
0FFFFC000FFFFC00
0FFFF00003FFFC00
1FFFE00001FFFE00
1FFFC00000FFFE00
3FFF8000007FFF00
3FFF0000003FFF00
7FFE0000001FFF00
7FFC0000000FFF80
7FFC0000000FFF80
7FF800000007FF80
FFF800000007FFC0
FFF800000007FFC0
FFF000000003FFC0
FFF000000003FFC0
FFF000000003FFC0
FFF000000003FFC0
FFF000000003FFC0
FFF000000003FFC0
FFF000000003FFC0
FFF000000003FFC0
FFF800000007FFC0
FFF800000007FFC0
7FF800000007FF80
7FFC0000000FFF80
7FFC0000000FFF80
7FFE0000001FFF00
3FFF0000003FFF00
3FFF0000007FFF00
1FFF800000FFFE00
1FFFE00001FFFE00
0FFFF00003FFFC00
0FFFFC000FFFF800
07FFFF807FFFF800
03FFFFFFFFFFF000
01FFFFFFFFFFE000
01FFFFFFFFFFC000
00FFFFFFFFFF8000
003FFFFFFFFF0000
001FFFFFFFFE0000
001FFFFFFFFE0000
003FFFFFFFFF0000
007FFFFFFFFF8000
00FFFFFFFFFFC000
01FFFFFFFFFFE000
03FFFFFFFFFFF000
07FFFF807FFFF800
0FFFFC000FFFF800
0FFFF00003FFFC00
1FFFE00001FFFE00
1FFFC00000FFFE00
3FFF8000007FFF00
3FFF0000003FFF00
7FFE0000001FFF00
7FFC0000000FFF80
7FFC0000000FFF80
7FF800000007FF80
FFF800000007FF80
FFF800000007FFC0
FFF000000003FFC0
FFF000000003FFC0
FFF000000003FFC0
FFF000000003FFC0
FFF000000003FFC0
FFF000000003FFC0
FFF000000003FFC0
FFF000000003FFC0
FFF800000007FFC0
FFF800000007FFC0
7FF800000007FF80
7FFC0000000FFF80
7FFC0000000FFF80
7FFE0000001FFF80
3FFF0000003FFF00
3FFF0000007FFF00
1FFF800000FFFE00
1FFFE00001FFFE00
0FFFF00003FFFC00
0FFFFC000FFFFC00
07FFFF807FFFF800
03FFFFFFFFFFF000
01FFFFFFFFFFE000
01FFFFFFFFFFE000
00FFFFFFFFFFC000
007FFFFFFFFF8000
001FFFFFFFFE0000
000FFFFFFFFC0000
0007FFFFFFF80000
0001FFFFFFE00000
00007FFFFF800000
00001FFFFE000000
000001FFE0000000
ENDCHAR
STARTCHAR 003B
ENCODING 59
SWIDTH 289 0
DWIDTH 70 0
BBX 58 127 1 -23
BITMAP
000001FFE0000000
00000FFFFC000000
00007FFFFF800000
0001FFFFFFE00000
0007FFFFFFF80000
000FFFFFFFFC0000
001FFFFFFFFE0000
007FFFFFFFFF8000
00FFFFFFFFFFC000
01FFFFFFFFFFE000
01FFFFFFFFFFE000
03FFFFFFFFFFF000
07FFFF807FFFF800
0FFFFC000FFFFC00
0FFFF00003FFFC00
1FFFE00001FFFE00
1FFFC00000FFFE00
3FFF8000007FFF00
3FFF0000003FFF00
7FFE0000001FFF00
7FFC0000000FFF80
7FFC0000000FFF80
7FF800000007FF80
FFF800000007FFC0
FFF800000007FFC0
FFF000000003FFC0
FFF000000003FFC0
FFF000000003FFC0
FFF000000003FFC0
FFF000000003FFC0
FFF000000003FFC0
FFF000000003FFC0
FFF000000003FFC0
FFF800000007FFC0
FFF800000007FF80
7FF800000007FF80
7FFC0000000FFF80
7FFC0000000FFF80
7FFE0000001FFF00
3FFF0000003FFF00
3FFF0000007FFF00
1FFF800000FFFE00
1FFFE00001FFFE00
0FFFF00003FFFC00
0FFFFC000FFFF800
07FFFF807FFFF800
03FFFFFFFFFFF000
01FFFFFFFFFFE000
00FFFFFFFFFFC000
007FFFFFFFFF8000
003FFFFFFFFF0000
001FFFFFFFFE0000
001FFFFFFFFE0000
003FFFFFFFFF0000
00FFFFFFFFFF8000
01FFFFFFFFFFC000
01FFFFFFFFFFE000
03FFFFFFFFFFF000
07FFFF807FFFF800
0FFFFC000FFFF800
0FFFF00003FFFC00
1FFFE00001FFFE00
1FFFC00000FFFE00
3FFF8000007FFF00
3FFF0000003FFF00
7FFE0000001FFF00
7FFC0000000FFF80
7FFC0000000FFF80
7FF800000007FF80
FFF800000007FFC0
FFF800000007FFC0
FFF000000003FFC0
FFF000000003FFC0
FFF000000003FFC0
FFF000000003FFC0
FFF000000003FFC0
FFF000000003FFC0
FFF000000003FFC0
FFF000000003FFC0
FFF000000003FFC0
FFF000000003FFC0
FFF000000003FFC0
FFF000000003FFC0
FFF000000003FFC0
FFF000000003FFC0
FFF000000003FFC0
FFF000000003FFC0
FFF000000003FFC0
FFF000000003FFC0
FFF000000003FFC0
FFF000000003FFC0
FFF000000003FFC0
FFF000000003FFC0
FFF000000003FFC0
FFF000000003FFC0
FFF000000003FFC0
FFF000000003FFC0
FFF000000003FFC0
FFF000000003FFC0
FFF000000003FFC0
FFF000000003FFC0
FFF000000003FFC0
FFF800000007FFC0
FFF800000007FFC0
7FF800000007FF80
7FFC0000000FFF80
7FFC0000000FFF80
7FFE0000001FFF80
3FFF0000003FFF00
3FFF8000007FFF00
1FFF800000FFFE00
1FFFE00001FFFE00
0FFFF00003FFFC00
0FFFFC000FFFFC00
07FFFF807FFFF800
03FFFFFFFFFFF000
01FFFFFFFFFFE000
01FFFFFFFFFFE000
00FFFFFFFFFFC000
007FFFFFFFFF8000
001FFFFFFFFE0000
000FFFFFFFFC0000
0007FFFFFFF80000
0001FFFFFFE00000
00007FFFFF800000
00001FFFFE000000
000001FFE0000000
ENDCHAR
STARTCHAR 003C
ENCODING 60
SWIDTH 285 0
DWIDTH 69 0
BBX 0 0 0 0
BITMAP
ENDCHAR
STARTCHAR 003D
ENCODING 61
SWIDTH 669 0
DWIDTH 162 0
BBX 150 104 1 23
BITMAP
000001FFFFFFFFFFFFFFFFFFFFFFFFFE000000
00001FFFFFFFFFFFFFFFFFFFFFFFFFFFE00000
00007FFFFFFFFFFFFFFFFFFFFFFFFFFFF80000
0001FFFFFFFFFFFFFFFFFFFFFFFFFFFFFE0000
0007FFFFFFFFFFFFFFFFFFFFFFFFFFFFFF8000
000FFFFFFFFFFFFFFFFFFFFFFFFFFFFFFFC000
001FFFFFFFFFFFFFFFFFFFFFFFFFFFFFFFE000
007FFFFFFFFFFFFFFFFFFFFFFFFFFFFFFFF800
00FFFFFFFFFFFFFFFFFFFFFFFFFFFFFFFFFC00
01FFFFFFFFFFFFFFFFFFFFFFFFFFFFFFFFFE00
01FFFFFFFFFFFFFFFFFFFFFFFFFFFFFFFFFE00
03FFFFFFFFFFFFFFFFFFFFFFFFFFFFFFFFFF00
07FFFF80000000000000000000000007FFFF80
0FFFFC00000000000000000000000000FFFFC0
0FFFF0000000000000000000000000003FFFC0
1FFFE0000000000000000000000000001FFFE0
1FFFC0000000000000000000000000000FFFE0
3FFF800000000000000000000000000007FFF0
3FFF000000000000000000000000000003FFF0
7FFE000000000000000000000000000001FFF0
7FFC000000000000000000000000000000FFF8
7FFC000000000000000000000000000000FFF8
7FF80000000000000000000000000000007FF8
FFF80000000000000000000000000000007FFC
FFF80000000000000000000000000000007FFC
FFF00000000000000000000000000000003FFC
FFF00000000000000000000000000000003FFC
FFF00000000000000000000000000000003FFC
FFF00000000000000000000000000000003FFC
FFF00000000000000000000000000000003FFC
FFF00000000000000000000000000000003FFC
FFF00000000000000000000000000000003FFC
FFF00000000000000000000000000000003FFC
FFF80000000000000000000000000000007FFC
FFF80000000000000000000000000000007FFC
7FF80000000000000000000000000000007FF8
7FFC000000000000000000000000000000FFF8
7FFC000000000000000000000000000000FFF8
7FFE000000000000000000000000000001FFF0
3FFF000000000000000000000000000003FFF0
3FFF000000000000000000000000000007FFF0
1FFFC0000000000000000000000000000FFFE0
1FFFE0000000000000000000000000001FFFE0
0FFFF0000000000000000000000000003FFFC0
0FFFFC00000000000000000000000000FFFFC0
07FFFF80000000000000000000000007FFFF80
03FFFFFFFFFFFFFFFFFFFFFFFFFFFFFFFFFF00
01FFFFFFFFFFFFFFFFFFFFFFFFFFFFFFFFFE00
00FFFFFFFFFFFFFFFFFFFFFFFFFFFFFFFFFC00
007FFFFFFFFFFFFFFFFFFFFFFFFFFFFFFFF800
003FFFFFFFFFFFFFFFFFFFFFFFFFFFFFFFF000
001FFFFFFFFFFFFFFFFFFFFFFFFFFFFFFFE000
001FFFFFFFFFFFFFFFFFFFFFFFFFFFFFFFE000
003FFFFFFFFFFFFFFFFFFFFFFFFFFFFFFFF000
007FFFFFFFFFFFFFFFFFFFFFFFFFFFFFFFF800
00FFFFFFFFFFFFFFFFFFFFFFFFFFFFFFFFFC00
01FFFFFFFFFFFFFFFFFFFFFFFFFFFFFFFFFE00
03FFFFFFFFFFFFFFFFFFFFFFFFFFFFFFFFFF00
07FFFF80000000000000000000000007FFFF80
0FFFFC00000000000000000000000000FFFFC0
0FFFF0000000000000000000000000003FFFC0
1FFFE0000000000000000000000000001FFFE0
1FFFC0000000000000000000000000000FFFE0
3FFF800000000000000000000000000007FFF0
3FFF000000000000000000000000000003FFF0
7FFE000000000000000000000000000001FFF0
7FFC000000000000000000000000000000FFF8
7FFC000000000000000000000000000000FFF8
7FF80000000000000000000000000000007FF8
FFF80000000000000000000000000000007FF8
FFF80000000000000000000000000000007FFC
FFF00000000000000000000000000000003FFC
FFF00000000000000000000000000000003FFC
FFF00000000000000000000000000000003FFC
FFF00000000000000000000000000000003FFC
FFF00000000000000000000000000000003FFC
FFF00000000000000000000000000000003FFC
FFF00000000000000000000000000000003FFC
FFF00000000000000000000000000000003FFC
FFF80000000000000000000000000000007FFC
FFF80000000000000000000000000000007FFC
7FF80000000000000000000000000000007FF8
7FFC000000000000000000000000000000FFF8
7FFC000000000000000000000000000000FFF8
7FFE000000000000000000000000000001FFF8
3FFF000000000000000000000000000003FFF0
3FFF000000000000000000000000000007FFF0
1FFFC0000000000000000000000000000FFFE0
1FFFE0000000000000000000000000001FFFE0
0FFFF0000000000000000000000000003FFFC0
0FFFFC00000000000000000000000000FFFFC0
07FFFF80000000000000000000000007FFFF80
03FFFFFFFFFFFFFFFFFFFFFFFFFFFFFFFFFF00
01FFFFFFFFFFFFFFFFFFFFFFFFFFFFFFFFFE00
01FFFFFFFFFFFFFFFFFFFFFFFFFFFFFFFFFE00
00FFFFFFFFFFFFFFFFFFFFFFFFFFFFFFFFFC00
007FFFFFFFFFFFFFFFFFFFFFFFFFFFFFFFF800
001FFFFFFFFFFFFFFFFFFFFFFFFFFFFFFFE000
000FFFFFFFFFFFFFFFFFFFFFFFFFFFFFFFC000
0007FFFFFFFFFFFFFFFFFFFFFFFFFFFFFF8000
0001FFFFFFFFFFFFFFFFFFFFFFFFFFFFFE0000
00007FFFFFFFFFFFFFFFFFFFFFFFFFFFF80000
00001FFFFFFFFFFFFFFFFFFFFFFFFFFFE00000
000001FFFFFFFFFFFFFFFFFFFFFFFFFE000000
ENDCHAR
STARTCHAR 003E
ENCODING 62
SWIDTH 285 0
DWIDTH 69 0
BBX 0 0 0 0
BITMAP
ENDCHAR
STARTCHAR 003F
ENCODING 63
SWIDTH 669 0
DWIDTH 162 0
BBX 150 150 1 0
BITMAP
000001FFFFFFFFFFFFFFFFFFFFFFFFFE000000
00001FFFFFFFFFFFFFFFFFFFFFFFFFFFE00000
00007FFFFFFFFFFFFFFFFFFFFFFFFFFFF80000
0001FFFFFFFFFFFFFFFFFFFFFFFFFFFFFE0000
0007FFFFFFFFFFFFFFFFFFFFFFFFFFFFFF8000
000FFFFFFFFFFFFFFFFFFFFFFFFFFFFFFFC000
001FFFFFFFFFFFFFFFFFFFFFFFFFFFFFFFE000
007FFFFFFFFFFFFFFFFFFFFFFFFFFFFFFFF800
00FFFFFFFFFFFFFFFFFFFFFFFFFFFFFFFFFC00
01FFFFFFFFFFFFFFFFFFFFFFFFFFFFFFFFFE00
01FFFFFFFFFFFFFFFFFFFFFFFFFFFFFFFFFE00
03FFFFFFFFFFFFFFFFFFFFFFFFFFFFFFFFFF00
07FFFF80000000000000000000000007FFFF80
0FFFFC00000000000000000000000000FFFFC0
0FFFF0000000000000000000000000003FFFC0
1FFFE0000000000000000000000000001FFFE0
1FFFC0000000000000000000000000000FFFE0
3FFF800000000000000000000000000007FFF0
3FFF000000000000000000000000000003FFF0
7FFE000000000000000000000000000001FFF0
7FFC000000000000000000000000000000FFF8
7FFC000000000000000000000000000000FFF8
7FF80000000000000000000000000000007FF8
FFF80000000000000000000000000000007FFC
FFF80000000000000000000000000000007FFC
FFF00000000000000000000000000000003FFC
FFF00000000000000000000000000000003FFC
FFF00000000000000000000000000000003FFC
FFF00000000000000000000000000000003FFC
FFF00000000000000000000000000000003FFC
FFF00000000000000000000000000000003FFC
FFF00000000000000000000000000000003FFC
FFF00000000000000000000000000000003FFC
FFF80000000000000000000000000000003FFC
FFF80000000000000000000000000000003FFC
7FF80000000000000000000000000000003FFC
7FFC0000000000000000000000000000003FFC
7FFC0000000000000000000000000000003FFC
7FFE0000000000000000000000000000003FFC
3FFF0000000000000000000000000000003FFC
3FFF8000000000000000000000000000003FFC
1FFFC000000000000000000000000000003FFC
1FFFE000000000000000000000000000003FFC
0FFFF000000000000000000000000000003FFC
0FFFFC00000000000000000000000000003FFC
07FFFF80000000000000000000000000003FFC
03FFFFFFFFFFFFFFFFFFFFFFFF000000003FFC
01FFFFFFFFFFFFFFFFFFFFFFFF000000003FFC
01FFFFFFFFFFFFFFFFFFFFFFFF000000003FFC
00FFFFFFFFFFFFFFFFFFFFFFFF000000003FFC
007FFFFFFFFFFFFFFFFFFFFFFF000000003FFC
001FFFFFFFFFFFFFFFFFFFFFFF000000003FFC
000FFFFFFFFFFFFFFFFFFFFFFF000000003FFC
0007FFFFFFFFFFFFFFFFFFFFFF000000003FFC
0001FFFFFFFFFFFFFFFFFFFFFF000000003FFC
00007FFFFFFFFFFFFFFFFFFFFF000000003FFC
00001FFFFFFFFFFFFFFFFFFFFF000000003FFC
000001FFFFFFFFFFFFFFFFFFFF000000003FFC
0000000000001FFFFE00000000000000003FFC
0000000000001FFFF000000000000000003FFC
0000000000003FFFC000000000000000003FFC
0000000000007FFF0000000000000000003FFC
0000000000007FFE0000000000000000003FFC
000000000000FFFC0000000000000000003FFC
000000000000FFF80000000000000000003FFC
000000000000FFF80000000000000000003FFC
000000000001FFF00000000000000000003FFC
000000000001FFE00000000000000000003FFC
000000000001FFE00000000000000000003FFC
000000000001FFE00000000000000000003FFC
000000000003FFC00000000000000000003FFC
000000000003FFC00000000000000000003FFC
000000000003FFC00000000000000000003FFC
000000000003FFC00000000000000000003FFC
000000000003FFC00000000000000000003FFC
000000000003FFC00000000000000000003FFC
000000000003FFC00000000000000000003FFC
000000000003FFC00000000000000000003FFC
000000000003FFC00000000000000000003FFC
000000000003FFC00000000000000000007FFC
000000000003FFC00000000000000000007FFC
000000000001FFE00000000000000000007FF8
000000000001FFE0000000000000000000FFF8
000000000001FFF0000000000000000000FFF8
000000000001FFF8000000000000000001FFF8
000000000000FFF8000000000000000003FFF0
000000000000FFFC000000000000000007FFF0
0000000000007FFE00000000000000000FFFE0
0000000000007FFF00000000000000001FFFE0
0000000000003FFFC0000000000000003FFFC0
0000000000003FFFF000000000000000FFFFC0
0000000000001FFFFE00000000000007FFFF80
0000000000000FFFFFFFFFFFFFFFFFFFFFFF00
00000000000007FFFFFFFFFFFFFFFFFFFFFE00
00000000000003FFFFFFFFFFFFFFFFFFFFFE00
00000000000001FFFFFFFFFFFFFFFFFFFFFC00
00000000000000FFFFFFFFFFFFFFFFFFFFF800
000000000000007FFFFFFFFFFFFFFFFFFFE000
000000000000003FFFFFFFFFFFFFFFFFFFC000
00000000000000FFFFFFFFFFFFFFFFFFFF8000
00000000000001FFFFFFFFFFFFFFFFFFFE0000
00000000000003FFFFFFFFFFFFFFFFFFF80000
00000000000007FFFFFFFFFFFFFFFFFFE00000
0000000000000FFFFFFFFFFFFFFFFFFE000000
0000000000001FFFFE01FFFFC0000000000000
0000000000001FFFF0003FFFE0000000000000
0000000000003FFFC0000FFFF0000000000000
0000000000007FFF000007FFF0000000000000
0000000000007FFE000003FFF8000000000000
000000000000FFFC000001FFF8000000000000
000000000000FFF8000000FFFC000000000000
000000000000FFF80000007FFC000000000000
000000000001FFF00000003FFE000000000000
000000000001FFE00000003FFE000000000000
000000000001FFE00000001FFE000000000000
000000000003FFE00000001FFE000000000000
000000000003FFC00000001FFF000000000000
000000000003FFC00000000FFF000000000000
000000000003FFC00000000FFF000000000000
000000000003FFC00000000FFF000000000000
000000000003FFC00000000FFF000000000000
000000000003FFC00000000FFF000000000000
000000000003FFC00000000FFF000000000000
000000000003FFC00000000FFF000000000000
000000000003FFC00000000FFF000000000000
000000000003FFC00000001FFF000000000000
000000000003FFC00000001FFF000000000000
000000000001FFE00000001FFE000000000000
000000000001FFE00000003FFE000000000000
000000000001FFF00000003FFE000000000000
000000000001FFF80000007FFE000000000000
000000000000FFF8000000FFFC000000000000
000000000000FFFC000001FFFC000000000000
0000000000007FFE000003FFF8000000000000
0000000000007FFF000007FFF8000000000000
0000000000003FFFC0000FFFF0000000000000
0000000000003FFFF0003FFFF0000000000000
0000000000001FFFFE01FFFFE0000000000000
0000000000000FFFFFFFFFFFC0000000000000
0000000000000FFFFFFFFFFF80000000000000
00000000000007FFFFFFFFFF80000000000000
00000000000003FFFFFFFFFF00000000000000
00000000000001FFFFFFFFFC00000000000000
000000000000007FFFFFFFF800000000000000
000000000000003FFFFFFFF000000000000000
000000000000001FFFFFFFE000000000000000
0000000000000007FFFFFF8000000000000000
0000000000000001FFFFFE0000000000000000
00000000000000007FFFF00000000000000000
000000000000000007FF800000000000000000
ENDCHAR
STARTCHAR 0040
ENCODING 64
SWIDTH 285 0
DWIDTH 69 0
BBX 0 0 0 0
BITMAP
ENDCHAR
STARTCHAR 0041
ENCODING 65
SWIDTH 669 0
DWIDTH 162 0
BBX 150 150 1 0
BITMAP
000001FFFFFFFFFFFFFFFFFFFFFFFFFE000000
00001FFFFFFFFFFFFFFFFFFFFFFFFFFFE00000
00007FFFFFFFFFFFFFFFFFFFFFFFFFFFF80000
0001FFFFFFFFFFFFFFFFFFFFFFFFFFFFFE0000
0007FFFFFFFFFFFFFFFFFFFFFFFFFFFFFF8000
000FFFFFFFFFFFFFFFFFFFFFFFFFFFFFFFC000
001FFFFFFFFFFFFFFFFFFFFFFFFFFFFFFFE000
007FFFFFFFFFFFFFFFFFFFFFFFFFFFFFFFF800
00FFFFFFFFFFFFFFFFFFFFFFFFFFFFFFFFFC00
01FFFFFFFFFFFFFFFFFFFFFFFFFFFFFFFFFE00
01FFFFFFFFFFFFFFFFFFFFFFFFFFFFFFFFFE00
03FFFFFFFFFFFFFFFFFFFFFFFFFFFFFFFFFF00
07FFFF80000000000000000000000007FFFF80
0FFFFC00000000000000000000000000FFFFC0
0FFFF0000000000000000000000000003FFFC0
1FFFE0000000000000000000000000001FFFE0
1FFFC0000000000000000000000000000FFFE0
3FFF800000000000000000000000000007FFF0
3FFF000000000000000000000000000003FFF0
7FFE000000000000000000000000000001FFF0
7FFC000000000000000000000000000000FFF8
7FFC000000000000000000000000000000FFF8
7FF80000000000000000000000000000007FF8
FFF80000000000000000000000000000007FFC
FFF80000000000000000000000000000007FFC
FFF00000000000000000000000000000003FFC
FFF00000000000000000000000000000003FFC
FFF00000000000000000000000000000003FFC
FFF00000000000000000000000000000003FFC
FFF00000000000000000000000000000003FFC
FFF00000000000000000000000000000003FFC
FFF00000000000000000000000000000003FFC
FFF00000000000000000000000000000003FFC
FFF00000000000000000000000000000003FFC
FFF00000000000000000000000000000003FFC
FFF00000000000000000000000000000003FFC
FFF00000000000000000000000000000003FFC
FFF00000000000000000000000000000003FFC
FFF00000000000000000000000000000003FFC
FFF00000000000000000000000000000003FFC
FFF00000000000000000000000000000003FFC
FFF00000000000000000000000000000003FFC
FFF00000000000000000000000000000003FFC
FFF00000000000000000000000000000003FFC
FFF00000000000000000000000000000003FFC
FFF00000000000000000000000000000003FFC
FFF000000003FFFFFFFFFFFFFF000000003FFC
FFF000000003FFFFFFFFFFFFFF000000003FFC
FFF000000003FFFFFFFFFFFFFF000000003FFC
FFF000000003FFFFFFFFFFFFFF000000003FFC
FFF000000003FFFFFFFFFFFFFF000000003FFC
FFF000000003FFFFFFFFFFFFFF000000003FFC
FFF000000003FFFFFFFFFFFFFF000000003FFC
FFF000000003FFFFFFFFFFFFFF000000003FFC
FFF000000003FFFFFFFFFFFFFF000000003FFC
FFF000000003FFFFFFFFFFFFFF000000003FFC
FFF000000003FFFFFFFFFFFFFF000000003FFC
FFF000000003FFFFFFFFFFFFFF000000003FFC
FFF00000000000000000000000000000003FFC
FFF00000000000000000000000000000003FFC
FFF00000000000000000000000000000003FFC
FFF00000000000000000000000000000003FFC
FFF00000000000000000000000000000003FFC
FFF00000000000000000000000000000003FFC
FFF00000000000000000000000000000003FFC
FFF00000000000000000000000000000003FFC
FFF00000000000000000000000000000003FFC
FFF00000000000000000000000000000003FFC
FFF00000000000000000000000000000003FFC
FFF00000000000000000000000000000003FFC
FFF00000000000000000000000000000003FFC
FFF00000000000000000000000000000003FFC
FFF00000000000000000000000000000003FFC
FFF00000000000000000000000000000003FFC
FFF00000000000000000000000000000003FFC
FFF00000000000000000000000000000003FFC
FFF00000000000000000000000000000003FFC
FFF00000000000000000000000000000003FFC
FFF00000000000000000000000000000003FFC
FFF00000000000000000000000000000003FFC
FFF00000000000000000000000000000003FFC
FFF00000000000000000000000000000003FFC
FFF00000000000000000000000000000003FFC
FFF00000000000000000000000000000003FFC
FFF00000000000000000000000000000003FFC
FFF00000000000000000000000000000003FFC
FFF00000000000000000000000000000003FFC
FFF00000000000000000000000000000003FFC
FFF00000000000000000000000000000003FFC
FFF00000000000000000000000000000003FFC
FFF00000000000000000000000000000003FFC
FFF00000000000000000000000000000003FFC
FFF000000003FFFFFFFFFFFFFF000000003FFC
FFF000000003FFFFFFFFFFFFFF000000003FFC
FFF000000003FFFFFFFFFFFFFF000000003FFC
FFF000000003FFFFFFFFFFFFFF000000003FFC
FFF000000003FFFFFFFFFFFFFF000000003FFC
FFF000000003FFFFFFFFFFFFFF000000003FFC
FFF000000003FFFFFFFFFFFFFF000000003FFC
FFF000000003FFFFFFFFFFFFFF000000003FFC
FFF000000003FFFFFFFFFFFFFF000000003FFC
FFF000000003FFFFFFFFFFFFFF000000003FFC
FFF000000003FFFFFFFFFFFFFF000000003FFC
FFF000000003FFFFFFFFFFFFFF000000003FFC
FFF000000003FFC00000000FFF000000003FFC
FFF000000003FFC00000000FFF000000003FFC
FFF000000003FFC00000000FFF000000003FFC
FFF000000003FFC00000000FFF000000003FFC
FFF000000003FFC00000000FFF000000003FFC
FFF000000003FFC00000000FFF000000003FFC
FFF000000003FFC00000000FFF000000003FFC
FFF000000003FFC00000000FFF000000003FFC
FFF000000003FFC00000000FFF000000003FFC
FFF000000003FFC00000000FFF000000003FFC
FFF000000003FFC00000000FFF000000003FFC
FFF000000003FFC00000000FFF000000003FFC
FFF000000003FFC00000000FFF000000003FFC
FFF000000003FFC00000000FFF000000003FFC
FFF000000003FFC00000000FFF000000003FFC
FFF000000003FFC00000000FFF000000003FFC
FFF000000003FFC00000000FFF000000003FFC
FFF000000003FFC00000000FFF000000003FFC
FFF000000003FFC00000000FFF000000003FFC
FFF000000003FFC00000000FFF000000003FFC
FFF000000003FFC00000000FFF000000003FFC
FFF800000007FFC00000000FFF800000007FFC
FFF800000007FFC00000000FFF800000007FFC
7FF800000007FF8000000007FF800000007FF8
7FFC0000000FFF8000000007FFC0000000FFF8
7FFC0000000FFF8000000007FFC0000000FFF8
7FFE0000001FFF8000000007FFE0000001FFF8
3FFF0000003FFF0000000003FFF0000003FFF0
3FFF8000007FFF0000000003FFF8000007FFF0
1FFF800000FFFE0000000001FFFC00000FFFE0
1FFFE00001FFFE0000000001FFFE00001FFFE0
0FFFF00003FFFC0000000000FFFF00003FFFC0
0FFFFC000FFFFC0000000000FFFFC000FFFFC0
07FFFF807FFFF800000000007FFFF807FFFF80
03FFFFFFFFFFF000000000003FFFFFFFFFFF00
01FFFFFFFFFFE000000000003FFFFFFFFFFE00
01FFFFFFFFFFE000000000001FFFFFFFFFFE00
00FFFFFFFFFFC000000000000FFFFFFFFFFC00
007FFFFFFFFF80000000000007FFFFFFFFF800
001FFFFFFFFE00000000000001FFFFFFFFE000
000FFFFFFFFC00000000000000FFFFFFFFC000
0007FFFFFFF8000000000000007FFFFFFF8000
0001FFFFFFE0000000000000001FFFFFFE0000
00007FFFFF800000000000000007FFFFF80000
00001FFFFE000000000000000001FFFFE00000
000001FFE00000000000000000001FFE000000
ENDCHAR
STARTCHAR 0042
ENCODING 66
SWIDTH 669 0
DWIDTH 162 0
BBX 150 150 1 0
BITMAP
000001FFFFFFFFFFFFFFFFFFFFFFFFFE000000
00001FFFFFFFFFFFFFFFFFFFFFFFFFFFE00000
00007FFFFFFFFFFFFFFFFFFFFFFFFFFFF80000
0001FFFFFFFFFFFFFFFFFFFFFFFFFFFFFE0000
0007FFFFFFFFFFFFFFFFFFFFFFFFFFFFFF8000
000FFFFFFFFFFFFFFFFFFFFFFFFFFFFFFFC000
001FFFFFFFFFFFFFFFFFFFFFFFFFFFFFFFE000
007FFFFFFFFFFFFFFFFFFFFFFFFFFFFFFFF800
00FFFFFFFFFFFFFFFFFFFFFFFFFFFFFFFFFC00
01FFFFFFFFFFFFFFFFFFFFFFFFFFFFFFFFFE00
01FFFFFFFFFFFFFFFFFFFFFFFFFFFFFFFFFE00
03FFFFFFFFFFFFFFFFFFFFFFFFFFFFFFFFFF00
07FFFF80000000000000000000000007FFFF80
0FFFFC00000000000000000000000000FFFFC0
0FFFF0000000000000000000000000003FFFC0
1FFFE0000000000000000000000000001FFFE0
1FFFC0000000000000000000000000000FFFE0
3FFF800000000000000000000000000007FFF0
3FFF000000000000000000000000000003FFF0
7FFE000000000000000000000000000001FFF0
7FFC000000000000000000000000000000FFF8
7FFC000000000000000000000000000000FFF8
7FF80000000000000000000000000000007FF8
FFF80000000000000000000000000000007FFC
FFF80000000000000000000000000000007FFC
FFF00000000000000000000000000000003FFC
FFF00000000000000000000000000000003FFC
FFF00000000000000000000000000000003FFC
FFF00000000000000000000000000000003FFC
FFF00000000000000000000000000000003FFC
FFF00000000000000000000000000000003FFC
FFF00000000000000000000000000000003FFC
FFF00000000000000000000000000000003FFC
FFF00000000000000000000000000000003FFC
FFF00000000000000000000000000000003FFC
FFF00000000000000000000000000000003FFC
FFF00000000000000000000000000000003FFC
FFF00000000000000000000000000000003FFC
FFF00000000000000000000000000000003FFC
FFF00000000000000000000000000000003FFC
FFF00000000000000000000000000000003FFC
FFF00000000000000000000000000000003FFC
FFF00000000000000000000000000000003FFC
FFF00000000000000000000000000000003FFC
FFF00000000000000000000000000000003FFC
FFF00000000000000000000000000000003FFC
FFF000000003FFFFFFFFFFFFFF000000003FFC
FFF000000003FFFFFFFFFFFFFF000000003FFC
FFF000000003FFFFFFFFFFFFFF000000003FFC
FFF000000003FFFFFFFFFFFFFF000000003FFC
FFF000000003FFFFFFFFFFFFFF000000003FFC
FFF000000003FFFFFFFFFFFFFF000000003FFC
FFF000000003FFFFFFFFFFFFFF000000003FFC
FFF000000003FFFFFFFFFFFFFF000000003FFC
FFF000000003FFFFFFFFFFFFFF000000003FFC
FFF000000003FFFFFFFFFFFFFF000000003FFC
FFF000000003FFFFFFFFFFFFFF000000003FFC
FFF000000003FFFFFFFFFFFFFF000000003FFC
FFF00000000000000000000000000000003FFC
FFF00000000000000000000000000000003FFC
FFF00000000000000000000000000000003FFC
FFF00000000000000000000000000000003FFC
FFF00000000000000000000000000000003FFC
FFF00000000000000000000000000000003FFC
FFF00000000000000000000000000000003FFC
FFF00000000000000000000000000000003FFC
FFF00000000000000000000000000000003FFC
FFF00000000000000000000000000000003FFC
FFF00000000000000000000000000000007FFC
FFF00000000000000000000000000000007FFC
FFF00000000000000000000000000000007FF8
FFF0000000000000000000000000000000FFF8
FFF0000000000000000000000000000000FFF8
FFF0000000000000000000000000000001FFF8
FFF0000000000000000000000000000003FFF0
FFF0000000000000000000000000000003FFF0
FFF0000000000000000000000000000001FFF8
FFF0000000000000000000000000000000FFF8
FFF0000000000000000000000000000000FFF8
FFF00000000000000000000000000000007FF8
FFF00000000000000000000000000000007FF8
FFF00000000000000000000000000000007FFC
FFF00000000000000000000000000000003FFC
FFF00000000000000000000000000000003FFC
FFF00000000000000000000000000000003FFC
FFF00000000000000000000000000000003FFC
FFF00000000000000000000000000000003FFC
FFF00000000000000000000000000000003FFC
FFF00000000000000000000000000000003FFC
FFF00000000000000000000000000000003FFC
FFF00000000000000000000000000000003FFC
FFF00000000000000000000000000000003FFC
FFF000000003FFFFFFFFFFFFFF000000003FFC
FFF000000003FFFFFFFFFFFFFF000000003FFC
FFF000000003FFFFFFFFFFFFFF000000003FFC
FFF000000003FFFFFFFFFFFFFF000000003FFC
FFF000000003FFFFFFFFFFFFFF000000003FFC
FFF000000003FFFFFFFFFFFFFF000000003FFC
FFF000000003FFFFFFFFFFFFFF000000003FFC
FFF000000003FFFFFFFFFFFFFF000000003FFC
FFF000000003FFFFFFFFFFFFFF000000003FFC
FFF000000003FFFFFFFFFFFFFF000000003FFC
FFF000000003FFFFFFFFFFFFFF000000003FFC
FFF000000003FFFFFFFFFFFFFF000000003FFC
FFF00000000000000000000000000000003FFC
FFF00000000000000000000000000000003FFC
FFF00000000000000000000000000000003FFC
FFF00000000000000000000000000000003FFC
FFF00000000000000000000000000000003FFC
FFF00000000000000000000000000000003FFC
FFF00000000000000000000000000000003FFC
FFF00000000000000000000000000000003FFC
FFF00000000000000000000000000000003FFC
FFF00000000000000000000000000000003FFC
FFF00000000000000000000000000000003FFC
FFF00000000000000000000000000000003FFC
FFF00000000000000000000000000000003FFC
FFF00000000000000000000000000000003FFC
FFF00000000000000000000000000000003FFC
FFF00000000000000000000000000000003FFC
FFF00000000000000000000000000000003FFC
FFF00000000000000000000000000000003FFC
FFF00000000000000000000000000000003FFC
FFF00000000000000000000000000000003FFC
FFF00000000000000000000000000000003FFC
FFF80000000000000000000000000000007FFC
FFF80000000000000000000000000000007FFC
7FF80000000000000000000000000000007FF8
7FFC000000000000000000000000000000FFF8
7FFC000000000000000000000000000000FFF8
7FFE000000000000000000000000000001FFF8
3FFF000000000000000000000000000003FFF0
3FFF800000000000000000000000000007FFF0
1FFFC0000000000000000000000000000FFFE0
1FFFE0000000000000000000000000001FFFE0
0FFFF0000000000000000000000000003FFFC0
0FFFFC00000000000000000000000000FFFFC0
07FFFF80000000000000000000000007FFFF80
03FFFFFFFFFFFFFFFFFFFFFFFFFFFFFFFFFF00
03FFFFFFFFFFFFFFFFFFFFFFFFFFFFFFFFFE00
01FFFFFFFFFFFFFFFFFFFFFFFFFFFFFFFFFE00
00FFFFFFFFFFFFFFFFFFFFFFFFFFFFFFFFFC00
007FFFFFFFFFFFFFFFFFFFFFFFFFFFFFFFF800
003FFFFFFFFFFFFFFFFFFFFFFFFFFFFFFFE000
000FFFFFFFFFFFFFFFFFFFFFFFFFFFFFFFC000
0007FFFFFFFFFFFFFFFFFFFFFFFFFFFFFF8000
0001FFFFFFFFFFFFFFFFFFFFFFFFFFFFFE0000
00007FFFFFFFFFFFFFFFFFFFFFFFFFFFF80000
00001FFFFFFFFFFFFFFFFFFFFFFFFFFFE00000
000001FFFFFFFFFFFFFFFFFFFFFFFFFE000000
ENDCHAR
STARTCHAR 0043
ENCODING 67
SWIDTH 669 0
DWIDTH 162 0
BBX 150 150 1 0
BITMAP
000001FFFFFFFFFFFFFFFFFFFFFFFFFE000000
00001FFFFFFFFFFFFFFFFFFFFFFFFFFFE00000
00007FFFFFFFFFFFFFFFFFFFFFFFFFFFF80000
0001FFFFFFFFFFFFFFFFFFFFFFFFFFFFFE0000
0007FFFFFFFFFFFFFFFFFFFFFFFFFFFFFF8000
000FFFFFFFFFFFFFFFFFFFFFFFFFFFFFFFC000
001FFFFFFFFFFFFFFFFFFFFFFFFFFFFFFFE000
007FFFFFFFFFFFFFFFFFFFFFFFFFFFFFFFF800
00FFFFFFFFFFFFFFFFFFFFFFFFFFFFFFFFFC00
01FFFFFFFFFFFFFFFFFFFFFFFFFFFFFFFFFE00
01FFFFFFFFFFFFFFFFFFFFFFFFFFFFFFFFFE00
03FFFFFFFFFFFFFFFFFFFFFFFFFFFFFFFFFF00
07FFFF80000000000000000000000007FFFF80
0FFFFC00000000000000000000000000FFFFC0
0FFFF0000000000000000000000000003FFFC0
1FFFE0000000000000000000000000001FFFE0
1FFFC0000000000000000000000000000FFFE0
3FFF800000000000000000000000000007FFF0
3FFF000000000000000000000000000003FFF0
7FFE000000000000000000000000000001FFF0
7FFC000000000000000000000000000000FFF8
7FFC000000000000000000000000000000FFF8
7FF80000000000000000000000000000007FF8
FFF80000000000000000000000000000007FFC
FFF80000000000000000000000000000007FFC
FFF00000000000000000000000000000003FFC
FFF00000000000000000000000000000003FFC
FFF00000000000000000000000000000003FFC
FFF00000000000000000000000000000003FFC
FFF00000000000000000000000000000003FFC
FFF00000000000000000000000000000003FFC
FFF00000000000000000000000000000003FFC
FFF00000000000000000000000000000003FFC
FFF00000000000000000000000000000007FFC
FFF00000000000000000000000000000007FFC
FFF00000000000000000000000000000007FF8
FFF0000000000000000000000000000000FFF8
FFF0000000000000000000000000000000FFF8
FFF0000000000000000000000000000001FFF0
FFF0000000000000000000000000000003FFF0
FFF0000000000000000000000000000007FFF0
FFF000000000000000000000000000000FFFE0
FFF000000000000000000000000000001FFFE0
FFF000000000000000000000000000003FFFC0
FFF00000000000000000000000000000FFFFC0
FFF00000000000000000000000000007FFFF80
FFF000000003FFFFFFFFFFFFFFFFFFFFFFFF00
FFF000000003FFFFFFFFFFFFFFFFFFFFFFFE00
FFF000000003FFFFFFFFFFFFFFFFFFFFFFFE00
FFF000000003FFFFFFFFFFFFFFFFFFFFFFFC00
FFF000000003FFFFFFFFFFFFFFFFFFFFFFF800
FFF000000003FFFFFFFFFFFFFFFFFFFFFFE000
FFF000000003FFFFFFFFFFFFFFFFFFFFFFC000
FFF000000003FFFFFFFFFFFFFFFFFFFFFF8000
FFF000000003FFFFFFFFFFFFFFFFFFFFFE0000
FFF000000003FFFFFFFFFFFFFFFFFFFFF80000
FFF000000003FFFFFFFFFFFFFFFFFFFFE00000
FFF000000003FFFFFFFFFFFFFFFFFFFE000000
FFF000000003FFC00000000000000000000000
FFF000000003FFC00000000000000000000000
FFF000000003FFC00000000000000000000000
FFF000000003FFC00000000000000000000000
FFF000000003FFC00000000000000000000000
FFF000000003FFC00000000000000000000000
FFF000000003FFC00000000000000000000000
FFF000000003FFC00000000000000000000000
FFF000000003FFC00000000000000000000000
FFF000000003FFC00000000000000000000000
FFF000000003FFC00000000000000000000000
FFF000000003FFC00000000000000000000000
FFF000000003FFC00000000000000000000000
FFF000000003FFC00000000000000000000000
FFF000000003FFC00000000000000000000000
FFF000000003FFC00000000000000000000000
FFF000000003FFC00000000000000000000000
FFF000000003FFC00000000000000000000000
FFF000000003FFC00000000000000000000000
FFF000000003FFC00000000000000000000000
FFF000000003FFC00000000000000000000000
FFF000000003FFC00000000000000000000000
FFF000000003FFC00000000000000000000000
FFF000000003FFC00000000000000000000000
FFF000000003FFC00000000000000000000000
FFF000000003FFC00000000000000000000000
FFF000000003FFC00000000000000000000000
FFF000000003FFC00000000000000000000000
FFF000000003FFC00000000000000000000000
FFF000000003FFC00000000000000000000000
FFF000000003FFC00000000000000000000000
FFF000000003FFC00000000000000000000000
FFF000000003FFC00000000000000000000000
FFF000000003FFC00000000000000000000000
FFF000000003FFFFFFFFFFFFFFFFFFFE000000
FFF000000003FFFFFFFFFFFFFFFFFFFFE00000
FFF000000003FFFFFFFFFFFFFFFFFFFFF80000
FFF000000003FFFFFFFFFFFFFFFFFFFFFE0000
FFF000000003FFFFFFFFFFFFFFFFFFFFFF8000
FFF000000003FFFFFFFFFFFFFFFFFFFFFFC000
FFF000000003FFFFFFFFFFFFFFFFFFFFFFE000
FFF000000003FFFFFFFFFFFFFFFFFFFFFFF800
FFF000000003FFFFFFFFFFFFFFFFFFFFFFFC00
FFF000000003FFFFFFFFFFFFFFFFFFFFFFFE00
FFF000000003FFFFFFFFFFFFFFFFFFFFFFFE00
FFF000000003FFFFFFFFFFFFFFFFFFFFFFFF00
FFF00000000000000000000000000007FFFF80
FFF00000000000000000000000000000FFFFC0
FFF000000000000000000000000000003FFFC0
FFF000000000000000000000000000001FFFE0
FFF000000000000000000000000000000FFFE0
FFF0000000000000000000000000000007FFF0
FFF0000000000000000000000000000003FFF0
FFF0000000000000000000000000000001FFF0
FFF0000000000000000000000000000000FFF8
FFF0000000000000000000000000000000FFF8
FFF00000000000000000000000000000007FF8
FFF00000000000000000000000000000007FFC
FFF00000000000000000000000000000007FFC
FFF00000000000000000000000000000003FFC
FFF00000000000000000000000000000003FFC
FFF00000000000000000000000000000003FFC
FFF00000000000000000000000000000003FFC
FFF00000000000000000000000000000003FFC
FFF00000000000000000000000000000003FFC
FFF00000000000000000000000000000003FFC
FFF00000000000000000000000000000003FFC
FFF80000000000000000000000000000007FFC
FFF80000000000000000000000000000007FFC
7FF80000000000000000000000000000007FF8
7FFC000000000000000000000000000000FFF8
7FFC000000000000000000000000000000FFF8
7FFE000000000000000000000000000001FFF0
3FFF000000000000000000000000000003FFF0
3FFF800000000000000000000000000007FFF0
1FFFC0000000000000000000000000000FFFE0
1FFFE0000000000000000000000000001FFFE0
0FFFF0000000000000000000000000003FFFC0
0FFFFC00000000000000000000000000FFFFC0
07FFFF80000000000000000000000007FFFF80
03FFFFFFFFFFFFFFFFFFFFFFFFFFFFFFFFFF00
03FFFFFFFFFFFFFFFFFFFFFFFFFFFFFFFFFE00
01FFFFFFFFFFFFFFFFFFFFFFFFFFFFFFFFFE00
00FFFFFFFFFFFFFFFFFFFFFFFFFFFFFFFFFC00
007FFFFFFFFFFFFFFFFFFFFFFFFFFFFFFFF800
003FFFFFFFFFFFFFFFFFFFFFFFFFFFFFFFE000
000FFFFFFFFFFFFFFFFFFFFFFFFFFFFFFFC000
0007FFFFFFFFFFFFFFFFFFFFFFFFFFFFFF8000
0001FFFFFFFFFFFFFFFFFFFFFFFFFFFFFE0000
00007FFFFFFFFFFFFFFFFFFFFFFFFFFFF80000
00001FFFFFFFFFFFFFFFFFFFFFFFFFFFE00000
000001FFFFFFFFFFFFFFFFFFFFFFFFFE000000
ENDCHAR
STARTCHAR 0044
ENCODING 68
SWIDTH 669 0
DWIDTH 162 0
BBX 150 150 1 0
BITMAP
FFFFFFFFFFFFFFFFFFFFFFFFFFFFFFFE000000
FFFFFFFFFFFFFFFFFFFFFFFFFFFFFFFFE00000
FFFFFFFFFFFFFFFFFFFFFFFFFFFFFFFFF80000
FFFFFFFFFFFFFFFFFFFFFFFFFFFFFFFFFE0000
FFFFFFFFFFFFFFFFFFFFFFFFFFFFFFFFFF8000
FFFFFFFFFFFFFFFFFFFFFFFFFFFFFFFFFFC000
FFFFFFFFFFFFFFFFFFFFFFFFFFFFFFFFFFE000
FFFFFFFFFFFFFFFFFFFFFFFFFFFFFFFFFFF800
FFFFFFFFFFFFFFFFFFFFFFFFFFFFFFFFFFFC00
FFFFFFFFFFFFFFFFFFFFFFFFFFFFFFFFFFFE00
FFFFFFFFFFFFFFFFFFFFFFFFFFFFFFFFFFFE00
FFFFFFFFFFFFFFFFFFFFFFFFFFFFFFFFFFFF00
FFF00000000000000000000000000007FFFF80
FFF00000000000000000000000000000FFFFC0
FFF000000000000000000000000000003FFFC0
FFF000000000000000000000000000001FFFE0
FFF000000000000000000000000000000FFFE0
FFF0000000000000000000000000000007FFF0
FFF0000000000000000000000000000003FFF0
FFF0000000000000000000000000000001FFF0
FFF0000000000000000000000000000000FFF8
FFF0000000000000000000000000000000FFF8
FFF00000000000000000000000000000007FF8
FFF00000000000000000000000000000007FFC
FFF00000000000000000000000000000007FFC
FFF00000000000000000000000000000003FFC
FFF00000000000000000000000000000003FFC
FFF00000000000000000000000000000003FFC
FFF00000000000000000000000000000003FFC
FFF00000000000000000000000000000003FFC
FFF00000000000000000000000000000003FFC
FFF00000000000000000000000000000003FFC
FFF00000000000000000000000000000003FFC
FFF00000000000000000000000000000003FFC
FFF00000000000000000000000000000003FFC
FFF00000000000000000000000000000003FFC
FFF00000000000000000000000000000003FFC
FFF00000000000000000000000000000003FFC
FFF00000000000000000000000000000003FFC
FFF00000000000000000000000000000003FFC
FFF00000000000000000000000000000003FFC
FFF00000000000000000000000000000003FFC
FFF00000000000000000000000000000003FFC
FFF00000000000000000000000000000003FFC
FFF00000000000000000000000000000003FFC
FFF00000000000000000000000000000003FFC
FFF000000003FFFFFFFFFFFFFF000000003FFC
FFF000000003FFFFFFFFFFFFFF000000003FFC
FFF000000003FFFFFFFFFFFFFF000000003FFC
FFF000000003FFFFFFFFFFFFFF000000003FFC
FFF000000003FFFFFFFFFFFFFF000000003FFC
FFF000000003FFFFFFFFFFFFFF000000003FFC
FFF000000003FFFFFFFFFFFFFF000000003FFC
FFF000000003FFFFFFFFFFFFFF000000003FFC
FFF000000003FFFFFFFFFFFFFF000000003FFC
FFF000000003FFFFFFFFFFFFFF000000003FFC
FFF000000003FFFFFFFFFFFFFF000000003FFC
FFF000000003FFFFFFFFFFFFFF000000003FFC
FFF000000003FFC00000000FFF000000003FFC
FFF000000003FFC00000000FFF000000003FFC
FFF000000003FFC00000000FFF000000003FFC
FFF000000003FFC00000000FFF000000003FFC
FFF000000003FFC00000000FFF000000003FFC
FFF000000003FFC00000000FFF000000003FFC
FFF000000003FFC00000000FFF000000003FFC
FFF000000003FFC00000000FFF000000003FFC
FFF000000003FFC00000000FFF000000003FFC
FFF000000003FFC00000000FFF000000003FFC
FFF000000003FFC00000000FFF000000003FFC
FFF000000003FFC00000000FFF000000003FFC
FFF000000003FFC00000000FFF000000003FFC
FFF000000003FFC00000000FFF000000003FFC
FFF000000003FFC00000000FFF000000003FFC
FFF000000003FFC00000000FFF000000003FFC
FFF000000003FFC00000000FFF000000003FFC
FFF000000003FFC00000000FFF000000003FFC
FFF000000003FFC00000000FFF000000003FFC
FFF000000003FFC00000000FFF000000003FFC
FFF000000003FFC00000000FFF000000003FFC
FFF000000003FFC00000000FFF000000003FFC
FFF000000003FFC00000000FFF000000003FFC
FFF000000003FFC00000000FFF000000003FFC
FFF000000003FFC00000000FFF000000003FFC
FFF000000003FFC00000000FFF000000003FFC
FFF000000003FFC00000000FFF000000003FFC
FFF000000003FFC00000000FFF000000003FFC
FFF000000003FFC00000000FFF000000003FFC
FFF000000003FFC00000000FFF000000003FFC
FFF000000003FFC00000000FFF000000003FFC
FFF000000003FFC00000000FFF000000003FFC
FFF000000003FFC00000000FFF000000003FFC
FFF000000003FFC00000000FFF000000003FFC
FFF000000003FFFFFFFFFFFFFF000000003FFC
FFF000000003FFFFFFFFFFFFFF000000003FFC
FFF000000003FFFFFFFFFFFFFF000000003FFC
FFF000000003FFFFFFFFFFFFFF000000003FFC
FFF000000003FFFFFFFFFFFFFF000000003FFC
FFF000000003FFFFFFFFFFFFFF000000003FFC
FFF000000003FFFFFFFFFFFFFF000000003FFC
FFF000000003FFFFFFFFFFFFFF000000003FFC
FFF000000003FFFFFFFFFFFFFF000000003FFC
FFF000000003FFFFFFFFFFFFFF000000003FFC
FFF000000003FFFFFFFFFFFFFF000000003FFC
FFF000000003FFFFFFFFFFFFFF000000003FFC
FFF00000000000000000000000000000003FFC
FFF00000000000000000000000000000003FFC
FFF00000000000000000000000000000003FFC
FFF00000000000000000000000000000003FFC
FFF00000000000000000000000000000003FFC
FFF00000000000000000000000000000003FFC
FFF00000000000000000000000000000003FFC
FFF00000000000000000000000000000003FFC
FFF00000000000000000000000000000003FFC
FFF00000000000000000000000000000003FFC
FFF00000000000000000000000000000003FFC
FFF00000000000000000000000000000003FFC
FFF00000000000000000000000000000003FFC
FFF00000000000000000000000000000003FFC
FFF00000000000000000000000000000003FFC
FFF00000000000000000000000000000003FFC
FFF00000000000000000000000000000003FFC
FFF00000000000000000000000000000003FFC
FFF00000000000000000000000000000003FFC
FFF00000000000000000000000000000003FFC
FFF00000000000000000000000000000003FFC
FFF00000000000000000000000000000007FFC
FFF00000000000000000000000000000007FFC
FFF00000000000000000000000000000007FF8
FFF0000000000000000000000000000000FFF8
FFF0000000000000000000000000000000FFF8
FFF0000000000000000000000000000001FFF8
FFF0000000000000000000000000000003FFF0
FFF0000000000000000000000000000007FFF0
FFF000000000000000000000000000000FFFE0
FFF000000000000000000000000000001FFFE0
FFF000000000000000000000000000003FFFC0
FFF00000000000000000000000000000FFFFC0
FFF00000000000000000000000000007FFFF80
FFFFFFFFFFFFFFFFFFFFFFFFFFFFFFFFFFFF00
FFFFFFFFFFFFFFFFFFFFFFFFFFFFFFFFFFFE00
FFFFFFFFFFFFFFFFFFFFFFFFFFFFFFFFFFFE00
FFFFFFFFFFFFFFFFFFFFFFFFFFFFFFFFFFFC00
FFFFFFFFFFFFFFFFFFFFFFFFFFFFFFFFFFF800
FFFFFFFFFFFFFFFFFFFFFFFFFFFFFFFFFFE000
FFFFFFFFFFFFFFFFFFFFFFFFFFFFFFFFFFC000
FFFFFFFFFFFFFFFFFFFFFFFFFFFFFFFFFF8000
FFFFFFFFFFFFFFFFFFFFFFFFFFFFFFFFFE0000
FFFFFFFFFFFFFFFFFFFFFFFFFFFFFFFFF80000
FFFFFFFFFFFFFFFFFFFFFFFFFFFFFFFFE00000
FFFFFFFFFFFFFFFFFFFFFFFFFFFFFFFE000000
ENDCHAR
STARTCHAR 0045
ENCODING 69
SWIDTH 669 0
DWIDTH 162 0
BBX 150 150 1 0
BITMAP
000001FFFFFFFFFFFFFFFFFFFFFFFFFE000000
00001FFFFFFFFFFFFFFFFFFFFFFFFFFFE00000
00007FFFFFFFFFFFFFFFFFFFFFFFFFFFF80000
0001FFFFFFFFFFFFFFFFFFFFFFFFFFFFFE0000
0007FFFFFFFFFFFFFFFFFFFFFFFFFFFFFF8000
000FFFFFFFFFFFFFFFFFFFFFFFFFFFFFFFC000
001FFFFFFFFFFFFFFFFFFFFFFFFFFFFFFFE000
007FFFFFFFFFFFFFFFFFFFFFFFFFFFFFFFF800
00FFFFFFFFFFFFFFFFFFFFFFFFFFFFFFFFFC00
01FFFFFFFFFFFFFFFFFFFFFFFFFFFFFFFFFE00
01FFFFFFFFFFFFFFFFFFFFFFFFFFFFFFFFFE00
03FFFFFFFFFFFFFFFFFFFFFFFFFFFFFFFFFF00
07FFFF80000000000000000000000007FFFF80
0FFFFC00000000000000000000000000FFFFC0
0FFFF0000000000000000000000000003FFFC0
1FFFE0000000000000000000000000001FFFE0
1FFFC0000000000000000000000000000FFFE0
3FFF800000000000000000000000000007FFF0
3FFF000000000000000000000000000003FFF0
7FFE000000000000000000000000000001FFF0
7FFC000000000000000000000000000000FFF8
7FFC000000000000000000000000000000FFF8
7FF80000000000000000000000000000007FF8
FFF80000000000000000000000000000007FFC
FFF80000000000000000000000000000007FFC
FFF00000000000000000000000000000003FFC
FFF00000000000000000000000000000003FFC
FFF00000000000000000000000000000003FFC
FFF00000000000000000000000000000003FFC
FFF00000000000000000000000000000003FFC
FFF00000000000000000000000000000003FFC
FFF00000000000000000000000000000003FFC
FFF00000000000000000000000000000003FFC
FFF80000000000000000000000000000007FFC
FFF80000000000000000000000000000007FF8
7FF80000000000000000000000000000007FF8
7FFC000000000000000000000000000000FFF8
7FFC000000000000000000000000000000FFF8
7FFE000000000000000000000000000001FFF0
3FFF000000000000000000000000000003FFF0
3FFF000000000000000000000000000007FFF0
1FFFC0000000000000000000000000000FFFE0
1FFFE0000000000000000000000000001FFFE0
0FFFF0000000000000000000000000003FFFC0
0FFFFC00000000000000000000000000FFFF80
07FFFF80000000000000000000000007FFFF80
03FFFFFFFFFFFFFFFFFFFFFFFFFFFFFFFFFF00
01FFFFFFFFFFFFFFFFFFFFFFFFFFFFFFFFFE00
00FFFFFFFFFFFFFFFFFFFFFFFFFFFFFFFFFC00
007FFFFFFFFFFFFFFFFFFFFFFFFFFFFFFFF800
003FFFFFFFFFFFFFFFFFFFFFFFFFFFFFFFF000
001FFFFFFFFFFFFFFFFFFFFFFFFFFFFFFFE000
001FFFFFFFFFFFFFFFFFFFFFFFFFFFFFFFE000
003FFFFFFFFFFFFFFFFFFFFFFFFFFFFFFFF000
00FFFFFFFFFFFFFFFFFFFFFFFFFFFFFFFFF800
01FFFFFFFFFFFFFFFFFFFFFFFFFFFFFFFFFC00
01FFFFFFFFFFFFFFFFFFFFFFFFFFFFFFFFFE00
03FFFFFFFFFFFFFFFFFFFFFFFFFFFFFFFFFF00
07FFFF80000000000000000000000007FFFF80
0FFFFC00000000000000000000000000FFFFC0
0FFFF0000000000000000000000000003FFFC0
1FFFE0000000000000000000000000001FFFE0
1FFFC0000000000000000000000000000FFFE0
3FFF800000000000000000000000000007FFF0
3FFF000000000000000000000000000003FFF0
7FFE000000000000000000000000000001FFF8
7FFC000000000000000000000000000000FFF8
7FFC000000000000000000000000000000FFF8
7FF80000000000000000000000000000007FF8
FFF80000000000000000000000000000007FFC
FFF80000000000000000000000000000007FFC
FFF00000000000000000000000000000003FFC
FFF00000000000000000000000000000003FFC
FFF00000000000000000000000000000003FFC
FFF00000000000000000000000000000003FFC
FFF00000000000000000000000000000003FFC
FFF00000000000000000000000000000003FFC
FFF00000000000000000000000000000003FFC
FFF00000000000000000000000000000003FFC
FFF80000000000000000000000000000007FFC
FFF80000000000000000000000000000007FFC
7FF80000000000000000000000000000007FF8
7FFC000000000000000000000000000000FFF8
7FFC000000000000000000000000000000FFF8
7FFE000000000000000000000000000001FFF8
3FFF000000000000000000000000000003FFF0
3FFF000000000000000000000000000007FFF0
1FFFC0000000000000000000000000000FFFE0
1FFFE0000000000000000000000000001FFFE0
0FFFF0000000000000000000000000003FFFC0
0FFFFC00000000000000000000000000FFFFC0
07FFFF80000000000000000000000007FFFF80
03FFFFFFFFFFFFFFFFFFFFFFFFFFFFFFFFFF00
01FFFFFFFFFFFFFFFFFFFFFFFFFFFFFFFFFE00
01FFFFFFFFFFFFFFFFFFFFFFFFFFFFFFFFFC00
00FFFFFFFFFFFFFFFFFFFFFFFFFFFFFFFFF800
003FFFFFFFFFFFFFFFFFFFFFFFFFFFFFFFF000
001FFFFFFFFFFFFFFFFFFFFFFFFFFFFFFFE000
001FFFFFFFFFFFFFFFFFFFFFFFFFFFFFFFE000
003FFFFFFFFFFFFFFFFFFFFFFFFFFFFFFFF000
007FFFFFFFFFFFFFFFFFFFFFFFFFFFFFFFF800
00FFFFFFFFFFFFFFFFFFFFFFFFFFFFFFFFFC00
01FFFFFFFFFFFFFFFFFFFFFFFFFFFFFFFFFE00
03FFFFFFFFFFFFFFFFFFFFFFFFFFFFFFFFFF00
07FFFF80000000000000000000000007FFFF80
0FFFFC00000000000000000000000000FFFFC0
0FFFF0000000000000000000000000003FFFC0
1FFFE0000000000000000000000000001FFFE0
1FFFC0000000000000000000000000000FFFE0
3FFF800000000000000000000000000007FFF0
3FFF000000000000000000000000000003FFF0
3FFE000000000000000000000000000001FFF0
7FFC000000000000000000000000000000FFF8
7FFC000000000000000000000000000000FFF8
7FF80000000000000000000000000000007FF8
FFF80000000000000000000000000000007FF8
FFF80000000000000000000000000000007FFC
FFF00000000000000000000000000000003FFC
FFF00000000000000000000000000000003FFC
FFF00000000000000000000000000000003FFC
FFF00000000000000000000000000000003FFC
FFF00000000000000000000000000000003FFC
FFF00000000000000000000000000000003FFC
FFF00000000000000000000000000000003FFC
FFF00000000000000000000000000000003FFC
FFF80000000000000000000000000000007FFC
FFF80000000000000000000000000000007FFC
7FF80000000000000000000000000000007FF8
7FFC000000000000000000000000000000FFF8
7FFC000000000000000000000000000000FFF8
7FFE000000000000000000000000000001FFF8
3FFF000000000000000000000000000003FFF0
3FFF000000000000000000000000000007FFF0
1FFFC0000000000000000000000000000FFFE0
1FFFE0000000000000000000000000001FFFE0
0FFFF0000000000000000000000000003FFFC0
0FFFFC00000000000000000000000000FFFFC0
07FFFF80000000000000000000000007FFFF80
03FFFFFFFFFFFFFFFFFFFFFFFFFFFFFFFFFF00
03FFFFFFFFFFFFFFFFFFFFFFFFFFFFFFFFFE00
01FFFFFFFFFFFFFFFFFFFFFFFFFFFFFFFFFE00
00FFFFFFFFFFFFFFFFFFFFFFFFFFFFFFFFFC00
007FFFFFFFFFFFFFFFFFFFFFFFFFFFFFFFF000
003FFFFFFFFFFFFFFFFFFFFFFFFFFFFFFFE000
000FFFFFFFFFFFFFFFFFFFFFFFFFFFFFFFC000
0007FFFFFFFFFFFFFFFFFFFFFFFFFFFFFF8000
0001FFFFFFFFFFFFFFFFFFFFFFFFFFFFFE0000
00007FFFFFFFFFFFFFFFFFFFFFFFFFFFF80000
00001FFFFFFFFFFFFFFFFFFFFFFFFFFFE00000
000001FFFFFFFFFFFFFFFFFFFFFFFFFE000000
ENDCHAR
STARTCHAR 0046
ENCODING 70
SWIDTH 669 0
DWIDTH 162 0
BBX 150 150 1 0
BITMAP
000001FFFFFFFFFFFFFFFFFFFFFFFFFE000000
00001FFFFFFFFFFFFFFFFFFFFFFFFFFFE00000
00007FFFFFFFFFFFFFFFFFFFFFFFFFFFF80000
0001FFFFFFFFFFFFFFFFFFFFFFFFFFFFFE0000
0007FFFFFFFFFFFFFFFFFFFFFFFFFFFFFF8000
000FFFFFFFFFFFFFFFFFFFFFFFFFFFFFFFC000
001FFFFFFFFFFFFFFFFFFFFFFFFFFFFFFFE000
007FFFFFFFFFFFFFFFFFFFFFFFFFFFFFFFF800
00FFFFFFFFFFFFFFFFFFFFFFFFFFFFFFFFFC00
01FFFFFFFFFFFFFFFFFFFFFFFFFFFFFFFFFE00
01FFFFFFFFFFFFFFFFFFFFFFFFFFFFFFFFFE00
03FFFFFFFFFFFFFFFFFFFFFFFFFFFFFFFFFF00
07FFFF80000000000000000000000007FFFF80
0FFFFC00000000000000000000000000FFFFC0
0FFFF0000000000000000000000000003FFFC0
1FFFE0000000000000000000000000001FFFE0
1FFFC0000000000000000000000000000FFFE0
3FFF800000000000000000000000000007FFF0
3FFF000000000000000000000000000003FFF0
7FFE000000000000000000000000000001FFF0
7FFC000000000000000000000000000000FFF8
7FFC000000000000000000000000000000FFF8
7FF80000000000000000000000000000007FF8
FFF80000000000000000000000000000007FFC
FFF80000000000000000000000000000007FFC
FFF00000000000000000000000000000003FFC
FFF00000000000000000000000000000003FFC
FFF00000000000000000000000000000003FFC
FFF00000000000000000000000000000003FFC
FFF00000000000000000000000000000003FFC
FFF00000000000000000000000000000003FFC
FFF00000000000000000000000000000003FFC
FFF00000000000000000000000000000003FFC
FFF80000000000000000000000000000007FFC
FFF80000000000000000000000000000007FFC
7FF80000000000000000000000000000007FF8
7FFC000000000000000000000000000000FFF8
7FFC000000000000000000000000000000FFF8
7FFE000000000000000000000000000001FFF0
3FFF000000000000000000000000000003FFF0
3FFF000000000000000000000000000007FFF0
1FFFC0000000000000000000000000000FFFE0
1FFFE0000000000000000000000000001FFFE0
0FFFF0000000000000000000000000003FFFC0
0FFFFC00000000000000000000000000FFFFC0
07FFFF80000000000000000000000007FFFF80
03FFFFFFFFFFFFFFFFFFFFFFFFFFFFFFFFFF00
01FFFFFFFFFFFFFFFFFFFFFFFFFFFFFFFFFE00
00FFFFFFFFFFFFFFFFFFFFFFFFFFFFFFFFFC00
007FFFFFFFFFFFFFFFFFFFFFFFFFFFFFFFF800
003FFFFFFFFFFFFFFFFFFFFFFFFFFFFFFFF000
001FFFFFFFFFFFFFFFFFFFFFFFFFFFFFFFE000
001FFFFFFFFFFFFFFFFFFFFFFFFFFFFFFFE000
003FFFFFFFFFFFFFFFFFFFFFFFFFFFFFFFF000
00FFFFFFFFFFFFFFFFFFFFFFFFFFFFFFFFF800
01FFFFFFFFFFFFFFFFFFFFFFFFFFFFFFFFFC00
03FFFFFFFFFFFFFFFFFFFFFFFFFFFFFFFFFE00
03FFFFFFFFFFFFFFFFFFFFFFFFFFFFFFFFFF00
07FFFF80000000000000000000000007FFFF80
0FFFFC00000000000000000000000000FFFFC0
0FFFF0000000000000000000000000003FFFC0
1FFFE0000000000000000000000000001FFFE0
1FFFC0000000000000000000000000000FFFE0
3FFF800000000000000000000000000007FFF0
3FFF000000000000000000000000000003FFF0
7FFE000000000000000000000000000001FFF0
7FFC000000000000000000000000000000FFF8
7FFC000000000000000000000000000000FFF8
7FF80000000000000000000000000000007FF8
FFF80000000000000000000000000000007FF8
FFF80000000000000000000000000000007FFC
FFF00000000000000000000000000000003FFC
FFF00000000000000000000000000000003FFC
FFF00000000000000000000000000000003FFC
FFF00000000000000000000000000000003FFC
FFF00000000000000000000000000000003FFC
FFF00000000000000000000000000000003FFC
FFF00000000000000000000000000000003FFC
FFF00000000000000000000000000000003FFC
FFF00000000000000000000000000000007FFC
FFF00000000000000000000000000000007FFC
FFF00000000000000000000000000000007FF8
FFF0000000000000000000000000000000FFF8
FFF0000000000000000000000000000000FFF8
FFF0000000000000000000000000000001FFF8
FFF0000000000000000000000000000003FFF0
FFF0000000000000000000000000000007FFF0
FFF000000000000000000000000000000FFFE0
FFF000000000000000000000000000001FFFE0
FFF000000000000000000000000000003FFFC0
FFF00000000000000000000000000000FFFFC0
FFF00000000000000000000000000007FFFF80
FFF000000003FFFFFFFFFFFFFFFFFFFFFFFF00
FFF000000003FFFFFFFFFFFFFFFFFFFFFFFE00
FFF000000003FFFFFFFFFFFFFFFFFFFFFFFE00
FFF000000003FFFFFFFFFFFFFFFFFFFFFFFC00
FFF000000003FFFFFFFFFFFFFFFFFFFFFFF800
FFF000000003FFFFFFFFFFFFFFFFFFFFFFE000
FFF000000003FFFFFFFFFFFFFFFFFFFFFFC000
FFF000000003FFFFFFFFFFFFFFFFFFFFFF8000
FFF000000003FFFFFFFFFFFFFFFFFFFFFE0000
FFF000000003FFFFFFFFFFFFFFFFFFFFF80000
FFF000000003FFFFFFFFFFFFFFFFFFFFE00000
FFF000000003FFFFFFFFFFFFFFFFFFFE000000
FFF000000003FFC00000000000000000000000
FFF000000003FFC00000000000000000000000
FFF000000003FFC00000000000000000000000
FFF000000003FFC00000000000000000000000
FFF000000003FFC00000000000000000000000
FFF000000003FFC00000000000000000000000
FFF000000003FFC00000000000000000000000
FFF000000003FFC00000000000000000000000
FFF000000003FFC00000000000000000000000
FFF000000003FFC00000000000000000000000
FFF000000003FFC00000000000000000000000
FFF000000003FFC00000000000000000000000
FFF000000003FFC00000000000000000000000
FFF000000003FFC00000000000000000000000
FFF000000003FFC00000000000000000000000
FFF000000003FFC00000000000000000000000
FFF000000003FFC00000000000000000000000
FFF000000003FFC00000000000000000000000
FFF000000003FFC00000000000000000000000
FFF000000003FFC00000000000000000000000
FFF000000003FFC00000000000000000000000
FFF800000007FFC00000000000000000000000
FFF800000007FFC00000000000000000000000
7FF800000007FF800000000000000000000000
7FFC0000000FFF800000000000000000000000
7FFC0000000FFF800000000000000000000000
7FFE0000001FFF800000000000000000000000
3FFF0000003FFF000000000000000000000000
3FFF8000007FFF000000000000000000000000
1FFF800000FFFE000000000000000000000000
1FFFE00001FFFE000000000000000000000000
0FFFF00003FFFC000000000000000000000000
0FFFFC000FFFFC000000000000000000000000
07FFFF807FFFF8000000000000000000000000
03FFFFFFFFFFF0000000000000000000000000
01FFFFFFFFFFE0000000000000000000000000
01FFFFFFFFFFE0000000000000000000000000
00FFFFFFFFFFC0000000000000000000000000
007FFFFFFFFF80000000000000000000000000
001FFFFFFFFE00000000000000000000000000
000FFFFFFFFC00000000000000000000000000
0007FFFFFFF800000000000000000000000000
0001FFFFFFE000000000000000000000000000
00007FFFFF8000000000000000000000000000
00001FFFFE0000000000000000000000000000
000001FFE00000000000000000000000000000
ENDCHAR
STARTCHAR 0047
ENCODING 71
SWIDTH 669 0
DWIDTH 162 0
BBX 150 150 1 0
BITMAP
000001FFFFFFFFFFFFFFFFFFFFFFFFFE000000
00001FFFFFFFFFFFFFFFFFFFFFFFFFFFE00000
00007FFFFFFFFFFFFFFFFFFFFFFFFFFFF80000
0001FFFFFFFFFFFFFFFFFFFFFFFFFFFFFE0000
0007FFFFFFFFFFFFFFFFFFFFFFFFFFFFFF8000
000FFFFFFFFFFFFFFFFFFFFFFFFFFFFFFFC000
001FFFFFFFFFFFFFFFFFFFFFFFFFFFFFFFE000
007FFFFFFFFFFFFFFFFFFFFFFFFFFFFFFFF800
00FFFFFFFFFFFFFFFFFFFFFFFFFFFFFFFFFC00
01FFFFFFFFFFFFFFFFFFFFFFFFFFFFFFFFFE00
01FFFFFFFFFFFFFFFFFFFFFFFFFFFFFFFFFE00
03FFFFFFFFFFFFFFFFFFFFFFFFFFFFFFFFFF00
07FFFF80000000000000000000000007FFFF80
0FFFFC00000000000000000000000000FFFFC0
0FFFF0000000000000000000000000003FFFC0
1FFFE0000000000000000000000000001FFFE0
1FFFC00000000000000000000000000007FFE0
3FFF800000000000000000000000000003FFF0
3FFF000000000000000000000000000001FFF0
7FFE000000000000000000000000000001FFF0
7FFC000000000000000000000000000000FFF8
7FFC0000000000000000000000000000007FF8
7FF80000000000000000000000000000007FF8
FFF80000000000000000000000000000007FFC
FFF80000000000000000000000000000003FFC
FFF00000000000000000000000000000003FFC
FFF00000000000000000000000000000003FFC
FFF00000000000000000000000000000003FFC
FFF00000000000000000000000000000003FFC
FFF00000000000000000000000000000003FFC
FFF00000000000000000000000000000003FFC
FFF00000000000000000000000000000003FFC
FFF00000000000000000000000000000003FFC
FFF00000000000000000000000000000003FFC
FFF00000000000000000000000000000007FFC
FFF00000000000000000000000000000007FF8
FFF00000000000000000000000000000007FF8
FFF0000000000000000000000000000000FFF8
FFF0000000000000000000000000000001FFF0
FFF0000000000000000000000000000001FFF0
FFF0000000000000000000000000000003FFF0
FFF0000000000000000000000000000007FFE0
FFF000000000000000000000000000001FFFE0
FFF000000000000000000000000000003FFFC0
FFF00000000000000000000000000000FFFF80
FFF00000000000000000000000000007FFFF80
FFF000000003FFFFFFFFFFFFFFFFFFFFFFFF00
FFF000000003FFFFFFFFFFFFFFFFFFFFFFFE00
FFF000000003FFFFFFFFFFFFFFFFFFFFFFFC00
FFF000000003FFFFFFFFFFFFFFFFFFFFFFF800
FFF000000003FFFFFFFFFFFFFFFFFFFFFFF000
FFF000000003FFFFFFFFFFFFFFFFFFFFFFE000
FFF000000003FFFFFFFFFFFFFFFFFFFFFFE000
FFF000000003FFFFFFFFFFFFFFFFFFFFFFF000
FFF000000003FFFFFFFFFFFFFFFFFFFFFFF800
FFF000000003FFFFFFFFFFFFFFFFFFFFFFFC00
FFF000000003FFFFFFFFFFFFFFFFFFFFFFFE00
FFF000000003FFFFFFFFFFFFFFFFFFFFFFFF00
FFF000000003FFFFFE00000000000007FFFF80
FFF000000003FFFFF000000000000000FFFF80
FFF000000003FFFFC0000000000000003FFFC0
FFF000000003FFFF80000000000000001FFFE0
FFF000000003FFFF000000000000000007FFE0
FFF000000003FFFE000000000000000003FFF0
FFF000000003FFFC000000000000000001FFF0
FFF000000003FFF8000000000000000001FFF0
FFF000000003FFF0000000000000000000FFF8
FFF000000003FFF0000000000000000000FFF8
FFF000000003FFE00000000000000000007FF8
FFF000000003FFE00000000000000000007FF8
FFF000000003FFE00000000000000000003FFC
FFF000000003FFC00000000000000000003FFC
FFF000000003FFC00000000000000000003FFC
FFF000000003FFC00000000000000000003FFC
FFF000000003FFC00000000000000000003FFC
FFF000000003FFC00000000000000000003FFC
FFF000000003FFC00000000000000000003FFC
FFF000000003FFC00000000000000000003FFC
FFF000000003FFC00000000000000000003FFC
FFF000000003FFE00000000000000000003FFC
FFF000000003FFE00000000000000000003FFC
FFF000000003FFE00000000000000000003FFC
FFF000000003FFF00000000000000000003FFC
FFF000000003FFF00000000000000000003FFC
FFF000000003FFF80000000000000000003FFC
FFF000000003FFFC0000000000000000003FFC
FFF000000003FFFE0000000000000000003FFC
FFF000000003FFFF0000000000000000003FFC
FFF000000003FFFF8000000000000000003FFC
FFF000000003FFFFC000000000000000003FFC
FFF000000003FFFFF000000000000000003FFC
FFF000000003FFFFFE00000000000000003FFC
FFF000000003FFFFFFFFFFFFFF000000003FFC
FFF000000003FFFFFFFFFFFFFF000000003FFC
FFF000000003FFFFFFFFFFFFFF000000003FFC
FFF000000003FFFFFFFFFFFFFF000000003FFC
FFF000000003FFFFFFFFFFFFFF000000003FFC
FFF000000003FFFFFFFFFFFFFF000000003FFC
FFF000000003FFFFFFFFFFFFFF000000003FFC
FFF000000003FFFFFFFFFFFFFF000000003FFC
FFF000000003FFFFFFFFFFFFFF000000003FFC
FFF000000003FFFFFFFFFFFFFF000000003FFC
FFF000000003FFFFFFFFFFFFFF000000003FFC
FFF000000003FFFFFFFFFFFFFF000000003FFC
FFF00000000000000000000000000000003FFC
FFF00000000000000000000000000000003FFC
FFF00000000000000000000000000000003FFC
FFF00000000000000000000000000000003FFC
FFF00000000000000000000000000000003FFC
FFF00000000000000000000000000000003FFC
FFF00000000000000000000000000000003FFC
FFF00000000000000000000000000000003FFC
FFF00000000000000000000000000000003FFC
FFF00000000000000000000000000000003FFC
FFF00000000000000000000000000000003FFC
FFF00000000000000000000000000000003FFC
FFF00000000000000000000000000000003FFC
FFF00000000000000000000000000000003FFC
FFF00000000000000000000000000000003FFC
FFF00000000000000000000000000000003FFC
FFF00000000000000000000000000000003FFC
FFF00000000000000000000000000000003FFC
FFF00000000000000000000000000000003FFC
FFF00000000000000000000000000000003FFC
FFF00000000000000000000000000000003FFC
FFF80000000000000000000000000000003FFC
FFF80000000000000000000000000000007FFC
7FF80000000000000000000000000000007FF8
7FFC000000000000000000000000000000FFF8
7FFC000000000000000000000000000000FFF8
7FFE000000000000000000000000000001FFF8
3FFF000000000000000000000000000001FFF0
3FFF800000000000000000000000000003FFF0
1FFFC00000000000000000000000000007FFE0
1FFFE0000000000000000000000000001FFFE0
0FFFF0000000000000000000000000003FFFC0
0FFFFC00000000000000000000000000FFFFC0
07FFFF80000000000000000000000007FFFF80
03FFFFFFFFFFFFFFFFFFFFFFFFFFFFFFFFFF00
03FFFFFFFFFFFFFFFFFFFFFFFFFFFFFFFFFE00
01FFFFFFFFFFFFFFFFFFFFFFFFFFFFFFFFFE00
00FFFFFFFFFFFFFFFFFFFFFFFFFFFFFFFFFC00
007FFFFFFFFFFFFFFFFFFFFFFFFFFFFFFFF800
003FFFFFFFFFFFFFFFFFFFFFFFFFFFFFFFE000
000FFFFFFFFFFFFFFFFFFFFFFFFFFFFFFFC000
0007FFFFFFFFFFFFFFFFFFFFFFFFFFFFFF8000
0001FFFFFFFFFFFFFFFFFFFFFFFFFFFFFE0000
00007FFFFFFFFFFFFFFFFFFFFFFFFFFFF80000
00001FFFFFFFFFFFFFFFFFFFFFFFFFFFE00000
000001FFFFFFFFFFFFFFFFFFFFFFFFFE000000
ENDCHAR
STARTCHAR 0048
ENCODING 72
SWIDTH 669 0
DWIDTH 162 0
BBX 150 150 1 0
BITMAP
000001FFE00000000000000000001FFE000000
00000FFFFC000000000000000000FFFFC00000
00007FFFFF800000000000000007FFFFF80000
0001FFFFFFE0000000000000001FFFFFFE0000
0007FFFFFFF8000000000000007FFFFFFF8000
000FFFFFFFFC00000000000000FFFFFFFFC000
001FFFFFFFFE00000000000001FFFFFFFFE000
007FFFFFFFFF80000000000007FFFFFFFFF800
00FFFFFFFFFFC000000000000FFFFFFFFFFC00
01FFFFFFFFFFE000000000001FFFFFFFFFFE00
01FFFFFFFFFFE000000000001FFFFFFFFFFE00
03FFFFFFFFFFF000000000003FFFFFFFFFFF00
07FFFF807FFFF800000000007FFFF807FFFF80
0FFFFC000FFFFC0000000000FFFFC000FFFFC0
0FFFF00003FFFC0000000000FFFF00003FFFC0
1FFFE00001FFFE0000000001FFFE00001FFFE0
1FFFC00000FFFE0000000001FFFC00000FFFE0
3FFF8000007FFF0000000003FFF8000007FFF0
3FFF0000003FFF0000000003FFF0000003FFF0
7FFE0000001FFF8000000007FFE0000001FFF0
7FFC0000000FFF8000000007FFC0000000FFF8
7FFC0000000FFF8000000007FFC0000000FFF8
7FF800000007FF8000000007FF800000007FF8
FFF800000007FFC00000000FFF800000007FFC
FFF800000007FFC00000000FFF800000007FFC
FFF000000003FFC00000000FFF000000003FFC
FFF000000003FFC00000000FFF000000003FFC
FFF000000003FFC00000000FFF000000003FFC
FFF000000003FFC00000000FFF000000003FFC
FFF000000003FFC00000000FFF000000003FFC
FFF000000003FFC00000000FFF000000003FFC
FFF000000003FFC00000000FFF000000003FFC
FFF000000003FFC00000000FFF000000003FFC
FFF000000003FFC00000000FFF000000003FFC
FFF000000003FFC00000000FFF000000003FFC
FFF000000003FFC00000000FFF000000003FFC
FFF000000003FFC00000000FFF000000003FFC
FFF000000003FFC00000000FFF000000003FFC
FFF000000003FFC00000000FFF000000003FFC
FFF000000003FFC00000000FFF000000003FFC
FFF000000003FFC00000000FFF000000003FFC
FFF000000003FFC00000000FFF000000003FFC
FFF000000003FFC00000000FFF000000003FFC
FFF000000003FFC00000000FFF000000003FFC
FFF000000003FFC00000000FFF000000003FFC
FFF000000003FFC00000000FFF000000003FFC
FFF000000003FFFFFFFFFFFFFF000000003FFC
FFF000000003FFFFFFFFFFFFFF000000003FFC
FFF000000003FFFFFFFFFFFFFF000000003FFC
FFF000000003FFFFFFFFFFFFFF000000003FFC
FFF000000003FFFFFFFFFFFFFF000000003FFC
FFF000000003FFFFFFFFFFFFFF000000003FFC
FFF000000003FFFFFFFFFFFFFF000000003FFC
FFF000000003FFFFFFFFFFFFFF000000003FFC
FFF000000003FFFFFFFFFFFFFF000000003FFC
FFF000000003FFFFFFFFFFFFFF000000003FFC
FFF000000003FFFFFFFFFFFFFF000000003FFC
FFF000000003FFFFFFFFFFFFFF000000003FFC
FFF00000000000000000000000000000003FFC
FFF00000000000000000000000000000003FFC
FFF00000000000000000000000000000003FFC
FFF00000000000000000000000000000003FFC
FFF00000000000000000000000000000003FFC
FFF00000000000000000000000000000003FFC
FFF00000000000000000000000000000003FFC
FFF00000000000000000000000000000003FFC
FFF00000000000000000000000000000003FFC
FFF00000000000000000000000000000003FFC
FFF00000000000000000000000000000003FFC
FFF00000000000000000000000000000003FFC
FFF00000000000000000000000000000003FFC
FFF00000000000000000000000000000003FFC
FFF00000000000000000000000000000003FFC
FFF00000000000000000000000000000003FFC
FFF00000000000000000000000000000003FFC
FFF00000000000000000000000000000003FFC
FFF00000000000000000000000000000003FFC
FFF00000000000000000000000000000003FFC
FFF00000000000000000000000000000003FFC
FFF00000000000000000000000000000003FFC
FFF00000000000000000000000000000003FFC
FFF00000000000000000000000000000003FFC
FFF00000000000000000000000000000003FFC
FFF00000000000000000000000000000003FFC
FFF00000000000000000000000000000003FFC
FFF00000000000000000000000000000003FFC
FFF00000000000000000000000000000003FFC
FFF00000000000000000000000000000003FFC
FFF00000000000000000000000000000003FFC
FFF00000000000000000000000000000003FFC
FFF00000000000000000000000000000003FFC
FFF00000000000000000000000000000003FFC
FFF000000003FFFFFFFFFFFFFF000000003FFC
FFF000000003FFFFFFFFFFFFFF000000003FFC
FFF000000003FFFFFFFFFFFFFF000000003FFC
FFF000000003FFFFFFFFFFFFFF000000003FFC
FFF000000003FFFFFFFFFFFFFF000000003FFC
FFF000000003FFFFFFFFFFFFFF000000003FFC
FFF000000003FFFFFFFFFFFFFF000000003FFC
FFF000000003FFFFFFFFFFFFFF000000003FFC
FFF000000003FFFFFFFFFFFFFF000000003FFC
FFF000000003FFFFFFFFFFFFFF000000003FFC
FFF000000003FFFFFFFFFFFFFF000000003FFC
FFF000000003FFFFFFFFFFFFFF000000003FFC
FFF000000003FFC00000000FFF000000003FFC
FFF000000003FFC00000000FFF000000003FFC
FFF000000003FFC00000000FFF000000003FFC
FFF000000003FFC00000000FFF000000003FFC
FFF000000003FFC00000000FFF000000003FFC
FFF000000003FFC00000000FFF000000003FFC
FFF000000003FFC00000000FFF000000003FFC
FFF000000003FFC00000000FFF000000003FFC
FFF000000003FFC00000000FFF000000003FFC
FFF000000003FFC00000000FFF000000003FFC
FFF000000003FFC00000000FFF000000003FFC
FFF000000003FFC00000000FFF000000003FFC
FFF000000003FFC00000000FFF000000003FFC
FFF000000003FFC00000000FFF000000003FFC
FFF000000003FFC00000000FFF000000003FFC
FFF000000003FFC00000000FFF000000003FFC
FFF000000003FFC00000000FFF000000003FFC
FFF000000003FFC00000000FFF000000003FFC
FFF000000003FFC00000000FFF000000003FFC
FFF000000003FFC00000000FFF000000003FFC
FFF000000003FFC00000000FFF000000003FFC
FFF800000007FFC00000000FFF800000007FFC
FFF800000007FFC00000000FFF800000007FFC
7FF800000007FF8000000007FF800000007FF8
7FFC0000000FFF8000000007FFC0000000FFF8
7FFC0000000FFF8000000007FFC0000000FFF8
7FFE0000001FFF8000000007FFE0000001FFF8
3FFF0000003FFF0000000003FFF0000003FFF0
3FFF8000007FFF0000000003FFF8000007FFF0
1FFF800000FFFE0000000001FFFC00000FFFE0
1FFFE00001FFFE0000000001FFFE00001FFFE0
0FFFF00003FFFC0000000000FFFF00003FFFC0
0FFFFC000FFFFC0000000000FFFFC000FFFFC0
07FFFF807FFFF800000000007FFFF807FFFF80
03FFFFFFFFFFF000000000003FFFFFFFFFFF00
01FFFFFFFFFFE000000000003FFFFFFFFFFE00
01FFFFFFFFFFE000000000001FFFFFFFFFFE00
00FFFFFFFFFFC000000000000FFFFFFFFFFC00
007FFFFFFFFF80000000000007FFFFFFFFF800
001FFFFFFFFE00000000000001FFFFFFFFE000
000FFFFFFFFC00000000000000FFFFFFFFC000
0007FFFFFFF8000000000000007FFFFFFF8000
0001FFFFFFE0000000000000001FFFFFFE0000
00007FFFFF800000000000000007FFFFF80000
00001FFFFE000000000000000001FFFFE00000
000001FFE00000000000000000001FFE000000
ENDCHAR
STARTCHAR 0049
ENCODING 73
SWIDTH 289 0
DWIDTH 70 0
BBX 58 150 1 0
BITMAP
000001FFE0000000
00000FFFFC000000
00007FFFFF800000
0001FFFFFFE00000
0007FFFFFFF80000
000FFFFFFFFC0000
001FFFFFFFFE0000
007FFFFFFFFF8000
00FFFFFFFFFFC000
01FFFFFFFFFFE000
01FFFFFFFFFFE000
03FFFFFFFFFFF000
07FFFF807FFFF800
0FFFFC000FFFFC00
0FFFF00003FFFC00
1FFFE00001FFFE00
1FFFC00000FFFE00
3FFF8000007FFF00
3FFF0000003FFF00
7FFE0000001FFF00
7FFC0000000FFF80
7FFC0000000FFF80
7FF800000007FF80
FFF800000007FFC0
FFF800000007FFC0
FFF000000003FFC0
FFF000000003FFC0
FFF000000003FFC0
FFF000000003FFC0
FFF000000003FFC0
FFF000000003FFC0
FFF000000003FFC0
FFF000000003FFC0
FFF000000003FFC0
FFF000000003FFC0
FFF000000003FFC0
FFF000000003FFC0
FFF000000003FFC0
FFF000000003FFC0
FFF000000003FFC0
FFF000000003FFC0
FFF000000003FFC0
FFF000000003FFC0
FFF000000003FFC0
FFF000000003FFC0
FFF000000003FFC0
FFF000000003FFC0
FFF000000003FFC0
FFF000000003FFC0
FFF000000003FFC0
FFF000000003FFC0
FFF000000003FFC0
FFF000000003FFC0
FFF000000003FFC0
FFF000000003FFC0
FFF000000003FFC0
FFF000000003FFC0
FFF000000003FFC0
FFF000000003FFC0
FFF000000003FFC0
FFF000000003FFC0
FFF000000003FFC0
FFF000000003FFC0
FFF000000003FFC0
FFF000000003FFC0
FFF000000003FFC0
FFF000000003FFC0
FFF000000003FFC0
FFF000000003FFC0
FFF000000003FFC0
FFF000000003FFC0
FFF000000003FFC0
FFF000000003FFC0
FFF000000003FFC0
FFF000000003FFC0
FFF000000003FFC0
FFF000000003FFC0
FFF000000003FFC0
FFF000000003FFC0
FFF000000003FFC0
FFF000000003FFC0
FFF000000003FFC0
FFF000000003FFC0
FFF000000003FFC0
FFF000000003FFC0
FFF000000003FFC0
FFF000000003FFC0
FFF000000003FFC0
FFF000000003FFC0
FFF000000003FFC0
FFF000000003FFC0
FFF000000003FFC0
FFF000000003FFC0
FFF000000003FFC0
FFF000000003FFC0
FFF000000003FFC0
FFF000000003FFC0
FFF000000003FFC0
FFF000000003FFC0
FFF000000003FFC0
FFF000000003FFC0
FFF000000003FFC0
FFF000000003FFC0
FFF000000003FFC0
FFF000000003FFC0
FFF000000003FFC0
FFF000000003FFC0
FFF000000003FFC0
FFF000000003FFC0
FFF000000003FFC0
FFF000000003FFC0
FFF000000003FFC0
FFF000000003FFC0
FFF000000003FFC0
FFF000000003FFC0
FFF000000003FFC0
FFF000000003FFC0
FFF000000003FFC0
FFF000000003FFC0
FFF000000003FFC0
FFF000000003FFC0
FFF000000003FFC0
FFF000000003FFC0
FFF000000003FFC0
FFF000000003FFC0
FFF800000007FFC0
FFF800000007FFC0
7FF800000007FF80
7FFC0000000FFF80
7FFC0000000FFF80
7FFE0000001FFF80
3FFF0000003FFF00
3FFF8000007FFF00
1FFF800000FFFE00
1FFFE00001FFFE00
0FFFF00003FFFC00
0FFFFC000FFFFC00
07FFFF807FFFF800
03FFFFFFFFFFF000
01FFFFFFFFFFE000
01FFFFFFFFFFE000
00FFFFFFFFFFC000
007FFFFFFFFF8000
001FFFFFFFFE0000
000FFFFFFFFC0000
0007FFFFFFF80000
0001FFFFFFE00000
00007FFFFF800000
00001FFFFE000000
000001FFE0000000
ENDCHAR
STARTCHAR 004A
ENCODING 74
SWIDTH 669 0
DWIDTH 162 0
BBX 150 150 1 0
BITMAP
00000000000000000000000000001FFE000000
0000000000000000000000000000FFFFC00000
0000000000000000000000000007FFFFF80000
000000000000000000000000001FFFFFFE0000
000000000000000000000000007FFFFFFF8000
00000000000000000000000000FFFFFFFFC000
00000000000000000000000001FFFFFFFFE000
00000000000000000000000007FFFFFFFFF800
0000000000000000000000000FFFFFFFFFFC00
0000000000000000000000001FFFFFFFFFFE00
0000000000000000000000001FFFFFFFFFFE00
0000000000000000000000003FFFFFFFFFFF00
0000000000000000000000007FFFF807FFFF80
000000000000000000000000FFFFC000FFFFC0
000000000000000000000000FFFF00003FFFC0
000000000000000000000001FFFE00001FFFE0
000000000000000000000001FFFC00000FFFE0
000000000000000000000003FFF8000007FFF0
000000000000000000000003FFF0000003FFF0
000000000000000000000007FFE0000001FFF0
000000000000000000000007FFC0000000FFF8
000000000000000000000007FFC0000000FFF8
000000000000000000000007FF800000007FF8
00000000000000000000000FFF800000007FFC
00000000000000000000000FFF800000007FFC
00000000000000000000000FFF000000003FFC
00000000000000000000000FFF000000003FFC
00000000000000000000000FFF000000003FFC
00000000000000000000000FFF000000003FFC
00000000000000000000000FFF000000003FFC
00000000000000000000000FFF000000003FFC
00000000000000000000000FFF000000003FFC
00000000000000000000000FFF000000003FFC
00000000000000000000000FFF000000003FFC
00000000000000000000000FFF000000003FFC
00000000000000000000000FFF000000003FFC
00000000000000000000000FFF000000003FFC
00000000000000000000000FFF000000003FFC
00000000000000000000000FFF000000003FFC
00000000000000000000000FFF000000003FFC
00000000000000000000000FFF000000003FFC
00000000000000000000000FFF000000003FFC
00000000000000000000000FFF000000003FFC
00000000000000000000000FFF000000003FFC
00000000000000000000000FFF000000003FFC
00000000000000000000000FFF000000003FFC
00000000000000000000000FFF000000003FFC
00000000000000000000000FFF000000003FFC
00000000000000000000000FFF000000003FFC
00000000000000000000000FFF000000003FFC
00000000000000000000000FFF000000003FFC
00000000000000000000000FFF000000003FFC
00000000000000000000000FFF000000003FFC
00000000000000000000000FFF000000003FFC
00000000000000000000000FFF000000003FFC
00000000000000000000000FFF000000003FFC
00000000000000000000000FFF000000003FFC
00000000000000000000000FFF000000003FFC
00000000000000000000000FFF000000003FFC
00000000000000000000000FFF000000003FFC
00000000000000000000000FFF000000003FFC
00000000000000000000000FFF000000003FFC
00000000000000000000000FFF000000003FFC
00000000000000000000000FFF000000003FFC
00000000000000000000000FFF000000003FFC
00000000000000000000000FFF000000003FFC
00000000000000000000000FFF000000003FFC
00000000000000000000000FFF000000003FFC
00000000000000000000000FFF000000003FFC
00000000000000000000000FFF000000003FFC
00000000000000000000000FFF000000003FFC
00000000000000000000000FFF000000003FFC
00000000000000000000000FFF000000003FFC
00000000000000000000000FFF000000003FFC
00000000000000000000000FFF000000003FFC
00000000000000000000000FFF000000003FFC
00000000000000000000000FFF000000003FFC
00000000000000000000000FFF000000003FFC
00000000000000000000000FFF000000003FFC
00000000000000000000000FFF000000003FFC
00000000000000000000000FFF000000003FFC
00000000000000000000000FFF000000003FFC
00000000000000000000000FFF000000003FFC
00000000000000000000000FFF000000003FFC
00000000000000000000000FFF000000003FFC
00000000000000000000000FFF000000003FFC
00000000000000000000000FFF000000003FFC
00000000000000000000000FFF000000003FFC
00000000000000000000000FFF000000003FFC
00000000000000000000000FFF000000003FFC
00000000000000000000000FFF000000003FFC
00000000000000000000000FFF000000003FFC
000001FFFFFFFFFFFFFFFFFFFF000000003FFC
00001FFFFFFFFFFFFFFFFFFFFF000000003FFC
00007FFFFFFFFFFFFFFFFFFFFF000000003FFC
0001FFFFFFFFFFFFFFFFFFFFFF000000003FFC
0007FFFFFFFFFFFFFFFFFFFFFF000000003FFC
000FFFFFFFFFFFFFFFFFFFFFFF000000003FFC
001FFFFFFFFFFFFFFFFFFFFFFF000000003FFC
007FFFFFFFFFFFFFFFFFFFFFFF000000003FFC
00FFFFFFFFFFFFFFFFFFFFFFFF000000003FFC
01FFFFFFFFFFFFFFFFFFFFFFFF000000003FFC
01FFFFFFFFFFFFFFFFFFFFFFFF000000003FFC
03FFFFFFFFFFFFFFFFFFFFFFFF000000003FFC
07FFFF80000000000000000000000000003FFC
0FFFFC00000000000000000000000000003FFC
0FFFF000000000000000000000000000003FFC
1FFFE000000000000000000000000000003FFC
1FFFC000000000000000000000000000003FFC
3FFF8000000000000000000000000000003FFC
3FFF0000000000000000000000000000003FFC
7FFE0000000000000000000000000000003FFC
7FFC0000000000000000000000000000003FFC
7FFC0000000000000000000000000000003FFC
7FF80000000000000000000000000000003FFC
FFF80000000000000000000000000000003FFC
FFF80000000000000000000000000000003FFC
FFF00000000000000000000000000000003FFC
FFF00000000000000000000000000000003FFC
FFF00000000000000000000000000000003FFC
FFF00000000000000000000000000000003FFC
FFF00000000000000000000000000000003FFC
FFF00000000000000000000000000000003FFC
FFF00000000000000000000000000000003FFC
FFF00000000000000000000000000000003FFC
FFF80000000000000000000000000000007FFC
FFF80000000000000000000000000000007FFC
7FF80000000000000000000000000000007FF8
7FFC000000000000000000000000000000FFF8
7FFC000000000000000000000000000000FFF8
7FFE000000000000000000000000000001FFF8
3FFF000000000000000000000000000003FFF0
3FFF000000000000000000000000000007FFF0
1FFFC0000000000000000000000000000FFFE0
1FFFE0000000000000000000000000001FFFE0
0FFFF0000000000000000000000000003FFFC0
0FFFFC00000000000000000000000000FFFFC0
07FFFF80000000000000000000000007FFFF80
03FFFFFFFFFFFFFFFFFFFFFFFFFFFFFFFFFF00
01FFFFFFFFFFFFFFFFFFFFFFFFFFFFFFFFFE00
01FFFFFFFFFFFFFFFFFFFFFFFFFFFFFFFFFE00
00FFFFFFFFFFFFFFFFFFFFFFFFFFFFFFFFFC00
007FFFFFFFFFFFFFFFFFFFFFFFFFFFFFFFF800
001FFFFFFFFFFFFFFFFFFFFFFFFFFFFFFFE000
000FFFFFFFFFFFFFFFFFFFFFFFFFFFFFFFC000
0007FFFFFFFFFFFFFFFFFFFFFFFFFFFFFF8000
0001FFFFFFFFFFFFFFFFFFFFFFFFFFFFFE0000
00007FFFFFFFFFFFFFFFFFFFFFFFFFFFF80000
00001FFFFFFFFFFFFFFFFFFFFFFFFFFFE00000
000001FFFFFFFFFFFFFFFFFFFFFFFFFE000000
ENDCHAR
STARTCHAR 004B
ENCODING 75
SWIDTH 669 0
DWIDTH 162 0
BBX 150 150 1 0
BITMAP
000001FFC000000007FFFFFFFFFFFFFE000000
00001FFFFC0000007FFFFFFFFFFFFFFFE00000
00007FFFFF800001FFFFFFFFFFFFFFFFF80000
0001FFFFFFE00007FFFFFFFFFFFFFFFFFE0000
0007FFFFFFF0001FFFFFFFFFFFFFFFFFFF8000
000FFFFFFFFC003FFFFFFFFFFFFFFFFFFFC000
001FFFFFFFFE007FFFFFFFFFFFFFFFFFFFE000
007FFFFFFFFF00FFFFFFFFFFFFFFFFFFFFF800
00FFFFFFFFFF81FFFFFFFFFFFFFFFFFFFFFC00
01FFFFFFFFFFC3FFFFFFFFFFFFFFFFFFFFFE00
01FFFFFFFFFFE7FFFFFFFFFFFFFFFFFFFFFE00
03FFFFFFFFFFFFFFFFFFFFFFFFFFFFFFFFFF00
07FFFF003FFFFFFFFC00000000000003FFFF80
0FFFF80007FFFFFFF0000000000000007FFFC0
0FFFF00003FFFFFFC0000000000000001FFFC0
1FFFC00000FFFFFF80000000000000000FFFE0
1FFF8000007FFFFE000000000000000007FFE0
3FFF0000003FFFFC000000000000000003FFF0
3FFE0000003FFFFC000000000000000001FFF0
7FFE0000001FFFF8000000000000000001FFF0
7FFC0000000FFFF0000000000000000000FFF8
7FFC0000000FFFF00000000000000000007FF8
7FF800000007FFE00000000000000000007FF8
FFF800000007FFE00000000000000000007FFC
FFF800000007FFE00000000000000000003FFC
FFF000000003FFC00000000000000000003FFC
FFF000000003FFC00000000000000000003FFC
FFF000000003FFC00000000000000000003FFC
FFF000000003FFC00000000000000000003FFC
FFF000000003FFC00000000000000000003FFC
FFF000000003FFC00000000000000000003FFC
FFF000000003FFC00000000000000000003FFC
FFF000000003FFC00000000000000000003FFC
FFF000000003FFC00000000000000000003FFC
FFF000000003FFC00000000000000000007FF8
FFF000000003FFC00000000000000000007FF8
FFF000000003FFC0000000000000000000FFF8
FFF000000003FFC0000000000000000000FFF8
FFF000000003FFC0000000000000000001FFF0
FFF000000003FFC0000000000000000003FFF0
FFF000000003FFC0000000000000000003FFF0
FFF000000003FFC0000000000000000007FFE0
FFF000000003FFC000000000000000001FFFE0
FFF000000003FFC000000000000000003FFFC0
FFF000000003FFC00000000000000000FFFF80
FFF000000003FFC00000000000000007FFFF80
FFF000000003FFC00000000FFFFFFFFFFFFF00
FFF000000003FFC00000000FFFFFFFFFFFFE00
FFF000000003FFC00000000FFFFFFFFFFFFC00
FFF000000003FFC00000000FFFFFFFFFFFF800
FFF000000003FFC00000000FFFFFFFFFFFF000
FFF000000003FFC00000000FFFFFFFFFFFE000
FFF000000003FFC00000000FFFFFFFFFFFE000
FFF000000003FFC00000000FFFFFFFFFFFF000
FFF000000003FFC00000000FFFFFFFFFFFF800
FFF000000003FFC00000000FFFFFFFFFFFFC00
FFF000000003FFC00000000FFFFFFFFFFFFE00
FFF000000003FFC00000000FFFFFFFFFFFFF00
FFF00000000000000000000000000007FFFF80
FFF00000000000000000000000000000FFFF80
FFF000000000000000000000000000003FFFC0
FFF000000000000000000000000000001FFFE0
FFF0000000000000000000000000000007FFE0
FFF0000000000000000000000000000003FFF0
FFF0000000000000000000000000000003FFF0
FFF0000000000000000000000000000001FFF0
FFF0000000000000000000000000000000FFF8
FFF0000000000000000000000000000000FFF8
FFF00000000000000000000000000000007FF8
FFF00000000000000000000000000000007FF8
FFF00000000000000000000000000000003FFC
FFF00000000000000000000000000000003FFC
FFF00000000000000000000000000000003FFC
FFF00000000000000000000000000000003FFC
FFF00000000000000000000000000000003FFC
FFF00000000000000000000000000000003FFC
FFF00000000000000000000000000000003FFC
FFF00000000000000000000000000000003FFC
FFF00000000000000000000000000000003FFC
FFF00000000000000000000000000000003FFC
FFF00000000000000000000000000000003FFC
FFF00000000000000000000000000000003FFC
FFF00000000000000000000000000000003FFC
FFF00000000000000000000000000000003FFC
FFF00000000000000000000000000000003FFC
FFF00000000000000000000000000000003FFC
FFF00000000000000000000000000000003FFC
FFF00000000000000000000000000000003FFC
FFF00000000000000000000000000000003FFC
FFF00000000000000000000000000000003FFC
FFF00000000000000000000000000000003FFC
FFF00000000000000000000000000000003FFC
FFF000000003FFFFFFFFFFFFFF000000003FFC
FFF000000003FFFFFFFFFFFFFF000000003FFC
FFF000000003FFFFFFFFFFFFFF000000003FFC
FFF000000003FFFFFFFFFFFFFF000000003FFC
FFF000000003FFFFFFFFFFFFFF000000003FFC
FFF000000003FFFFFFFFFFFFFF000000003FFC
FFF000000003FFFFFFFFFFFFFF000000003FFC
FFF000000003FFFFFFFFFFFFFF000000003FFC
FFF000000003FFFFFFFFFFFFFF000000003FFC
FFF000000003FFFFFFFFFFFFFF000000003FFC
FFF000000003FFFFFFFFFFFFFF000000003FFC
FFF000000003FFFFFFFFFFFFFF000000003FFC
FFF000000003FFC00000000FFF000000003FFC
FFF000000003FFC00000000FFF000000003FFC
FFF000000003FFC00000000FFF000000003FFC
FFF000000003FFC00000000FFF000000003FFC
FFF000000003FFC00000000FFF000000003FFC
FFF000000003FFC00000000FFF000000003FFC
FFF000000003FFC00000000FFF000000003FFC
FFF000000003FFC00000000FFF000000003FFC
FFF000000003FFC00000000FFF000000003FFC
FFF000000003FFC00000000FFF000000003FFC
FFF000000003FFC00000000FFF000000003FFC
FFF000000003FFC00000000FFF000000003FFC
FFF000000003FFC00000000FFF000000003FFC
FFF000000003FFC00000000FFF000000003FFC
FFF000000003FFC00000000FFF000000003FFC
FFF000000003FFC00000000FFF000000003FFC
FFF000000003FFC00000000FFF000000003FFC
FFF000000003FFC00000000FFF000000003FFC
FFF000000003FFC00000000FFF000000003FFC
FFF000000003FFC00000000FFF000000003FFC
FFF000000003FFC00000000FFF000000003FFC
FFF800000007FFC00000000FFF800000003FFC
FFF800000007FFC00000000FFF800000007FFC
7FF800000007FF8000000007FF800000007FF8
7FFC0000000FFF8000000007FFC00000007FF8
7FFC0000000FFF8000000007FFC0000000FFF8
7FFE0000001FFF8000000007FFE0000001FFF8
3FFF0000003FFF0000000003FFF0000001FFF0
3FFF8000007FFF0000000003FFF8000003FFF0
1FFFC00000FFFE0000000001FFFC000007FFE0
1FFFE00001FFFE0000000001FFFE00000FFFE0
0FFFF00003FFFC0000000000FFFF00003FFFC0
0FFFFC000FFFFC0000000000FFFFC000FFFFC0
07FFFF807FFFF800000000007FFFF807FFFF80
03FFFFFFFFFFF000000000003FFFFFFFFFFF00
01FFFFFFFFFFE000000000003FFFFFFFFFFE00
01FFFFFFFFFFE000000000001FFFFFFFFFFE00
00FFFFFFFFFFC000000000000FFFFFFFFFFC00
007FFFFFFFFF80000000000007FFFFFFFFF800
001FFFFFFFFE00000000000001FFFFFFFFE000
000FFFFFFFFC00000000000000FFFFFFFFC000
0007FFFFFFF8000000000000007FFFFFFF8000
0001FFFFFFE0000000000000001FFFFFFE0000
00007FFFFF800000000000000007FFFFF80000
00001FFFFE000000000000000001FFFFE00000
000001FFE00000000000000000001FFE000000
ENDCHAR
STARTCHAR 004C
ENCODING 76
SWIDTH 669 0
DWIDTH 162 0
BBX 150 150 1 0
BITMAP
000001FFE00000000000000000000000000000
00000FFFFC0000000000000000000000000000
00007FFFFF8000000000000000000000000000
0001FFFFFFE000000000000000000000000000
0007FFFFFFF800000000000000000000000000
000FFFFFFFFC00000000000000000000000000
001FFFFFFFFE00000000000000000000000000
007FFFFFFFFF80000000000000000000000000
00FFFFFFFFFFC0000000000000000000000000
01FFFFFFFFFFE0000000000000000000000000
01FFFFFFFFFFE0000000000000000000000000
03FFFFFFFFFFF0000000000000000000000000
07FFFF807FFFF8000000000000000000000000
0FFFFC000FFFFC000000000000000000000000
0FFFF00003FFFC000000000000000000000000
1FFFE00001FFFE000000000000000000000000
1FFFC00000FFFE000000000000000000000000
3FFF8000007FFF000000000000000000000000
3FFF0000003FFF000000000000000000000000
7FFE0000001FFF800000000000000000000000
7FFC0000000FFF800000000000000000000000
7FFC0000000FFF800000000000000000000000
7FF800000007FF800000000000000000000000
FFF800000007FFC00000000000000000000000
FFF800000007FFC00000000000000000000000
FFF000000003FFC00000000000000000000000
FFF000000003FFC00000000000000000000000
FFF000000003FFC00000000000000000000000
FFF000000003FFC00000000000000000000000
FFF000000003FFC00000000000000000000000
FFF000000003FFC00000000000000000000000
FFF000000003FFC00000000000000000000000
FFF000000003FFC00000000000000000000000
FFF000000003FFC00000000000000000000000
FFF000000003FFC00000000000000000000000
FFF000000003FFC00000000000000000000000
FFF000000003FFC00000000000000000000000
FFF000000003FFC00000000000000000000000
FFF000000003FFC00000000000000000000000
FFF000000003FFC00000000000000000000000
FFF000000003FFC00000000000000000000000
FFF000000003FFC00000000000000000000000
FFF000000003FFC00000000000000000000000
FFF000000003FFC00000000000000000000000
FFF000000003FFC00000000000000000000000
FFF000000003FFC00000000000000000000000
FFF000000003FFC00000000000000000000000
FFF000000003FFC00000000000000000000000
FFF000000003FFC00000000000000000000000
FFF000000003FFC00000000000000000000000
FFF000000003FFC00000000000000000000000
FFF000000003FFC00000000000000000000000
FFF000000003FFC00000000000000000000000
FFF000000003FFC00000000000000000000000
FFF000000003FFC00000000000000000000000
FFF000000003FFC00000000000000000000000
FFF000000003FFC00000000000000000000000
FFF000000003FFC00000000000000000000000
FFF000000003FFC00000000000000000000000
FFF000000003FFC00000000000000000000000
FFF000000003FFC00000000000000000000000
FFF000000003FFC00000000000000000000000
FFF000000003FFC00000000000000000000000
FFF000000003FFC00000000000000000000000
FFF000000003FFC00000000000000000000000
FFF000000003FFC00000000000000000000000
FFF000000003FFC00000000000000000000000
FFF000000003FFC00000000000000000000000
FFF000000003FFC00000000000000000000000
FFF000000003FFC00000000000000000000000
FFF000000003FFC00000000000000000000000
FFF000000003FFC00000000000000000000000
FFF000000003FFC00000000000000000000000
FFF000000003FFC00000000000000000000000
FFF000000003FFC00000000000000000000000
FFF000000003FFC00000000000000000000000
FFF000000003FFC00000000000000000000000
FFF000000003FFC00000000000000000000000
FFF000000003FFC00000000000000000000000
FFF000000003FFC00000000000000000000000
FFF000000003FFC00000000000000000000000
FFF000000003FFC00000000000000000000000
FFF000000003FFC00000000000000000000000
FFF000000003FFC00000000000000000000000
FFF000000003FFC00000000000000000000000
FFF000000003FFC00000000000000000000000
FFF000000003FFC00000000000000000000000
FFF000000003FFC00000000000000000000000
FFF000000003FFC00000000000000000000000
FFF000000003FFC00000000000000000000000
FFF000000003FFC00000000000000000000000
FFF000000003FFC00000000000000000000000
FFF000000003FFFFFFFFFFFFFFFFFFFE000000
FFF000000003FFFFFFFFFFFFFFFFFFFFE00000
FFF000000003FFFFFFFFFFFFFFFFFFFFF80000
FFF000000003FFFFFFFFFFFFFFFFFFFFFE0000
FFF000000003FFFFFFFFFFFFFFFFFFFFFF8000
FFF000000003FFFFFFFFFFFFFFFFFFFFFFC000
FFF000000003FFFFFFFFFFFFFFFFFFFFFFE000
FFF000000003FFFFFFFFFFFFFFFFFFFFFFF800
FFF000000003FFFFFFFFFFFFFFFFFFFFFFFC00
FFF000000003FFFFFFFFFFFFFFFFFFFFFFFE00
FFF000000003FFFFFFFFFFFFFFFFFFFFFFFE00
FFF000000003FFFFFFFFFFFFFFFFFFFFFFFF00
FFF00000000000000000000000000007FFFF80
FFF00000000000000000000000000000FFFFC0
FFF000000000000000000000000000003FFFC0
FFF000000000000000000000000000001FFFE0
FFF000000000000000000000000000000FFFE0
FFF0000000000000000000000000000007FFF0
FFF0000000000000000000000000000003FFF0
FFF0000000000000000000000000000001FFF0
FFF0000000000000000000000000000000FFF8
FFF0000000000000000000000000000000FFF8
FFF00000000000000000000000000000007FF8
FFF00000000000000000000000000000007FFC
FFF00000000000000000000000000000007FFC
FFF00000000000000000000000000000003FFC
FFF00000000000000000000000000000003FFC
FFF00000000000000000000000000000003FFC
FFF00000000000000000000000000000003FFC
FFF00000000000000000000000000000003FFC
FFF00000000000000000000000000000003FFC
FFF00000000000000000000000000000003FFC
FFF00000000000000000000000000000003FFC
FFF80000000000000000000000000000007FFC
FFF80000000000000000000000000000007FFC
7FF80000000000000000000000000000007FF8
7FFC000000000000000000000000000000FFF8
7FFC000000000000000000000000000000FFF8
7FFE000000000000000000000000000001FFF0
3FFF000000000000000000000000000003FFF0
3FFF800000000000000000000000000007FFF0
1FFFC0000000000000000000000000000FFFE0
1FFFE0000000000000000000000000001FFFE0
0FFFF0000000000000000000000000003FFFC0
0FFFFC00000000000000000000000000FFFFC0
07FFFF80000000000000000000000007FFFF80
03FFFFFFFFFFFFFFFFFFFFFFFFFFFFFFFFFF00
03FFFFFFFFFFFFFFFFFFFFFFFFFFFFFFFFFE00
01FFFFFFFFFFFFFFFFFFFFFFFFFFFFFFFFFE00
00FFFFFFFFFFFFFFFFFFFFFFFFFFFFFFFFFC00
007FFFFFFFFFFFFFFFFFFFFFFFFFFFFFFFF800
003FFFFFFFFFFFFFFFFFFFFFFFFFFFFFFFE000
000FFFFFFFFFFFFFFFFFFFFFFFFFFFFFFFC000
0007FFFFFFFFFFFFFFFFFFFFFFFFFFFFFF8000
0001FFFFFFFFFFFFFFFFFFFFFFFFFFFFFE0000
00007FFFFFFFFFFFFFFFFFFFFFFFFFFFF80000
00001FFFFFFFFFFFFFFFFFFFFFFFFFFFE00000
000001FFFFFFFFFFFFFFFFFFFFFFFFFE000000
ENDCHAR
STARTCHAR 004D
ENCODING 77
SWIDTH 669 0
DWIDTH 162 0
BBX 150 150 1 0
BITMAP
000001FFC000000007FF800000001FFE000000
00001FFFFC0000007FFFF0000000FFFFE00000
00007FFFFF800001FFFFFE000007FFFFF80000
0001FFFFFFE00007FFFFFF80001FFFFFFE0000
0007FFFFFFF0001FFFFFFFE0007FFFFFFF8000
000FFFFFFFFC003FFFFFFFF000FFFFFFFFC000
001FFFFFFFFE007FFFFFFFF801FFFFFFFFE000
007FFFFFFFFF00FFFFFFFFFC03FFFFFFFFF800
00FFFFFFFFFF81FFFFFFFFFE07FFFFFFFFFC00
01FFFFFFFFFFC3FFFFFFFFFF0FFFFFFFFFFE00
01FFFFFFFFFFE7FFFFFFFFFF9FFFFFFFFFFE00
03FFFFFFFFFFFFFFFFFFFFFFFFFFFFFFFFFF00
07FFFF807FFFFFFFFE01FFFFFFFFF807FFFF80
0FFFFC000FFFFFFFF0003FFFFFFFC000FFFFC0
0FFFF00003FFFFFFC0000FFFFFFF00003FFFC0
1FFFE00001FFFFFF800007FFFFFE00001FFFE0
1FFFC00000FFFFFF000003FFFFFC00000FFFE0
3FFF8000007FFFFE000001FFFFF8000007FFF0
3FFF0000003FFFFC000000FFFFF0000003FFF0
7FFE0000001FFFF80000007FFFE0000001FFF0
7FFC0000000FFFF00000003FFFC0000000FFF8
7FFC0000000FFFF00000003FFFC0000000FFF8
7FF800000007FFE00000001FFF800000007FF8
FFF800000007FFE00000001FFF800000007FFC
FFF800000007FFE00000001FFF800000007FFC
FFF000000003FFC00000000FFF000000003FFC
FFF000000003FFC00000000FFF000000003FFC
FFF000000003FFC00000000FFF000000003FFC
FFF000000003FFC00000000FFF000000003FFC
FFF000000003FFC00000000FFF000000003FFC
FFF000000003FFC00000000FFF000000003FFC
FFF000000003FFC00000000FFF000000003FFC
FFF000000003FFC00000000FFF000000003FFC
FFF000000003FFC00000000FFF000000003FFC
FFF000000003FFC00000000FFF000000003FFC
FFF000000003FFC00000000FFF000000003FFC
FFF000000003FFC00000000FFF000000003FFC
FFF000000003FFC00000000FFF000000003FFC
FFF000000003FFC00000000FFF000000003FFC
FFF000000003FFC00000000FFF000000003FFC
FFF000000003FFC00000000FFF000000003FFC
FFF000000003FFC00000000FFF000000003FFC
FFF000000003FFC00000000FFF000000003FFC
FFF000000003FFC00000000FFF000000003FFC
FFF000000003FFC00000000FFF000000003FFC
FFF000000003FFC00000000FFF000000003FFC
FFF000000003FFC00000000FFF000000003FFC
FFF000000003FFC00000000FFF000000003FFC
FFF000000003FFC00000000FFF000000003FFC
FFF000000003FFC00000000FFF000000003FFC
FFF000000003FFC00000000FFF000000003FFC
FFF000000003FFC00000000FFF000000003FFC
FFF000000003FFC00000000FFF000000003FFC
FFF000000003FFC00000000FFF000000003FFC
FFF000000003FFC00000000FFF000000003FFC
FFF000000003FFC00000000FFF000000003FFC
FFF000000003FFC00000000FFF000000003FFC
FFF000000003FFC00000000FFF000000003FFC
FFF000000003FFC00000000FFF000000003FFC
FFF000000003FFC00000000FFF000000003FFC
FFF000000003FFC00000000FFF000000003FFC
FFF000000003FFC00000000FFF000000003FFC
FFF000000003FFC00000000FFF000000003FFC
FFF000000003FFC00000000FFF000000003FFC
FFF000000003FFC00000000FFF000000003FFC
FFF000000003FFC00000000FFF000000003FFC
FFF000000003FFC00000000FFF000000003FFC
FFF000000003FFC00000000FFF000000003FFC
FFF000000003FFC00000000FFF000000003FFC
FFF000000003FFC00000000FFF000000003FFC
FFF000000003FFC00000000FFF000000003FFC
FFF000000003FFC00000000FFF000000003FFC
FFF000000003FFC00000000FFF000000003FFC
FFF000000003FFC00000000FFF000000003FFC
FFF000000003FFC00000000FFF000000003FFC
FFF000000003FFC00000000FFF000000003FFC
FFF000000003FFC00000000FFF000000003FFC
FFF000000003FFC00000000FFF000000003FFC
FFF000000003FFC00000000FFF000000003FFC
FFF000000003FFC00000000FFF000000003FFC
FFF000000003FFC00000000FFF000000003FFC
FFF000000003FFC00000000FFF000000003FFC
FFF000000003FFC00000000FFF000000003FFC
FFF000000003FFC00000000FFF000000003FFC
FFF000000003FFC00000000FFF000000003FFC
FFF000000003FFC00000000FFF000000003FFC
FFF000000003FFC00000000FFF000000003FFC
FFF000000003FFC00000000FFF000000003FFC
FFF000000003FFC00000000FFF000000003FFC
FFF000000003FFC00000000FFF000000003FFC
FFF000000003FFC00000000FFF000000003FFC
FFF000000003FFC00000000FFF000000003FFC
FFF000000003FFC00000000FFF000000003FFC
FFF000000003FFC00000000FFF000000003FFC
FFF000000003FFC00000000FFF000000003FFC
FFF000000003FFC00000000FFF000000003FFC
FFF000000003FFC00000000FFF000000003FFC
FFF000000003FFC00000000FFF000000003FFC
FFF000000003FFC00000000FFF000000003FFC
FFF000000003FFC00000000FFF000000003FFC
FFF000000003FFC00000000FFF000000003FFC
FFF000000003FFC00000000FFF000000003FFC
FFF000000003FFC00000000FFF000000003FFC
FFF000000003FFC00000000FFF000000003FFC
FFF000000003FFC00000000FFF000000003FFC
FFF000000003FFC00000000FFF000000003FFC
FFF000000003FFC00000000FFF000000003FFC
FFF000000003FFC00000000FFF000000003FFC
FFF000000003FFC00000000FFF000000003FFC
FFF000000003FFC00000000FFF000000003FFC
FFF000000003FFC00000000FFF000000003FFC
FFF000000003FFC00000000FFF000000003FFC
FFF000000003FFC00000000FFF000000003FFC
FFF000000003FFC00000000FFF000000003FFC
FFF000000003FFC00000000FFF000000003FFC
FFF000000003FFC00000000FFF000000003FFC
FFF000000003FFC00000000FFF000000003FFC
FFF000000003FFC00000000FFF000000003FFC
FFF000000003FFC00000000FFF000000003FFC
FFF000000003FFC00000000FFF000000003FFC
FFF000000003FFC00000000FFF000000003FFC
FFF000000003FFC00000000FFF000000003FFC
FFF000000003FFC00000000FFF000000003FFC
FFF000000003FFC00000000FFF000000003FFC
FFF000000003FFC00000000FFF000000003FFC
FFF800000007FFE00000001FFF800000007FFC
FFF800000007FFE00000001FFF800000007FFC
7FF800000007FFE00000001FFF800000007FF8
7FFC0000000FFFF00000003FFFC0000000FFF8
7FFC0000000FFFF00000003FFFC0000000FFF8
7FFE0000001FFFF80000007FFFE0000001FFF8
3FFF0000003FFFFC000000FFFFF0000003FFF0
3FFF8000007FFFFE000001FFFFF8000007FFF0
1FFF800000FFFFFE000003FFFFF800000FFFE0
1FFFE00001FFFFFF800007FFFFFE00001FFFE0
0FFFF00003FFFFFFC0000FFFFFFF00003FFFC0
0FFFFC000FFFFFFFF0003FFFFFFFC000FFFFC0
07FFFF807FFFFFFFFE01FFFFFFFFF807FFFF80
03FFFFFFFFFFFFFFFFFFFFFFFFFFFFFFFFFF00
03FFFFFFFFFFE7FFFFFFFFFF9FFFFFFFFFFE00
01FFFFFFFFFFC3FFFFFFFFFF0FFFFFFFFFFE00
00FFFFFFFFFF83FFFFFFFFFE07FFFFFFFFFC00
007FFFFFFFFF01FFFFFFFFFC03FFFFFFFFF800
003FFFFFFFFE007FFFFFFFF801FFFFFFFFE000
000FFFFFFFFC003FFFFFFFF000FFFFFFFFC000
0007FFFFFFF8001FFFFFFFE0007FFFFFFF8000
0001FFFFFFE00007FFFFFF80001FFFFFFE0000
00007FFFFF800001FFFFFE000007FFFFF80000
00001FFFFC0000007FFFF8000001FFFFE00000
000001FFC000000007FF800000001FFE000000
ENDCHAR
STARTCHAR 004E
ENCODING 78
SWIDTH 669 0
DWIDTH 162 0
BBX 150 150 1 0
BITMAP
000001FFFFFFFFFFFFFFFFFFFFFFFFFE000000
00001FFFFFFFFFFFFFFFFFFFFFFFFFFFE00000
00007FFFFFFFFFFFFFFFFFFFFFFFFFFFF80000
0001FFFFFFFFFFFFFFFFFFFFFFFFFFFFFE0000
0007FFFFFFFFFFFFFFFFFFFFFFFFFFFFFF8000
000FFFFFFFFFFFFFFFFFFFFFFFFFFFFFFFC000
001FFFFFFFFFFFFFFFFFFFFFFFFFFFFFFFE000
007FFFFFFFFFFFFFFFFFFFFFFFFFFFFFFFF800
00FFFFFFFFFFFFFFFFFFFFFFFFFFFFFFFFFC00
01FFFFFFFFFFFFFFFFFFFFFFFFFFFFFFFFFE00
01FFFFFFFFFFFFFFFFFFFFFFFFFFFFFFFFFE00
03FFFFFFFFFFFFFFFFFFFFFFFFFFFFFFFFFF00
07FFFF80000000000000000000000007FFFF80
0FFFFC00000000000000000000000000FFFFC0
0FFFF0000000000000000000000000003FFFC0
1FFFE0000000000000000000000000001FFFE0
1FFFC0000000000000000000000000000FFFE0
3FFF800000000000000000000000000007FFF0
3FFF000000000000000000000000000003FFF0
7FFE000000000000000000000000000001FFF0
7FFC000000000000000000000000000000FFF8
7FFC000000000000000000000000000000FFF8
7FF80000000000000000000000000000007FF8
FFF80000000000000000000000000000007FFC
FFF80000000000000000000000000000007FFC
FFF00000000000000000000000000000003FFC
FFF00000000000000000000000000000003FFC
FFF00000000000000000000000000000003FFC
FFF00000000000000000000000000000003FFC
FFF00000000000000000000000000000003FFC
FFF00000000000000000000000000000003FFC
FFF00000000000000000000000000000003FFC
FFF00000000000000000000000000000003FFC
FFF00000000000000000000000000000003FFC
FFF00000000000000000000000000000003FFC
FFF00000000000000000000000000000003FFC
FFF00000000000000000000000000000003FFC
FFF00000000000000000000000000000003FFC
FFF00000000000000000000000000000003FFC
FFF00000000000000000000000000000003FFC
FFF00000000000000000000000000000003FFC
FFF00000000000000000000000000000003FFC
FFF00000000000000000000000000000003FFC
FFF00000000000000000000000000000003FFC
FFF00000000000000000000000000000003FFC
FFF00000000000000000000000000000003FFC
FFF000000003FFFFFFFFFFFFFF000000003FFC
FFF000000003FFFFFFFFFFFFFF000000003FFC
FFF000000003FFFFFFFFFFFFFF000000003FFC
FFF000000003FFFFFFFFFFFFFF000000003FFC
FFF000000003FFFFFFFFFFFFFF000000003FFC
FFF000000003FFFFFFFFFFFFFF000000003FFC
FFF000000003FFFFFFFFFFFFFF000000003FFC
FFF000000003FFFFFFFFFFFFFF000000003FFC
FFF000000003FFFFFFFFFFFFFF000000003FFC
FFF000000003FFFFFFFFFFFFFF000000003FFC
FFF000000003FFFFFFFFFFFFFF000000003FFC
FFF000000003FFFFFFFFFFFFFF000000003FFC
FFF000000003FFC00000000FFF000000003FFC
FFF000000003FFC00000000FFF000000003FFC
FFF000000003FFC00000000FFF000000003FFC
FFF000000003FFC00000000FFF000000003FFC
FFF000000003FFC00000000FFF000000003FFC
FFF000000003FFC00000000FFF000000003FFC
FFF000000003FFC00000000FFF000000003FFC
FFF000000003FFC00000000FFF000000003FFC
FFF000000003FFC00000000FFF000000003FFC
FFF000000003FFC00000000FFF000000003FFC
FFF000000003FFC00000000FFF000000003FFC
FFF000000003FFC00000000FFF000000003FFC
FFF000000003FFC00000000FFF000000003FFC
FFF000000003FFC00000000FFF000000003FFC
FFF000000003FFC00000000FFF000000003FFC
FFF000000003FFC00000000FFF000000003FFC
FFF000000003FFC00000000FFF000000003FFC
FFF000000003FFC00000000FFF000000003FFC
FFF000000003FFC00000000FFF000000003FFC
FFF000000003FFC00000000FFF000000003FFC
FFF000000003FFC00000000FFF000000003FFC
FFF000000003FFC00000000FFF000000003FFC
FFF000000003FFC00000000FFF000000003FFC
FFF000000003FFC00000000FFF000000003FFC
FFF000000003FFC00000000FFF000000003FFC
FFF000000003FFC00000000FFF000000003FFC
FFF000000003FFC00000000FFF000000003FFC
FFF000000003FFC00000000FFF000000003FFC
FFF000000003FFC00000000FFF000000003FFC
FFF000000003FFC00000000FFF000000003FFC
FFF000000003FFC00000000FFF000000003FFC
FFF000000003FFC00000000FFF000000003FFC
FFF000000003FFC00000000FFF000000003FFC
FFF000000003FFC00000000FFF000000003FFC
FFF000000003FFC00000000FFF000000003FFC
FFF000000003FFC00000000FFF000000003FFC
FFF000000003FFC00000000FFF000000003FFC
FFF000000003FFC00000000FFF000000003FFC
FFF000000003FFC00000000FFF000000003FFC
FFF000000003FFC00000000FFF000000003FFC
FFF000000003FFC00000000FFF000000003FFC
FFF000000003FFC00000000FFF000000003FFC
FFF000000003FFC00000000FFF000000003FFC
FFF000000003FFC00000000FFF000000003FFC
FFF000000003FFC00000000FFF000000003FFC
FFF000000003FFC00000000FFF000000003FFC
FFF000000003FFC00000000FFF000000003FFC
FFF000000003FFC00000000FFF000000003FFC
FFF000000003FFC00000000FFF000000003FFC
FFF000000003FFC00000000FFF000000003FFC
FFF000000003FFC00000000FFF000000003FFC
FFF000000003FFC00000000FFF000000003FFC
FFF000000003FFC00000000FFF000000003FFC
FFF000000003FFC00000000FFF000000003FFC
FFF000000003FFC00000000FFF000000003FFC
FFF000000003FFC00000000FFF000000003FFC
FFF000000003FFC00000000FFF000000003FFC
FFF000000003FFC00000000FFF000000003FFC
FFF000000003FFC00000000FFF000000003FFC
FFF000000003FFC00000000FFF000000003FFC
FFF000000003FFC00000000FFF000000003FFC
FFF000000003FFC00000000FFF000000003FFC
FFF000000003FFC00000000FFF000000003FFC
FFF000000003FFC00000000FFF000000003FFC
FFF000000003FFC00000000FFF000000003FFC
FFF000000003FFC00000000FFF000000003FFC
FFF000000003FFC00000000FFF000000003FFC
FFF800000007FFC00000000FFF800000007FFC
FFF800000007FFC00000000FFF800000007FFC
7FF800000007FF8000000007FF800000007FF8
7FFC0000000FFF8000000007FFC0000000FFF8
7FFC0000000FFF8000000007FFC0000000FFF8
7FFE0000001FFF8000000007FFE0000001FFF8
3FFF0000003FFF0000000003FFF0000003FFF0
3FFF8000007FFF0000000003FFF8000007FFF0
1FFF800000FFFE0000000001FFFC00000FFFE0
1FFFE00001FFFE0000000001FFFE00001FFFE0
0FFFF00003FFFC0000000000FFFF00003FFFC0
0FFFFC000FFFFC0000000000FFFFC000FFFFC0
07FFFF807FFFF800000000007FFFF807FFFF80
03FFFFFFFFFFF000000000003FFFFFFFFFFF00
01FFFFFFFFFFE000000000003FFFFFFFFFFE00
01FFFFFFFFFFE000000000001FFFFFFFFFFE00
00FFFFFFFFFFC000000000000FFFFFFFFFFC00
007FFFFFFFFF80000000000007FFFFFFFFF800
001FFFFFFFFE00000000000001FFFFFFFFE000
000FFFFFFFFC00000000000000FFFFFFFFC000
0007FFFFFFF8000000000000007FFFFFFF8000
0001FFFFFFE0000000000000001FFFFFFE0000
00007FFFFF800000000000000007FFFFF80000
00001FFFFE000000000000000001FFFFE00000
000001FFE00000000000000000001FFE000000
ENDCHAR
STARTCHAR 004F
ENCODING 79
SWIDTH 669 0
DWIDTH 162 0
BBX 150 150 1 0
BITMAP
000001FFFFFFFFFFFFFFFFFFFFFFFFFE000000
00001FFFFFFFFFFFFFFFFFFFFFFFFFFFE00000
00007FFFFFFFFFFFFFFFFFFFFFFFFFFFF80000
0001FFFFFFFFFFFFFFFFFFFFFFFFFFFFFE0000
0007FFFFFFFFFFFFFFFFFFFFFFFFFFFFFF8000
000FFFFFFFFFFFFFFFFFFFFFFFFFFFFFFFC000
001FFFFFFFFFFFFFFFFFFFFFFFFFFFFFFFE000
007FFFFFFFFFFFFFFFFFFFFFFFFFFFFFFFF800
00FFFFFFFFFFFFFFFFFFFFFFFFFFFFFFFFFC00
01FFFFFFFFFFFFFFFFFFFFFFFFFFFFFFFFFE00
01FFFFFFFFFFFFFFFFFFFFFFFFFFFFFFFFFE00
03FFFFFFFFFFFFFFFFFFFFFFFFFFFFFFFFFF00
07FFFF80000000000000000000000007FFFF80
0FFFFC00000000000000000000000000FFFFC0
0FFFF0000000000000000000000000003FFFC0
1FFFE0000000000000000000000000001FFFE0
1FFFC0000000000000000000000000000FFFE0
3FFF800000000000000000000000000007FFF0
3FFF000000000000000000000000000003FFF0
7FFE000000000000000000000000000001FFF0
7FFC000000000000000000000000000000FFF8
7FFC000000000000000000000000000000FFF8
7FF80000000000000000000000000000007FF8
FFF80000000000000000000000000000007FFC
FFF80000000000000000000000000000007FFC
FFF00000000000000000000000000000003FFC
FFF00000000000000000000000000000003FFC
FFF00000000000000000000000000000003FFC
FFF00000000000000000000000000000003FFC
FFF00000000000000000000000000000003FFC
FFF00000000000000000000000000000003FFC
FFF00000000000000000000000000000003FFC
FFF00000000000000000000000000000003FFC
FFF00000000000000000000000000000003FFC
FFF00000000000000000000000000000003FFC
FFF00000000000000000000000000000003FFC
FFF00000000000000000000000000000003FFC
FFF00000000000000000000000000000003FFC
FFF00000000000000000000000000000003FFC
FFF00000000000000000000000000000003FFC
FFF00000000000000000000000000000003FFC
FFF00000000000000000000000000000003FFC
FFF00000000000000000000000000000003FFC
FFF00000000000000000000000000000003FFC
FFF00000000000000000000000000000003FFC
FFF00000000000000000000000000000003FFC
FFF000000003FFFFFFFFFFFFFF000000003FFC
FFF000000003FFFFFFFFFFFFFF000000003FFC
FFF000000003FFFFFFFFFFFFFF000000003FFC
FFF000000003FFFFFFFFFFFFFF000000003FFC
FFF000000003FFFFFFFFFFFFFF000000003FFC
FFF000000003FFFFFFFFFFFFFF000000003FFC
FFF000000003FFFFFFFFFFFFFF000000003FFC
FFF000000003FFFFFFFFFFFFFF000000003FFC
FFF000000003FFFFFFFFFFFFFF000000003FFC
FFF000000003FFFFFFFFFFFFFF000000003FFC
FFF000000003FFFFFFFFFFFFFF000000003FFC
FFF000000003FFFFFFFFFFFFFF000000003FFC
FFF000000003FFC00000000FFF000000003FFC
FFF000000003FFC00000000FFF000000003FFC
FFF000000003FFC00000000FFF000000003FFC
FFF000000003FFC00000000FFF000000003FFC
FFF000000003FFC00000000FFF000000003FFC
FFF000000003FFC00000000FFF000000003FFC
FFF000000003FFC00000000FFF000000003FFC
FFF000000003FFC00000000FFF000000003FFC
FFF000000003FFC00000000FFF000000003FFC
FFF000000003FFC00000000FFF000000003FFC
FFF000000003FFC00000000FFF000000003FFC
FFF000000003FFC00000000FFF000000003FFC
FFF000000003FFC00000000FFF000000003FFC
FFF000000003FFC00000000FFF000000003FFC
FFF000000003FFC00000000FFF000000003FFC
FFF000000003FFC00000000FFF000000003FFC
FFF000000003FFC00000000FFF000000003FFC
FFF000000003FFC00000000FFF000000003FFC
FFF000000003FFC00000000FFF000000003FFC
FFF000000003FFC00000000FFF000000003FFC
FFF000000003FFC00000000FFF000000003FFC
FFF000000003FFC00000000FFF000000003FFC
FFF000000003FFC00000000FFF000000003FFC
FFF000000003FFC00000000FFF000000003FFC
FFF000000003FFC00000000FFF000000003FFC
FFF000000003FFC00000000FFF000000003FFC
FFF000000003FFC00000000FFF000000003FFC
FFF000000003FFC00000000FFF000000003FFC
FFF000000003FFC00000000FFF000000003FFC
FFF000000003FFC00000000FFF000000003FFC
FFF000000003FFC00000000FFF000000003FFC
FFF000000003FFC00000000FFF000000003FFC
FFF000000003FFC00000000FFF000000003FFC
FFF000000003FFC00000000FFF000000003FFC
FFF000000003FFFFFFFFFFFFFF000000003FFC
FFF000000003FFFFFFFFFFFFFF000000003FFC
FFF000000003FFFFFFFFFFFFFF000000003FFC
FFF000000003FFFFFFFFFFFFFF000000003FFC
FFF000000003FFFFFFFFFFFFFF000000003FFC
FFF000000003FFFFFFFFFFFFFF000000003FFC
FFF000000003FFFFFFFFFFFFFF000000003FFC
FFF000000003FFFFFFFFFFFFFF000000003FFC
FFF000000003FFFFFFFFFFFFFF000000003FFC
FFF000000003FFFFFFFFFFFFFF000000003FFC
FFF000000003FFFFFFFFFFFFFF000000003FFC
FFF000000003FFFFFFFFFFFFFF000000003FFC
FFF00000000000000000000000000000003FFC
FFF00000000000000000000000000000003FFC
FFF00000000000000000000000000000003FFC
FFF00000000000000000000000000000003FFC
FFF00000000000000000000000000000003FFC
FFF00000000000000000000000000000003FFC
FFF00000000000000000000000000000003FFC
FFF00000000000000000000000000000003FFC
FFF00000000000000000000000000000003FFC
FFF00000000000000000000000000000003FFC
FFF00000000000000000000000000000003FFC
FFF00000000000000000000000000000003FFC
FFF00000000000000000000000000000003FFC
FFF00000000000000000000000000000003FFC
FFF00000000000000000000000000000003FFC
FFF00000000000000000000000000000003FFC
FFF00000000000000000000000000000003FFC
FFF00000000000000000000000000000003FFC
FFF00000000000000000000000000000003FFC
FFF00000000000000000000000000000003FFC
FFF00000000000000000000000000000003FFC
FFF80000000000000000000000000000007FFC
FFF80000000000000000000000000000007FFC
7FF80000000000000000000000000000007FF8
7FFC000000000000000000000000000000FFF8
7FFC000000000000000000000000000000FFF8
7FFE000000000000000000000000000001FFF8
3FFF000000000000000000000000000003FFF0
3FFF800000000000000000000000000007FFF0
1FFFC0000000000000000000000000000FFFE0
1FFFE0000000000000000000000000001FFFE0
0FFFF0000000000000000000000000003FFFC0
0FFFFC00000000000000000000000000FFFFC0
07FFFF80000000000000000000000007FFFF80
03FFFFFFFFFFFFFFFFFFFFFFFFFFFFFFFFFF00
03FFFFFFFFFFFFFFFFFFFFFFFFFFFFFFFFFE00
01FFFFFFFFFFFFFFFFFFFFFFFFFFFFFFFFFE00
00FFFFFFFFFFFFFFFFFFFFFFFFFFFFFFFFFC00
007FFFFFFFFFFFFFFFFFFFFFFFFFFFFFFFF800
003FFFFFFFFFFFFFFFFFFFFFFFFFFFFFFFE000
000FFFFFFFFFFFFFFFFFFFFFFFFFFFFFFFC000
0007FFFFFFFFFFFFFFFFFFFFFFFFFFFFFF8000
0001FFFFFFFFFFFFFFFFFFFFFFFFFFFFFE0000
00007FFFFFFFFFFFFFFFFFFFFFFFFFFFF80000
00001FFFFFFFFFFFFFFFFFFFFFFFFFFFE00000
000001FFFFFFFFFFFFFFFFFFFFFFFFFE000000
ENDCHAR
STARTCHAR 0050
ENCODING 80
SWIDTH 669 0
DWIDTH 162 0
BBX 150 150 1 0
BITMAP
000001FFFFFFFFFFFFFFFFFFFFFFFFFE000000
00001FFFFFFFFFFFFFFFFFFFFFFFFFFFE00000
00007FFFFFFFFFFFFFFFFFFFFFFFFFFFF80000
0001FFFFFFFFFFFFFFFFFFFFFFFFFFFFFE0000
0007FFFFFFFFFFFFFFFFFFFFFFFFFFFFFF8000
000FFFFFFFFFFFFFFFFFFFFFFFFFFFFFFFC000
001FFFFFFFFFFFFFFFFFFFFFFFFFFFFFFFE000
007FFFFFFFFFFFFFFFFFFFFFFFFFFFFFFFF800
00FFFFFFFFFFFFFFFFFFFFFFFFFFFFFFFFFC00
01FFFFFFFFFFFFFFFFFFFFFFFFFFFFFFFFFE00
01FFFFFFFFFFFFFFFFFFFFFFFFFFFFFFFFFE00
03FFFFFFFFFFFFFFFFFFFFFFFFFFFFFFFFFF00
07FFFF80000000000000000000000007FFFF80
0FFFFC00000000000000000000000000FFFFC0
0FFFF0000000000000000000000000003FFFC0
1FFFC0000000000000000000000000001FFFE0
1FFF80000000000000000000000000000FFFE0
3FFF000000000000000000000000000007FFF0
3FFE000000000000000000000000000003FFF0
7FFC000000000000000000000000000001FFF0
7FFC000000000000000000000000000000FFF8
7FF8000000000000000000000000000000FFF8
7FF80000000000000000000000000000007FF8
FFF00000000000000000000000000000007FFC
FFF00000000000000000000000000000007FFC
FFF00000000000000000000000000000003FFC
FFF00000000000000000000000000000003FFC
FFF00000000000000000000000000000003FFC
FFF00000000000000000000000000000003FFC
FFF00000000000000000000000000000003FFC
FFF00000000000000000000000000000003FFC
FFF00000000000000000000000000000003FFC
FFF00000000000000000000000000000003FFC
FFF00000000000000000000000000000003FFC
7FF00000000000000000000000000000003FFC
7FF80000000000000000000000000000003FFC
7FF80000000000000000000000000000003FFC
7FFC0000000000000000000000000000003FFC
3FFC0000000000000000000000000000003FFC
3FFE0000000000000000000000000000003FFC
3FFF0000000000000000000000000000003FFC
1FFF8000000000000000000000000000003FFC
1FFFC000000000000000000000000000003FFC
0FFFF000000000000000000000000000003FFC
07FFFC00000000000000000000000000003FFC
07FFFF80000000000000000000000000003FFC
03FFFFFFFFFFFFFFFFFFFFFFFF000000003FFC
01FFFFFFFFFFFFFFFFFFFFFFFF000000003FFC
00FFFFFFFFFFFFFFFFFFFFFFFF000000003FFC
007FFFFFFFFFFFFFFFFFFFFFFF000000003FFC
003FFFFFFFFFFFFFFFFFFFFFFF000000003FFC
001FFFFFFFFFFFFFFFFFFFFFFF000000003FFC
001FFFFFFFFFFFFFFFFFFFFFFF000000003FFC
003FFFFFFFFFFFFFFFFFFFFFFF000000003FFC
007FFFFFFFFFFFFFFFFFFFFFFF000000003FFC
00FFFFFFFFFFFFFFFFFFFFFFFF000000003FFC
01FFFFFFFFFFFFFFFFFFFFFFFF000000003FFC
03FFFFFFFFFFFFFFFFFFFFFFFF000000003FFC
07FFFF80000000000000000000000000003FFC
0FFFFC00000000000000000000000000003FFC
0FFFF000000000000000000000000000003FFC
1FFFC000000000000000000000000000003FFC
1FFF8000000000000000000000000000003FFC
3FFF0000000000000000000000000000003FFC
3FFE0000000000000000000000000000003FFC
7FFE0000000000000000000000000000003FFC
7FFC0000000000000000000000000000003FFC
7FF80000000000000000000000000000003FFC
7FF80000000000000000000000000000003FFC
FFF00000000000000000000000000000003FFC
FFF00000000000000000000000000000003FFC
FFF00000000000000000000000000000003FFC
FFF00000000000000000000000000000003FFC
FFF00000000000000000000000000000003FFC
FFF00000000000000000000000000000003FFC
FFF00000000000000000000000000000003FFC
FFF00000000000000000000000000000003FFC
FFF00000000000000000000000000000003FFC
FFF00000000000000000000000000000003FFC
FFF00000000000000000000000000000007FFC
FFF00000000000000000000000000000007FFC
FFF00000000000000000000000000000007FF8
FFF0000000000000000000000000000000FFF8
FFF0000000000000000000000000000000FFF8
FFF0000000000000000000000000000001FFF8
FFF0000000000000000000000000000003FFF0
FFF0000000000000000000000000000007FFF0
FFF000000000000000000000000000000FFFE0
FFF000000000000000000000000000001FFFE0
FFF000000000000000000000000000003FFFC0
FFF00000000000000000000000000000FFFFC0
FFF00000000000000000000000000007FFFF80
FFF000000003FFFFFFFFFFFFFFFFFFFFFFFF00
FFF000000003FFFFFFFFFFFFFFFFFFFFFFFE00
FFF000000003FFFFFFFFFFFFFFFFFFFFFFFE00
FFF000000003FFFFFFFFFFFFFFFFFFFFFFFC00
FFF000000003FFFFFFFFFFFFFFFFFFFFFFF800
FFF000000003FFFFFFFFFFFFFFFFFFFFFFE000
FFF000000003FFFFFFFFFFFFFFFFFFFFFFC000
FFF000000003FFFFFFFFFFFFFFFFFFFFFF8000
FFF000000003FFFFFFFFFFFFFFFFFFFFFE0000
FFF000000003FFFFFFFFFFFFFFFFFFFFF80000
FFF000000003FFFFFFFFFFFFFFFFFFFFE00000
FFF000000003FFFFFFFFFFFFFFFFFFFE000000
FFF000000003FFC00000000000000000000000
FFF000000003FFC00000000000000000000000
FFF000000003FFC00000000000000000000000
FFF000000003FFC00000000000000000000000
FFF000000003FFC00000000000000000000000
FFF000000003FFC00000000000000000000000
FFF000000003FFC00000000000000000000000
FFF000000003FFC00000000000000000000000
FFF000000003FFC00000000000000000000000
FFF000000003FFC00000000000000000000000
FFF000000003FFC00000000000000000000000
FFF000000003FFC00000000000000000000000
FFF000000003FFC00000000000000000000000
FFF000000003FFC00000000000000000000000
FFF000000003FFC00000000000000000000000
FFF000000003FFC00000000000000000000000
FFF000000003FFC00000000000000000000000
FFF000000003FFC00000000000000000000000
FFF000000003FFC00000000000000000000000
FFF000000003FFC00000000000000000000000
FFF000000003FFC00000000000000000000000
FFF000000007FFC00000000000000000000000
FFF000000007FFC00000000000000000000000
7FF800000007FF800000000000000000000000
7FF80000000FFF800000000000000000000000
7FFC0000000FFF800000000000000000000000
7FFC0000001FFF800000000000000000000000
3FFE0000003FFF000000000000000000000000
3FFF0000007FFF000000000000000000000000
1FFF800000FFFE000000000000000000000000
1FFFC00001FFFE000000000000000000000000
0FFFF00003FFFC000000000000000000000000
0FFFFC000FFFFC000000000000000000000000
07FFFF807FFFF8000000000000000000000000
03FFFFFFFFFFF0000000000000000000000000
03FFFFFFFFFFF0000000000000000000000000
01FFFFFFFFFFE0000000000000000000000000
00FFFFFFFFFFC0000000000000000000000000
007FFFFFFFFF80000000000000000000000000
001FFFFFFFFE00000000000000000000000000
000FFFFFFFFC00000000000000000000000000
0007FFFFFFF800000000000000000000000000
0001FFFFFFE000000000000000000000000000
00007FFFFF8000000000000000000000000000
00001FFFFE0000000000000000000000000000
000001FFE00000000000000000000000000000
ENDCHAR
ENDFONT
